<mxfile host="app.diagrams.net" agent="Mozilla/5.0 (Macintosh; Intel Mac OS X 10_15_7) AppleWebKit/537.36 (KHTML, like Gecko) Chrome/134.0.0.0 Safari/537.36" version="26.1.1">
  <diagram id="7UI5eA_BL13z6bjw0aP4" name="Page-1">
    <mxGraphModel dx="964" dy="693" grid="0" gridSize="10" guides="1" tooltips="1" connect="1" arrows="1" fold="1" page="1" pageScale="1" pageWidth="827" pageHeight="1169" math="0" shadow="0">
      <root>
        <mxCell id="0" />
        <mxCell id="1" parent="0" />
        <mxCell id="wN9M0pw4aRPKDSzkksMU-4" value="" style="rounded=1;whiteSpace=wrap;html=1;strokeColor=#99CCFF;fillColor=none;" parent="1" vertex="1">
          <mxGeometry x="53" y="159" width="747" height="191" as="geometry" />
        </mxCell>
        <mxCell id="iZfUG4qXMEe-V9usVhb0-3" value="&lt;font color=&quot;#3333ff&quot;&gt;&lt;b&gt;Hub Cluster&lt;br&gt;(OCM Control Plane)&lt;/b&gt;&lt;/font&gt;" style="text;html=1;strokeColor=none;fillColor=none;align=center;verticalAlign=middle;whiteSpace=wrap;rounded=0;" parent="1" vertex="1">
          <mxGeometry x="147" y="319" width="120" height="20" as="geometry" />
        </mxCell>
        <mxCell id="iZfUG4qXMEe-V9usVhb0-5" value="Cluster Manager" style="rounded=1;whiteSpace=wrap;html=1;strokeColor=#6c8ebf;fillColor=#dae8fc;labelPosition=center;verticalLabelPosition=top;align=center;verticalAlign=bottom;" parent="1" vertex="1">
          <mxGeometry x="269" y="182.25" width="132" height="149.5" as="geometry" />
        </mxCell>
        <mxCell id="iZfUG4qXMEe-V9usVhb0-6" value="Management Addons" style="rounded=1;whiteSpace=wrap;html=1;strokeColor=#6c8ebf;fillColor=#dae8fc;labelPosition=center;verticalLabelPosition=top;align=center;verticalAlign=bottom;" parent="1" vertex="1">
          <mxGeometry x="412" y="197" width="267" height="120" as="geometry" />
        </mxCell>
        <mxCell id="wN9M0pw4aRPKDSzkksMU-1" value="" style="shape=image;verticalLabelPosition=bottom;labelBackgroundColor=#ffffff;verticalAlign=top;aspect=fixed;imageAspect=0;image=data:image/png,iVBORw0KGgoAAAANSUhEUgAAAOQAAADdCAMAAACc/C7aAAAAilBMVEUybOX///8uauUmZuQqaORRf+hVgugSX+MfY+QbYuQVYOMMXePz9v38/f+Ure/3+f7q7/yJpe68y/WjuPGwwvPl6/vF0vZ/nu29zPVKe+fb4/rS3PhnjeqovPI6cebn7ftfiOl6muyOqe9tkeubsvDX4PlEd+emuvLN2Pd0lus/dOYAWuMAVeKtwfPwQ0gNAAATzElEQVR4nO1dbXvqoLKNgZqE+NJa32utWmure+////euUZMwMBCGkN7z3HvmY6vICjAsZtaQqPf/wKL/7Q78hv0XZHB7nr5snp42h8ngV3/2N0HO+3nKeRxzlua7n1/84d8DObkIHlXGxWr+az/9WyCn2yyOgMXiMvmlH/8VkMN3nka6xVn07zd+/jdAjo8pBvFmKX8ddt+DzkEODhmLTRgLmOlx3HUfOgb5vEisEItJy8Sh4x2lU5Czfc7tCO/G8sVHl/3oEOT6M2cuEAvj+XnWXU86A/m2cxvFGubmq6u+dARy/pSQIN5gJv2OaFAnIJcnQYZ4h9kNDeoA5HQrGhyq2eKsCxoUHOR7pPI3KsxoGrpPYUEOX5mR3Lhbyr/D0qCQIAcj0bTzu8IMS4PCgXx+aSQ37haWBoUC+bFw3/ndjCWL50CdCwPySm689gy7BaNBIUB+bbqAeIf5uQ7QwfYgf/p0ckOBGSAa1BbkfOVHbggw29OgdiAnLciNu7WOBrUB+a8luSHAzLZtaJA3yOErGpzqDGYav/82yPEx+02IN7vSIE+25wVycPAnN0wIX9YQs2TkRYM8QH4sEm9yw6P39fqbeztkJl48aBAZ5OzcYufnq9uEG1/8HRbP92QaRAS5bkduxGO2PectGmFkGkQC+bNrR274S9nSuV07+e6tI5A+wSloaUVdpi19M0+eCDTIGeTk0p7cZBUNnWdt2+LitAwMchqE3IQEWbA9VxrkAnL4HofZ+cNN17vFWeREg5pBDo8hglM3Y1WXjqHCCClzoEFNIMMFp67GFmWz7bwrbFQ00iA7yMGLP7lBLF6VDW9DtsqSFztMK8h/3jTTYEnZchsygBgTVhdkA/kZ/EScP6Kpz0nghuNk7wdyF/4wJR587EsEbzr99AG57+DAWG6Uyy7afjFCMYKchJ5RhaWPWE2YbVKx3Ej0TCCHgV3O3dKHf3jtpHXjgJn+8dpJdKNkA6NOQGYmF2sC2UUnriPZKcj4RAPZgfsrLHusyfduomCJQShjAPndzaLhD545SDoJ2KaG+WoA+dlJ7J9VYYt1J0PJFzgaA8hwpLy2mEs/FnfyFLcUkLOwS7LQKoucr/bSVDmJRKQ88LNMcKKOgwy5WfNUpLvRcq2JAAZv/xYnYddQEi3D+QAOchFqMvEs27zbAojjn8MpnNaAjQggWwR/JeNpdp47pC8+3leBjq3xkzvIQQjeyvP+xDlBMxuxIGlAgf4iCrIxltbcH5YsiNH85cohrBs3uCqBBp1RkFbWxUV04Q3HaYe4C2KN6lGeXDZ2bSJ7dQbZt7TD+oUf+TlZngNPDp56qrcn294lNsXkmPVtP40enTGQQ8uS5P3HhxamKR3nny1ERsvICCEvR+nJPAYxcwVpY+eiWmkj/FNs21KSMjLM2bwSR9j6l2CeAANpZef1xw7YWOaHdhCvNlthVCSXyLelfyhHx0Da2PlF/pzWGcZJKTWTjfSIpZC3eYuLRTk6BtK2Y6XyRrRRHmm2C6RTfVMT7kKeIPaAphvIma0NOB12AGV+NHf7Yzn65JJD+ojOx7nZQY37YJYIEImz7nA5snchICdWds5AIxvps4kpWjaY7KM8ZTyRxnmQc5bllxcj7VtIjzoBC/3LOpAYR0dA2tl5HAH/dS49XZziPHw42SXp7dHHXP5zev9TJs6GZ/NaLUw4Q+Z2IoJxdATk1s5m4gTUA47y28d5jM692SJJ62cm/6dyHlzwI0qPlneUPAHCupeGyAnG0XWQzew8W8k+9Oc6Fa9AsH6+QSEFOLeDp5+gtVrzPMqu7EOeOdO48biCcHQdpEOmO8438rgNrjsrgnGtaEXivvxfeJrj+QJp4UdZ5m8nhyw8wtF1kE4xUZ5YPOnNhlrFHd/J/1f5MRMotwYtOsX42LcDSBs7lyw9WRVDk1R7VpA8b7SfSS/WFpfM7WCNcHQN5NBVlxFbtsXhJ/LQIRlBaJWtxd7eNW8LnLgB5Je7+ERsDB1aowFH6NxfsI+kfcMxdHBxj4/oHF0D+U6ItrCV+u2bTfGHzsA44UufM7SIckzRVeocXQNJip0nGB8/GCYWA5obk8glx+Tm/yghUp2jayBJ4UEs2nA2zfcUdN/Y71z3jr0DKUSqxdFVkFZ2rlnMtBPy2ugEU6CFMzLk9KKty3+0gL7G0VWQdnauGddX5fBs2M4gdTbIBjAPOyQmLTSOroIkxs7RjOAkRRsRYBv8QWc1izDHM6fFgTWOroJsYOeKpXhYftDHEAjg2tfIR+J8j7ZHzCRqHF0BSY2d430qzkn6w4KjjiTOuDApWInipkTh6Eo3aTpUYa4uWm81/5OAYKze78zEBHpUkYHK0aMWjRmFCDdbqNtlBv49VkYyzm0EfZiSdjZlF1JAOrLzuwm7DHyu+B8IsgfnDNvaUyckyY3K0SFIZ3ZemH0grzbegdGK4X9BrxOzZuzRM8pQqhwdgiSw8+vIQDeBOY136dgcK1uq1BLj2JyADZK0zgpHhyAp7FxxrdO/mBx8dqoGTHXsq2poxAbLD738BVsmye8rHB32lLIfwUNFjymBw9Iquq7y5vLUzBP0oqzPlMOnsicMgPJbECTFhUGlRTGbsjPW2zIanijz+UFI0xNGmoZPTHVsFJFYfAGtAZAfhCnBwYn57hdSEMWp/vdZrMxM+18/iyOOJ4juZ2RlFVOEDJCjA5AUdg7PFA8Pz05o9nX+lERIZOO42p7RsM7sMfgCnHEo+lHI0QFINCRhMEidyr/yKMAtD2/lMQbG9yilepCjA5An9wkB99t5tV5M2QKCLWswcCtYEboHYrwyyDHhUcFjvhxfNOZ9HO1b6gUcEMpWCSaaDJLCzsHKHshPJ85bXRp0AM4PUJc1wb8KeZOVQRKeFKR0ihQvx0+ZTqZEiOB5ghB/AhxdBklg5xxwzZ3yxcygO220oVqLwsAOQ+AqwGfIIAmzASxJXRKTmsLOdhsj6iD5/wTWGac4SAo7B24PCdewlYd64DnSRwqEE94oi1LqoQSSoH6HmiBsLfMtecNcY6cpQLXVg7bN5C9KIAk1jTDVqC7JO0pGFBDiITlItQkVifIXZVm4XwsmWU2ckGjBEgl9RSp/1fN9RoulOHoNksLOQXrAFEqLmb4uZ+ub6YM8+2P4KSAcOlDoQL2T1yC92TkeJo7qeh7po3+zwsQfbZCN3QcujlI0I3H0GiSFnYM92vh0mBq4ea4+ydXoo3EigvPEnABSooQ1SAI7h8FwI1Fi6vHqUiHhapDbOJKpHDegHJwljl6BpLDzKJH3B1NeLf6jnPk/JSCpQopmfwzPGDwpUr1KzdErkMaVhZmQz8b41hOzXIl3HEEPE4XGzxM86AgIJCldUHP0CiQp5AdcHsIoeZpvRwobUP3nH+X/g9enBCn54XLgaEAZyZqjVyDRHd0IUu6d6jN4luz+6ZuEuh4y7ROF0pCpdzcApk3KVNbfrECS8kZGkJwlkUn5CA/23MDhv44rMKAQJCnCX/WyBEk5kCogq+nKM7F7N5M56EA111vbYHKuBxSApJBXaYstQZL0FVEmj9XN8RRDuJhbKyVgAj2z6/G/Rqu7vtJ/TdYcvQRJu3FEyHv5gl39TP+1kY/DaFveeBZ7npwzwZi3d60ZdgmSJhUAZGCULpZOxS5yC2r6x2Bvo60cSyHWdZYc/QGSws4jRePgXLAkVXwwa8oVmPz8iPXkJUd/gCQqW1K/sOPz/eab4m4Zvxg0hbtGNe99gKSw8wg7XzhacUGjX7XazYil+yVHf4CksPMrxsz/tTTjke+1l73iPlkSypKj30HS9h/RpFru0F5JPX1sdXeQBHbOWe4bVQ1iiz+EmvbsTQLZyM5jzhlLMyH45hikHMvfPqaLVSpEljLGmjzJg6PfQdrZORfZ6nNxOE7nM5LHmM2nbl74+f11+kVqerCeT1+Ph01kr/h+cMI7SOtyTs5vVFfxMX/dr9IkSwV3eJ3LNE9ZKpJoM5rQoF5tdrCWGPAapJWd01Jxzz/viwIeeyycOGvs9roMCvBiQRRQ15SHag2r3zn6DaSNnZtuRkHhPYkaXvl9RIgMTVGfFlDz6NMdqo3I3Ht/A2ll5y6/M33p8zxD3Z7pZpXa0FzV7baQy6fTZmXp/P3XbxgsGDkqW1HtmBjduuXc+LAXs+/QbzDDRteW0duWIG2KAx3kz6jPNusx2Egscqmk0fO8Wb4Mzm/Lj2WUbPfaGzpte8MtI16AtN4iB7V48+KIx6+bSv4XBMGNE75RZdizcEqo/pj9FUVHi8PrVMY5tjGZG0cvQFozDNJ0+1qkWX1YAjnztWk0UgeWa/R7UMdTMxaeJpva5++tV0gcHyDtWepHXfhgulIWHuioacpkDi7SFJ5SDtYgb8fF9h6LGJytm/xtuRVdfWq4yIPtRy+nXI39QuXbGl/XXPMck8VC23gNB70EDKS2HzLBPxdNLyu5BQUdQBa3PyHOU4kp4tNBKw7rC84TNRqJV9xAwRG27IuO2btegySkNmXLAQA0xqTldV5ucytTVYPobR45cG2et6VW05UYFqi+D7f5I7I2FHFz7+MxqXMlFbREVqWS+KPkX+VWSsdDDPBUptwthuwEar1mJeRVJyzymGPgsmjH+tqqLWTgeTmw8qxnWjNqPVG97as1ifqBFnod79snb+Hd20ZASvbILcCY27c66RIlJldnQ9Swq7biUvgAfQfyTthuIH88h1LlfMqFJ2p5xkR6CGpxkOKc1Wo+C7+12t15uUQGLG0oxPQC2hFKugN+F/7vB5aQKJoCWlVnbY9RuP/WwPM+NZWZPssPPFYqUmGRTqqE0OVyP00CRCo8koyPJZDFDRRelilHYpnDKhHoMXyQsYD5EzlurN6ePPFckeVEK2fN0bMdtUpUukcGVtlpy0rxzeP6i2rt9phUjSb1rTwcVEvj029pa/W+VU5G4Qof2lxRnk8VBdHq0z0ZWS0wqdf/xbMpVaZcih0hK0O4reJ8S4qvFsn0pn6TTKKUNchnz/eUJGrK+C5bVXbCL2TR55AR3M4JPFMjCd6eFdPWee+WqRqOGO4ytdwALXdQnkOxjbKTmtMb0qqsK5Mnkrxd0ZIplXE9wnHMObwKcIk2ncEHwbDXKPgekeRIKtiTz55MX1erfHF4mjJ9FXzooGq4euXZjGyQFcKfObX1Y5UNwbT7NnQVMoJnPf387XmKhOdtCHLgSREzeyWIcaOLU7uiwvMtEHEMm1UoJOYEXSyxojQfeDVJLLClZ2+U3Uu7MeLd02HbUNqC16ab9gub+D5xlU1oqQ5KVa1swpzzsJEpk8Tuav98tzSt7lTP56w8Gb+xqmewM112XlxAuDKl9pCrQZ2M6eW4yOV8vnegs5Opv8P5YSVEyjiPb2DjIjufZsnqxazGO3ueGOLI5XK+3tpUvdBknFnkBMP15LjvX1iS5zm79PejyZcluD5Y+V6MniMaPyz9OPW+Bt12JxvF1Bs1CD3A7nRAc6wL71cTpE8h3lzfdCmm2fANG08kW+6nbjAu/F+n/LAv/ZYb519H7wAwgBy3eAFDtiK/mFa2wcL/rTDxFl/mBkmAIUnlZHqNEsW83V4R/6K9w8ebbRinjLP1vQfS+PYwo7jD84xTWDuQ3j+bGV27uUe2VwBYLW/lYPWMiqMhp9pmkEOHF2ZgFtf3Ac+PrniXdaDIN85teEmRHaRvBEmqmt+mSd9SKPKw8XyfiroffonIWFiep20B+R3nqqzltKD6PE22L0vjeWr8c+yLjMcRX5VBGb/XzuS2MhOrlxh5RCmrnOSoKlK+AmW7w/TnQ2Ljw8HX8njeFlK8+4fi6kTqk4q0i6ntrtAj21UmiGHEPL4pIHO2Pa36/afTJUqS4lQCvllmM4f0RcksrxFtBEl3PtVNiejNm/HtlBXjjVahkCV1wvKLCYALyN4HkWNVTGDssbKq0lXqBMoanHjTzk3M6VUJdJ93rFXS2gHttcJWp+MCsncklQFXcWuf3HWdoiGdaBtviW8Gqb35xGL1+vfbB2qCTSgCZM2KXAei6ZxxiVm1R9CuMqz6W42J+3t3kUyMD8hn1xUiyT5pZVGlSWku5zWNvfrBA6Sz86n1V76vDZeEP47zNXcpxXE6F7kJCiT9la+QTUpquvGexCnY4nb4cxIUSEWVvq+UleLpTm8eZ3un7juecF0EBXUptv+rHev56gISuYW9Dchnh5+sfaOnbDOSs1wuN1hod8G0A+kkKCiPrcQCaWCV1Nlh6qiit9Yge9/NzofdE1sfniGFu/E7SgcKol6REgCki6CAPU3Wbwca8dRMLOY/79vmgURy+O1BuggK4jTLWr/C9nrydLhPUZO3hwE56Oat7n4Wc8LLSilBUl9BQRemygKCgey9h33beAtDX4ITBqS3oCC0pU0X4LcB6S0oCGuKFik0SF81U1DDZAEhQf5HOB/0Db4hQbYQFATDSHI6XiBbCArCmK5F6gCkd/1CGPPJ8XqAHLtfMBLeyE7HE6S5gPkXMJKdji/IFoKCtmaUBYQH2UZQ0MoaxMNhQfoLClqZRTfaBUhfQUErs8kCugDpXZLSBqOwqJw7AemtD/c3P6fTCmTv4Fn25Gst7lhrIZ/yLZ/1swZZQFcgfauovKxJFtAVyN7HL0ZD0jZatlZqvy9/aSrNiO85CAqyN4t+hRSwre/mEQJkb7jIO4fJc1rYKjjI62DuC+kYj12N04wJsWg3jCFAFqUto8/+k6P1SbY7H5s0Oi4WAOR/vv0X5P8V+x/criFW+sDbfgAAAABJRU5ErkJggg==;" parent="1" vertex="1">
          <mxGeometry x="89" y="202" width="113.48" height="110" as="geometry" />
        </mxCell>
        <mxCell id="wN9M0pw4aRPKDSzkksMU-2" value="" style="shape=image;verticalLabelPosition=bottom;labelBackgroundColor=#ffffff;verticalAlign=top;aspect=fixed;imageAspect=0;image=data:image/png,iVBORw0KGgoAAAANSUhEUgAAAIAAAACACAYAAADDPmHLAAAgAElEQVR4Ae19B1RV19a17/++997XXmI3Mb0nRtOMvTd6h0tvgtGYxMSYmKJGicbeEVT6pRdBsSAo2HvvXRFsiGBvKGX+Y+119j3nXrBFfRGTjHGGiS1w9zxzzTXX2mvVqfPXP399An+2TyBNd/K/F+uKGs13L2lKT47ucv2tffH3P9vn8Kf6flEHf0vTnXxhnu7sN5m64lULXIvPL3ArqVrkXlqV5XHhVLbnxcxsj8se8/wv1v1TfTBP+zdLB5/hVPh6hlPhzxkuJ/PnupzBPF0R5rsWY4HbOSx0L8Ui9/PI8riIxZ6XKrI9L29Z4nUlIM/jWpOn/bN56r+/FMdjb6c6HBs/x7HgVLpTITKcT2Kuy2nM051BputZBQQlAgRZHhew2PMisj0vI9vrSmWO19W9S3yvDljme+OFp/6Detq+wTjr/c0T7Q7PSrY/UpTqcAxpjscxx7EQ6U4nkeF8SoAgU1eETNdizHc9hwVuJQoLEAguIdvrMnK8r2KJ97XKpT7X85f63hyyNOB606ftc3qqvh+i+libna3jrfZEJ9jsL0myPVSVZHcYKfZHkeqQjzTHAsxxKkS6M4HgNOa5nAGBgEMBs8AijwvI8qRQIFiAQeBzHUt9b1Tl+t4syPMrG7/E5+ZrT9UHV9u/maAg/D+95Y4OeqsdSbFWuy/HWe+tSrDZj0Tbg0iyO4Rk+6NIcTiGVIfjAgTpTicUFmAtoLJAKRaqWoBZwEuwAJb63ECu703k+ZVVLvO7VbTc/3bo8oCyd2r7Z1erv35648N6buwYabYlK9p8W1mMxY4qveUuxFntQbz1XqggkCxQUyggFtBqgfMQLOBxSWGBq8jxvoYlxAIqCLDM/3bVcv/bl1f2rghb7nfr/Vr9Qda2Lz6s5da/z+q53jy81/p1Eb02VkWabUKU+VZEW2yH3nInYi13I85qL+Kt9yHB5gASbQ8h2e4IUuyJBTgUEAukkxZwrokFLmARZwTI9ryCHFMW8C3DMr9bBAIs9y+vWtG7/PaKwIqUVf5okabDf9S2z7PWfL0TzZb8b0i35a4ze6zcMLv7msqwnusQ3msDInptQqTZFkSbb0WMxQ4GgRWBgJhgPxJsDiLJ9rAGBBQKCjHHKBScRaYQgxwGFrlfRJZggSvI9tKywE3k+pYhjwDgRwC4jRW9y7GidwVWBlRWrgqsWrA6EB1W+OO/as0H+6R/oSE98hrM6JLbe0aXvE0hXZZXzuy2ErO6r8LsHmsQ1nM9wntt1IBgmzEIrPci3qAHDrMesM9X9ACBQGYFRZin44xgvhuBgFkgy/MyFnsSCK4hx1sTBnxvIc/vtmQBCQACAVYFVt1aFVCVszoQ1kt88L9P+uf7xH59UzvlPD+tQ1a/aZ2yd03vvKQyuEsuQrouQ2i3FZjZbRVmdV+DsB7rVBBQKDDjUMBMsAuxVnsQpwkFSXZHNCAoQJrjCaQ7nUIGhQKXswoISrDA7bwCgkvI8iAQXEWO1zUs8b6BpT7GLLDMvxzL/SsYBL0rsTKgikAggLA6oGrZqj5w2+iFZ57YD/pJ+8LGd5jfdEK7zO+ntF9weEqHRZjacTGmdcpGcOelmNElDyFdlzMIujMIZvdYqwHBZoMeiLHYCb1BD1AoYD0gQGB3FCn2x5HmwCyQ7nRagGCuy1lk6s5hvmspFrhdwEL3i1jkcQlZGhZgEJQhV7KAXzlUEFRihTEIsCoQFasCsWFVIPzWB6L+k/Z5PzFfz9i2ya+ObzNn5IS2GUcntpuHSe0zMbnDQkztkCVAML1TjgkIVhqYYLZgAlUPSFEYQ6LQajdirfZqmOAwCAQpMhQQCBxPgkAw17kI81yKawABs4AIBV7XscT7Jpb6EAhucygQIKjAcn8FAL2rBBOsDABW0RMonsrVgdi1KhD9VvdGoyfmg/+jv5BRn8a/M6ZV0tSxrVNOjGuTVjW+TTomtJ2Lie0yMbn9fEwhEHTMEizAIMhFSJdlChOQHlgNwQI91iO8p6oHosy3IVqIwl2CCRgELAoTbQkER5Fsf0wwQaoEgfMZzHU+q4CgBPNdz2OB20UsdKdQcEWEgsWe15DtdUMBwS0FBOXI86vAMn8VBCs0IBBAYBAIRlgdWHVodQAG/6mBMLJlTItRn+hDfmsZf270pwlVY1olY1zrVIxvMwcT2mZgYru5mCRAsABqKMjBdBEKFD3QVdUDzAIEAi0TbEe0xU7EWOwS6aEKgkNQQZCPFIcCDgeOp5DufAYZzkWYK5igFPNdLygguCxAkCUAcB05XjexxLsMS31uI9e3HHn0CBBUCiZY7l8FAoEKBGaFVapGqFgVWHV8ZUDlyLUB+PPYzEEfRDYP+jgi9tdPoq+M/ERfNaplHH77NAGjP03C2FYpGNcmDcwCBAIKBRoW6LgYxAIMgjyEdFmOUFMQGJhgMyLNtiLKfDuizXcIEJAmMAbBESTZHUOyfT5S7AkEJ5BGIHAiEJzFXJdzyNRJEFzCQvcrWORxFYs9rwsWyPEuwxLvWyoI/CoYBH6VWOZPQKjCcgUENYGBsgZKH1cGVJ5dGVA5eVVvvPRHM/Jj+f/rdGn/MeSDkE+GfzA7M+jD8IqgjyKrfv04CiM/icGoT2LxW8t4jP40EcQCY1unmoCAQoFkAdYD07R64B4giOi1RQMCFoYSBPE2B5FoK0FwHBQK0hxPYo7TaaQrLDBPV4JM3XmFCSQIrjEIPG8g26sMOQIE5YIJcn0rkEcPgcAABMkKlVjemx8Si/xwBrGid0XVyt4V15cHVASvCMSbZHE/lsP4d/6lA94M/ueQZtN7DG0+I2tYi9DyXz6YheEfhmHERxEI+jgKv34cg5Gf6PFbyziMFizAIJChYHzbdExsaxIKhCjMxrROS4xFYTUm2ICwnhsRrhhFxARR5jtESGAm2Ic46wNIsKFwoIDAjpkg1eEk5jieRrpTETKcizHPpQTzdOeR6XoRC9wuY6H7VSzyuIYsj+tY7HnTAIIlPuVY6lOBXHo0QBChgcKDohNYK5BeuONzc7lfRfQq/1stamWnUlCz0P/7ofkkp5+aTc39+f1pt4c0D8awFiH45YOZ+OWD2QIEQR9F4tePo2tmAQoFrauHAskEUzpkYVrHbEwXIMjFjC7LMKPLcoR0XYFQxSMgTTC7x3qE9diA8J6bQEwQabaNQWAumYBBEG9zCAk2R5BoexRJAgSFIBCkaUCQ4VyCeS7nkalTQbDQXQuCW8jxvo0l3uUwAMGXgUAawaAThFYgvVCOZdrHn9NJSik5rRQ/li3zL0/L8y1vt3gA/vnvfHl/1//rpxZj6w1+b4LbD+9MWP3je5Mqfmo2BT+/Pw0EgKHNZ2BYi1ABguEfzMaID8OhgkAPoQXuGAooK5iHSe3mi3AwucMiTCF/oGOOAMH0zrkI7pynAcFqzOy2BrO6rwUDwQQEZqQLdiHGYg/0lnsRa7UfcdYHEW9zGAk2R5Fom49k+wIDCOY4FiHdqRgEgrkuF5DpegnzXS9jgdtVEAgWedxAlmCCW8j2um0CBGIF7UOiUX3ylFSSnEXTh+xmAkqeX/mNXL/y+bk+5ebrdfjv33U4j/MPffnumAaD3hrt//07Y7Z9/864ysHvjscP703Ej80m46dmU/Hz+9MxpPkMDG0RgmEtVBagUKDVAlIQjmmlCEIlKxjfJsOQGjIIFqqZQcccEQ6qgaDrKszsthozu6/FrO7rBBOE9dyE8F5bENFrKyLNKCRQhrBbBYHVQcRbEwiOIdH2OJLtC5FifwqpDqfBIDiHDOdSzHW5iEwdgeCKAoLrWORxE1keZeJZ7FmGbC9mBGIFZgZiB+XxIeFo/JCxVNNDABF+A/9YlutTnp3rV+G8sC/+53Ge6X393QPeHNPom7dGfv3tW6P2Dnr7t4rv3h6N798ZCwGAdyfix/cmwcAC72tZQNECpixQkyBsnYZxbeaAQTBP+AOT2i/A5PYEgqw7MsGMLisQ0nUlQgkEgg0oJJAu2ITwnpuNQBBtsRsxFnuht9yPOBMQJNkVItnuBFIdziDN8SzSnQgE5wUI5ukuKyC4hoXuN8SzyP2mAQwCCJ7ECvIpQ44QjSQcKYOg5yZyvCmlZHOJDCbj5xZyfSQ4DMxRnutXvjrPt8JtbQD+dV+H9Sh/U1DXoP8c8Ppwj2/eGL5v4JtBld++ORKD3hqFQQIAYzD4nXH44d0JzALvmbJAKIZptIBkASkIJQtQWiiyglYpGKuAgPyBCW0JBPMhQSDCgUYYSiYI7ix1wUqECjagkLAOs7qvZyD0ICAQG2xDpNkORJntRLT5bugt9iHW6gDirA8h3vqIygZ2J5CigGCO0zmkOzETEAgydVcw3+0aFrhdx0J63G9gET0e6kMhggSjeLwoe6j+5HjdEGAgQEhQMEjKsMSHHi1r3Kb0s3ypT/mapX7lHR7l+d7179LV0f3HgDeGDP769WHXvn5jOL55cwQGvhmEb99iENyRBZpNwxBTFhCCkLWAmhXEYlTLeIM3wCBI1YjCuQoIMgUIJrVfiMntFwk2mNqRs4NpnZaCgcAgYDZYJdggtNsazOxGYYGAsBFhPTcjvOdWAYQIAoK5ygZ6y4OItTqMeOujSLA5jiQCgf0ppNifQZrDWcxxKkGG8wXMdbmEeborAgiZrlcx35XAIJ+r4t+FVnC/LjIHyh74uQYylughb4H9BfYYCCAMCPkjg4KYQ/oPS3xuQzzet4pyvCus73pwj+oXv3xtiOuA14bcGPD6MHz9+i/45o3hDIA3f1VY4Dd89/YYfP/OOAwWLDAJP2pYgMSgsRYI57TwIzUt1ApCZoIUjG2lgkAbDiQbEBAoJBAIpgpdsBQCCJ1yMb1zHoK7LMeMLisRQk/XVQjtugYzBSNswOwemxDWQwJhO6LMdiHKfA+iLfZBgiBOAUGibSGS7BgEqQQCx1KkO11AhvMlAQQBBheFFVwJFBwmWC+QZrgi0kiRSop0klLKq8iSjyf9uzEgVHBI1ripCSWkNYTeOJvjffuTR3XONf4937w2pMmXr/549KvXfsaA14ZAgOANAgGxwK8KC0gAaLUAhQE1IyBByBkBa4HhHxIIIhH0UTR+/ViPkZ8QC8Tht5YJ+O3TROESjqFQ0CpVCQfpBk3AISETE9stALNBFqZ0WIwpHRgIUzsuwbSOSzFdAqHzMgR3XsFg6Er6YC1mdqPQQEDYjLCeWxAuwsJORJntRrT5PsRYHIDe8jDirI4i3jofCTYMgmT7M0ixP4s0xxLMcTovgJDuTGC4KB4Si/TMo0fHwpEzCBKQl4SnIHwF4S2Qv6A+i9yvKKCgVJNBQcDIEkxxQ/Ef2IMgM4p0xmKvWwsXWz7GdLH/qz98/sWrP+LLV3/CVwIAQxUWUMKAQQtIEGhZYMrdM4IPIxCkYQEGQbwAgWCBT5NhBILWDILxbdSQIEDQbiEmtV8kwsJkCYQOOSAgTO1IrJCL6Z3yMN0AhFUI6boaoV3XIrTbOszstgGzum9EWI+tCO+1HZFmuxBptkc8xkA4jgSbE0iyO41k+7NIdSgRQEhzLMUcJ2KF80h3Pi8EI4tGEo7yIf1QqvgKFzDf9aLx40ZewyUsdLsMAgI/V7FIY0CJEOLJQGBtUYbFnmW3F3s9Jj3Qt2Xfv/d/dfCCL175AV+++iOMWOD14TWwgGlGYMwCQ5tTSkiCcBaGfxAGwQIfEgtoQsEncRhlYIFkjG5lAoI2CgjaMggmtCUmUNjAAIQsSCBM0QBhRvdlCOmxHKE9VyKk+0oEd16JGV1WI6TrGoR2ZSAQI8zusRVhPbYhvOcORJjtRpRghIPQWx5BrNUxxFsXIMHmJJLtipBkdwbJ9kVIcShGqnjOIs2hGHMcz4GEI4vHYsxxomyiGOnOlFGcYzCQ06g7j3m6UvFjpisDg4AgwSBqEQQC4T1IHXEDWZSCCoFZRj8G1UjfD/uT/V/+qd7nr3x/8otXBoNBoLDAa5IFWAtwKOCM4Lu3xxprgWbEAtPw8/vBii8QqvEFwjHCwALaUMAs8NunSSIUjP40BWOUUDC29RyM0zABscH4NvMggNB2PiZ3WojZdrmI81uNrKDtWBt2CLvmFeJgXhEKt5TixLbz4jm+oRSHlhVj19xTWDc7H4uG7EOS/3ZEO2zGzO4bMLP7JszqvgVhPbYjvOdORJjtQZTZPkRbSCDkI966UDyCFWxPCZ2QZHsSSXYnkWJ/WqSRlEqSp8Ap5RnhLTAYzgrLmcFAjmMpW88CFBeQqSMwyJBxBQsNOoLSz2tY5E4+BANhscfNnDQd/vGw513tz/d7bdCHn7/8Hfq//D0IBMQCFArurQWUMPCusRgUxpBgAY0x9GEERnwUhaCPCQBUJ4jFSMkCLRPBIEjGaCUcSCCMU4BAYJjSbT4S+qzE6ln7cHzTOVw6cx0V5ZV40H/KyypwvuA6jq0uxZoZx5ESuBvhlpsZCD23I7wXhYa9iDLfj2iLQ4IR9JZHQU+cNQHiuNAL8TbHkWBbgCRbChcnhKeQbE+gIIOJTaY0R/IYzmCO0xmkOxEYzmGuYAZyHumRgKBQIV1IFpTCjXQjIFzn1NP9xmm67VztAB/2J/q+NPDLz18ehP4vfycA8MWrFAqIBUgQGrMAp4RSB4zF4HfG4wdhDGk8AcECIRjaYqYIA7/UEAZYEFIYiOdQQOGgGhBSMa5tGqK8lmJd9H4UHbgAOrxH+U9VVRXKrpXj9K7LWB2cjwTPnUpo2IHwnrsQ0Ys0wj4Gg/kBwQwxloeVMEGAoFBBoDgm0slEAQgymNhkSrGn9JKek4rrSGBQwoSwoM8hwwAEYoSLBjuasov5rpxqCh+CDCnPG60f9ryN/nxQnaD/1+/lb+P7vfQtBAu8QiygaIFXf1YE4TCwLxCEgW+OxLdv/SaMITUMqM4ghwHFHm5OYWCWUiSiMBDJLKBkBL9KFiAm+EQCgdggEWPaJCPpqxU4sOwEblwqe5Rnfse/i8Bw9VwZ9i4oRmqfPZjZfTNmdtuCWd1JJzAYInrt5jBhvh8xFgfFo7ckliBf4RDirI8oYMgXdQeqPZD1nGRXoNjPDASVGaQDSb4DCUjSCpRZXBJpZqYCAgICG1I3Bhod4MP+x4A3B/yz74tfH+j30kB8bgCB1AIkCCkllCwgU8JRGPSWZAFNNiB0gKY+oA0DH4RjuAgDLAaDPo4RaaFMDTkcMAii/XNwZO1p3L5ZfsfDety/UHalHHsXFCHWfStCuqzHzG4UIraKMDG7xzaEkXDstVtkEFHmexFltkdJK/dr/IXDiLMms0l1HQUQhOmkBUIR5pBwFFZ0qWJHXxAgkG6kCoRryY+0n6DPCwNe/OzFAZV9X/wGAgQiFLAW4LSQfYGvXx+mMYbIGWQAfPfOOHxvEgZ+el+KQSUMCBagbIB0gAIAwQIMAqkHJnROwZbUg3/owWuBRYxw/eItrAk9hpDuazCjyzrxhHbdgJndNqqagXRDz+2I6LVDpJbCaDLn+oNkBgYBuY7ECAUKI0i9QDqhyFCPSBcu5HnMFU4keQ3kRioGlO7qsUfqB3z2wpeun73wFfq++DX6vUQgkKFAsoD0BZQw8AaFATKGtNmAqgN+bDZVkw2EYGjzmUoY4HRQgmDER9EI+kgFQEL/XFw8fRX0oT9p/1RVVuHM3kuI89mEaZ1WYHonSi1XY0aXtWAwUCZBaeUWhPXcZgBCtPlexAjH8QBirQ4izoprECojFAjhKCxoQwZBDiSllSWiJkF2dIYwnS5hnstleqoynC69/rDMb/jzfZp+GUwA+OzFr1GdBTRi0CgMBOHbNykMjAbrgPEY/O5E/PDeZPxoSAe1OoBAMBu/yDCg0QJj2sdjTfRuVNx+tOLucYCo7Opt5Izeh2ldlmFax+UKEFZhRpc1CFH8hVndyXpmIIT3pGLUToP1HGNJ4eEAYi0PIc7qCOKV0nSSLQlGmVIWgWzoNEfpMbDxxA7kJWFLZzhd9jQc4MP+S8ALX2zu88KX+OyFAQoLDDRiAWkMffXaUMUelvUBCQBZGyAATKoRACIbEAAwZoHJZinYn1fwRL71dwJQxe1KbE7Mx4yeyzClQy6mdszDtE7LEdyZgECMoDqOEgwcGshoIp0gWYEYgUFAxShRhxDppKxFFAmjKU2wgXQfLyLd6SLSnS+EPey5iz8f0DDgX4FN+5f1afoF+piywEvSF5AsIOsD5AwSA3A2UL04JA0hlQFqAsB02zSc3FV8p8/5if55Cgn7ck4h1CoXE9tlYVJ7qk1ogUCMoAXDJkNoiNAyggWFBhKKsg6hAEEpSKWQ8yis6HNgG/o85jhdIADsfjQAeK5vt4DnP68KbNofkgXUUEBaQKaEiidgCANqOnhXALw/A0Obh7IfYGCACMx0mYuiQ+ef6EO+ny/uyJoizLDMxoS2VKzKxpQOVJPIxbROVJRi+1llBLaeyXamGgSzwT7EKCEh1uoIewqCDU4gSTiOp5Fsx0WpVAcGgQCC4/nyROtL9R4aBP5N+gwJeL5fVUDTzxEoWUCEAhMxKOsDBgBQOij9ABkCqEmEHEHJAMEY8v4MDDEBwBTLZJw5UHo/n2+t+D2HVp7G5K7zMb7NfExst8iIEaZ3WoFgUYOgYhSlkhsVoUgZw05EivrDXkRbsKdANYg4UYOgYlQhEoXdTCBQmYALU6VVcxwuWD48AJ7rk937ub4IeJ4A0B99mpIWoIxAA4CXB4PSQeEK3gEA3709DoPfmYAfTC1hAwBmCRE4plMsCnecrRUHe79fJGUtO+fnY1zbDIxtPRfj2mRiQluqWmZjageVDRgI6zCz+51AcAAxlocQa6XazaYgSLY7ixT7c1SdrEp1KB31UAAgA8ivSUBx7+c+Q+/nJQhYC3BKSMYQ2cPfCwB8KVxBrSGkMMBbY2AMAGMG4BAwC8M/CsOeJcfu93OtVb+vsqISy0N2YfSnaRjTKgPjWqsgmNJhqUYfUEWSQLCJmUBWIntRSKACFPcmxFoeVaqRKhMk2p5Gku0ZEAiS7c8hxaEk76EA4PN8wKd+TQJv+j/XRwMARQuIlJCygUEaHUC2MGUCv+BrQ5MIWcJ3CgHTMeR98gHYDs6ZvAGVlU9ejv+okEY1isQvVqggEEywAJPaLcbk9tSzQGzA2QKnjGQkERC2GlxFWYWMsZC1hmOIE4UnKkufQKLNKSTankGSAEHxhZiux3//tBK/xr37+zXuXenXJBDEAgHP9xNhgLQAp4QUBrQAICGoZQAyg6QdTD4AaYDJxhqgORtB4b7zcOv67Uf1WT9Rfw+FgLKrt7Bz0VFE+izGqE+otJ2KMa3SRUgYTwKRQCAEYh5UXbCOTSRhIKkgoMJTtDnVGKi+QBXIY4i1ykecdQHirU8gwQCCorJk++L2v5sFfBv7xvk29odfkwAIFjBoARkGVB1g1CNQAwOQHaz2CJITOB0/i/gfglHtInFqT+1M9+6ENEoDb14tw8HVx5H64xKMaBWOoS3I46CGlziM/CQRo1pSaXsOxokehoUKE1CWQOniCo1vQLYyZQja+gJVH6nyeAgxlkcUEBxHHPUl2JxEgu1pYoKqRNuzX/8uAFAF0LeR32Gfxv7wbdwb/iYsQJ6AkRAUPQJaS1jNAqo7gdpiUCiWBm8Cxcja/g+96bdu3MbJvWcwf1weRveYhe/enoDB707Bj82C8fP7MxUQRGPER3r8+nGCAMGYVgQC1gQTBRNITUAgIDuZmIDrCrNlU4ooQe9HlPlBRFscRoxggnzEWikgEExwmoCQ8rsA4NPA5z3vRr4XfRr5CQBQGPDXhAFpCvV7kYTgd+hPnUIiE2AziBtFZUGIOoPUWgDfFqKuoBBMtUnE5bPXavXZE3hLTpzHCv1aTNbNxjdvDcfXrwdh4BvkhNL3TtkPCV8GwbAW4Rj+QRSCPqKGl0T81jIVY1tRdjAfE9ouwqR22ZgshOEyxUom04hSRKonbAWBIEyUnvci0kwDAgsZDo4jzoo6lE4i3vbU0TTdvgfvEPJu5O3q3dCn3KeRL4zCwPP9EPC8kg6K4pAKAG4Q0WoA6QTKD0F6AET/wRjaIhRr43bW2sO/fvk69q3aj6iBcRj04c/4TKTG9DIQE1LbPLGgBAHZ4BT6yPeYhWEfRGDEh1Toilc0QZoJCHIwpUMepnVcgelKUYlAEKqUnMN67EA49R30IhAcYCYwP4QYC204OEEguBRnfaL5A7OAV0OPSV4NveDdyMcEAJQOqgDoKxhgkGCAmgCgFoPoLSABqMb/qbZJuFJyvVYBgGi+uKAY2bNzMMLsVwS80Bf+Tfqi93P9EPg8eSSki8gd/QlfvUogIEeUMiHSQFQIm46fm5HwpcJXJEZ8SKGAQMB6YIzCBBPbZmFy+yUqCDpxHSGk60bRgCJZILzXHgUEChOYH0aMYAIKBwWkCSrjrAp9HhQAf/Ns4LleAsCnkT/8GgfAv0kfSFOIDaEBECGAegUNGkAyAFvBAgBCAHIlUNI/pX4rI7bVmsOvrKzE0e1HEfV9JL54vz+8GnrCq4EXvBv6gD8fypTILCNtRBY5lcp/wnfNR2FEx2mYYBWBmV7JiP48E4mDsrFo7FrkTN2EdXF7sCFhP7amH8aBZSdxcPkpHFpxBodWFOFg7hlsSy3EttQTWDvrGPLGHcbCHw8g9bO9iLKjtrQdIhSE9yQQ7FOY4BCiLY4gxvIY9JbHBQhirQpCHwgA7vXdX/Jo4HFK/QZVHcDpIH2jsjo4UGkTo0ZRFoF8Y0iWg6UHQACQBtAMjOkSg5LjF2sFAAr3FmJG32D0fsUXrnWd4VbXGe71XOHZwAPejX3wzYffYpTVGMzsG47UXzOwLHoVduXuxYm9p1F64gIuF1/B9Ys3hEB8WLFbWU4pZTmunC3DyW1XsDHiDNICDyPCbC8ieu1HpNlBRJkfZhBYMAjirI5vfqAxth4NPL5ANjkAACAASURBVLp7NvAo82rgCe+G3lB1gPQDVABwhxAxgKwIEgNQNfBX7gcQJhAJQIr/U/FzM/L/Q5D83RJQqvSk/7NnxR70e/Nz+Dznja8//goj7UYganAEcsKzsWflHpw/fR5XL15D2fWyPySTYY+hAoeXXkSixyHBAioIjiLGMp+YoCjauvD+G0Q8GuiGetR3h2cDT3jdEQBsBsnuINUHoK4g2RdIJpBGAIpZAcHidvCuxYef9LMXX1/57XLcvHZTHPCtm7dEUwp96E/aP/Q1lRy5gThnBkGU+SFECz1ALJB/O8aiwOq+w4B7Pd3C6gDoDdUR/JyLQiILkCVhuifws9IQUhMAqCWc+gBnYFw3Pa6W1i7x96Qd+J2+nrXBZzShQNEDFscQY3F8xH0BQPd/ukbu9d0Oe9R3M2GAGgDwAvUImgCA0h/BAOQB0PUwUr8y/rP3H9Nv4Z2+/r9+/iE/ga36YiEIIyg1NCMWOIJoi6OIsjiWRzsW7gkCXQNda/d6rteYATxAmUBNGoCzAAYA3xYiDUAmEN0WpgyA28HIABos47+4DBKKNTG1N/d/yPN5rH+cNNWS4YUI77lPwwKHEcUgOBZmXvD8PQHgXl8XSAr3ziGAy8ICAEoIkOVgvh+gAYCpAHw/GMM/no3Da0881g/iz/qXFx+4Dr3DPoT3VDOCSLNDnBWYHbmhtzx670ki7nVdolQAEAPILECGAMUIeuFLpUH0W0M/AAHAkAGIm0FSAKrxnwo/l4trt/X7JALsxsXbyBx4GLN77EKY4gtE9DrAaaECghjLowPuygB2De3+5VbPZasKAG0WQAUhaQRRT4AsBlFDiFoHEAAQdwIoA6AuIOP4P7FXfK1I/57EQ77T13St9Bayhx8TxpAEgBoGCAQKC5gfSbwrAHQNde+41XM5Xx0AbAQZACAaRBkA3BEkTSD2ALgXkO4DsADkHkDqAA5FpP/8O30ff/38A34ClPoV7b2COf33Yaa4krbDwABqGFBYwPwwIs2P7IhxOH7n1bjudZ3s3Oq5VLnXN9UAxgBQG0LYBWQPQJsCUhFIZgCKASQGRIUidXDuA36bf/32mj4BcgM3Rp9AuPUWhHalC6p0J/FuACAWOHI52vJIszuygFs9l/Fu9XTgFNBD43VrACC6gtSGEMEAwgWk+4HaFJAsYBoYqcb/oS1mIW/Glpq+n79+7j4/Abp0smveacS4bsaMLusxo8tGDQC2Y3aPnQjrsVsjBFUGiDI/UhVjcdS9RgD4v+r/X251nZe7awFA1UAqdhi6gmRbmOICUiVQzAsgE4hTwK9lCvj2GPz4/iSM7DALKT/kYMfCg7hayyp/93kmj/23VZZX4nLRDayPPIow+7WY2nElpndag+DOdBF1A0K6blIYwBQA+0B+gLSGRTpodnR6jQBwb2jX1K2eyykGgGoDEwC4H+DOdYAvXpFXxH/BwLdGYkS7aUj5aREOrDwmCiCP/RN6Cv8HNNXkaslNcbso4/utmNY9F5Pb52JKh2UKAFbfEwDhvcgPkACQQvDo6jDbM9XHzLrWdersVs9FVLm0HoC3oSGEAGDcC0AuIJtAP+Kbt3/BRIfZWJu0BZdLrj6FR/L4v6Wya7dRkn8Z29KPIf37DZhulo3xbegiSTYmtV+KyR3yMLXjCkzruErDABsR0nUzQoUGUBmAUkEGgFIhVDOBc9FmR6svpnCv5/JjTQBgF9DEA2jKN4UJAF+98SMmOc3EtkW7cevm09nV+/iPnv8P84ZtwPgOc8W9gbGt52FcmwWY0DYLE9vlYHL7pcrbvwLTOq3G9M5rhQagBhFVBN4XABBtebS7URjoWqfrf7rVd8kgAehe3w0e9asLQD+tB6AAYES3cdiYsQ1l1/4941n+XQfxR/1/IjyXYjS1ireah3Gt6SrZQkxouxiT2i1R6H85pon4T/RPAOD4H9ptC2Z226bJAqQIrEEDmB9BlMUR41Fyunq6Z93qOh8yEoCGbhfZDKKaQH1f/hpR38Sj9NSFWnVt+4862Pv9/063WKS8/Zni7Rf035bofwnTfwcCwCpM77wGwWISiQYA3bdjVg/qEiInUAUA9QtKI0ipCSDG4tgi2sFsYAGPBs7vutVzqVANIC4CGdqd5L2A5/uh36sDsGDyYpRdv3W/39dfv+8+PoGrpTcxudsCk7c/C5NM6H96J/n2r0eISAEpA6AhVZL+2Qo2iv/mUgByZTDG8lhhpPlJdZSce10nfxH/TQwgVQDyxRC6IZwyYk6tmNRxH5/5E/VbTu0uxYSOmRjbOhPjq8V+En/LMa3TKgR35jlEIUb0TyYQAcD47VdbxEwAYHGsMtay4GPJAH9zq+sSIen/ThkA3QkY0es33Lh844n64J6WL2ZfzkmMa0vUz3cDSPmz8JOHT7m/NvXbKFrE2QHcron/exQTiJtE2QNQAEDNoqI5JB96q/wvBQAs61j+062eyy6mf2oCYQGoVgHpaliguBy6XL/yafm8n7jvY+nE3cqbT2nfYhH36V7A1I6U95Py59hPt4RCum4Qyl+IP1EDUOhfxH5K/9RyMLWGiSZRpTFEAMAyH7EWBXGiQUTXSPecez3dLdX/18Z/KQAD0e+1L3F0y9N5dfuPRgM1csR4rRS3gujw5duvHv5KFn7a1E8of0n9ans4H77SIi46grhDWLSKWxwVDKDnRtHD4uawaz1nW6J/FQBUApb97hIAfdDn5S+wY8muP/qzeir//yX5VzDDbKli+MicXzF9lHFznPath8j7u8nizzbN3YDdypu/D5Em7eHUEkaXReTbT/cF9JYFFYlW+a/Uca/nMo7on/N/jQXcyBd8L1C9EDJRNxVXzz+5Ll9FeRVuXqrEteIKXDlTjsqKJ697tyYE75p/ApM6ULqnPXweMUfXwtTDJ+qXqn8bZtEdQSr+KNRPl0MizMj5o6ti3BVsePMtj8kWcTp8xFoVItbyhFsdj3q65fz2u8GjgSkA6GawCoDAF/pjost0HFp/BNQu/Uf9U3GrEtdLynEh/xZOb72B/fOuYGPwReQNKcXiL0swv/c55P10HuU3n/wbx3RRJOO7rXz4Hcjt04i+Gg+fRtjzBVFR+eu5C+E9+Y4gq35uBlUvhxjRvua2UCFirU5MruNeT3dMAkAKQLoMQikgXXnSAoDuBNKNoK/e/h5TPWZhWeRq5G8vxOVzVx6pIXT7ZgWoy+X88etiQnf+mgvYM/ccNsw6jdwRJ7DgqwKk+xcgWXcc8TbKZAwxMeuMOPxdcVdwvfTJHypJL1DJsSsItVyuzBOk4ZI8ZVR986XoozuBfPic8sm4T9Qvr4btR5S4GcTdwHRRVFC/iPnigohyVaxQ3B6Osy5MqONez7WQ6v/aLmA2gHxFGdgYAOqNIHEp9OXvMLDZLxjWfjwm2M1EzIA0zB2Vg7xZa7E+eQe2LdiP7QsPiFLwjkWHsHPRYezKOordWcewfe4RrIveh7WR+7F0wk4sCtqOjEFbEO+/AXqPDYjRbUSk3UaEWWzCLLHQiaZmVd/YQeNREmwLseDzIuxLv4KrZytqVcvZuoijmNKR1b7piFlW/OvFbAB1ELVp3FcP/07Ur4g+w+ET/cdZnUCc9cmEOu71XderADAVgKaXQpkBeDyMvBZO7eA8G0jbEFpTOxiNgh0u1sLQMgjaBEIrYGg4Aq184TEpPEePdvrQDD1a37JezNiltS08No0madLItEOIsz2KvGFFKFhzDWWXKx4pC/07wtvVkjLEuK9XTB51vnAwjZXtIgXfJs73u2/huQDiQuhODe2T4te++fJeIF0LE7eCjGif5gbEWdPhn0CczcmQOh713SZzB5Bp/JcZgKoBZAhQASAbQuVkEG4J510BSkewoSOIdgTRlWhaDhWDkR/TIgialZOGsa0zML4tzdCjK9E8LInm5NAOHwYAD0oSe3t67Uai20FsDi/GxUK6qlU7hF5NgNqaVCjmARHYaRIIHTyNkhVzAMQ18E2Y2Z1sXor520AzAWgwhCHmm8nDV0WfSvs1HL48eOuT9PYTCNzruDV0+8Sjvnulp5EApCvPCgA0IpBnBcpbwTwgSnQEaxpCDJdCNHcC5JWwoc1pMQQthaCVMDQdIwG0A2is2Psjx6bRyrclyiRN2ui1VszNi7DchsU/H0X+6osoL6usdW+7KQDo7dd7bMT0zmTv8lRxmgxGk8VpHAxNA1EPn9S+cvhiKARvKJHTQQxjYhSnjymfx8XQjACV8gXt8+QQm1Nn06geQJtAPRu4J5IAlJdBWQDWxACsAfoYJoXKCWGmLWHG18LErWBxK4jWw4RhxIc0HoX2A9IKGCUMtJZhgLZ8EQvkIbTXaiQHbse2pFO4UvT0lJzJ+NkQdVwMgWK6J6FH0z/o4DfyFhLDm8+HT9tIeCKI8eHTkCgxI0jMBKARMfLgeTYADY0iuhfjYmhkDD02pyoTbU99K2sBdbzqe73o1cBjf40AIAagOYEmE8J4HArdC6QdQqwDeJGkdjgU3wvgtnCaCUTzAGdjOI1HEXsAZBighZC0Ai4TkztlIUq3CiumHsDp3ZdqTS5v+obf7b9LjlxDuPUGwwh5uVyC3/rNmK1QPk8B0e4lonEwCu3LCWGGg1fnA4nJIDwdRIyN40MXBy9GyCXYnF6YpjtpvIbeu5F3J6+GXsVUA6CxMHcOAXJq+DfoSxdDlQFR6ngYORuAr4aL8bBiMATdC6DtIEoYENtAYjFKsEAKxrfLQObQTTi65ixuXn56S823rldgweB94o1X33peJkGr6TjW0xAoOngSe5qlVGIg1AExIzDaMA9IOXjlzY9TDl6Mi5Nvvs0peuvF4cfbnN6VaHXmFcPbL/+FxsJ5NvIM9GrofV0bAozTQB4UKS+G0iiUfmJkPN0MIiHIU0INOuAtbg03vRzK2YAiBpVsYEKHdBxefbrWx/a7vfl0kYPCGe0iDO3GK2XkTkJV6PFuQlpLJ5ZPGTaSKQdPcwFpLJwyDEoOieTxcGImkEL5J3heoDj400iwEc/ZeOszneSZV/uxb52+f/dp5DPWu5FPBTOANIJ4RFxvuhMgB0S9QNtDtKNiFR2guRvAU0JpbRxNCKXxMDQdTMMCihhkFkhGqF0WLp56eu8NnthyCeFW5OOrbzy/9YrKV976CHH4FOuZ8sVuQjEPkA9fnQ7KE0LF4ddA+TQxVBw8D428lmhb5H/PK+Je9b2e8Wrom6kFgJwRSAAwTAgzAQCPiNH6AfKKeHUWEDuCxJ5AWg5FU7JIC9CS6FTEBa7AzatPX3PpxRM3Ee++U3gavDtIpnZE9/TW09g3fusjxVvPSynFNFCjw5dj4FSxxyNilbmANCVUoXs6fJobnGh7piLB9szYFV3xn9Xe+pp+wqeez8s+jfx28ZTQANEPUF0IDhBz8XgiFm0OoalYMhuQM/L4ihiZQt+LS6J0S0gZEK1oARqdyhmBNIbSMPenjY98+ePdqPlx/xrZ2hn994uhzzT4mUe+auP8TtBbz0uq6eBNllCKSaB08FLo8VxgjvN08CZ0z2+8cvhF9GPmwpruAtR0+PLnfBv7tvNt4n+BNAAzAGcCkgV4SphcIsVTQkxZYKDJoKiatAAZQ7QdTPUFkjG2zRxkjdyK8lu1w8+/G4Do8Od9dUCsg6FtYfzIN14evLJb0HT7qJgDTFPB6eB5PLw6FFp78PzW07h4fsRbjySx0LpoX7xTyb0HQ8iD1/7o19jPy7dx71sCAE36iFGxNBBROoLSD6iJBcSkTGVUDDuDFApobi4tjeJZQZwW0gBl2hbKICA9wOYQg+D2jT+u6ni3g73Xr5Hgu1ZCh3/QcOgq1fPBy6WSvINYeevFplEZ6/mtpy3lcTQNXMwBponghWI0PG0t58ngBqoXb32SLW0yp+fspUSHcx9pz/SB/923UcBovyaBVXQvgPoCjfwAuh9QgxaQGYGcF0jXxXliqPa6OIGAJmZSWsgg4B2Bqh6gOkHat+vEFal7feBP0q/T4Z/Pv4GMz+nNp7dd+8bT9nF64/mtl4cfbX5AWTNLI+DVXQD8xtMAaD74eBsaB0/TwE8i0ZZ2A/Dh0+p65Y3nXQF2Z28n259zeeADN/0DlB76NQmYzyzwGYNAEYMUBogFtCBQtYByW1jODHxrlGZ/4CTD0EixMMKgBzRMIEQhrYqfA73fchTtv1ArqnzUhFKw/hKSvPYqwo7Wx8o3fpdy+HsgVsnSOlmxfZwOX3PwCt3TFnK5DCLeRr71dOj8JNGGEM3Bi00htCjCrrgy2b54nOlZ/u7/9mni09ivSeCemllAWxugtFAKQlkgonWyWneQikRyiSSnhqYgCPooWlkbT5lBCsa2moNgiyzsWljwROsC2iW8RV+EGBtq0KBDVw6+xjd+v6hq0goYo8OnfUBE+coWEDp4w+Eb3nj14NVDpzUxxfw4nEtL0+HBJ4TfDSF+z/dpSfuDaEqI/3N9wWKQagPSGZSCkOsDPDbG1BzirEBdIUMbxXmMejUQfEy1AloUzSAY0yoNE9rPw/xhm1F6/MqTxPiCmYr2XMWCgYeNDp5pXlI9v/VUyqYNYHzwcuuHpHwWetrDpzUwYhWMcvjV3nj7YqQYHtoTdG5bsl1J07ud5e/9tb/5Nwl092/S54aqBcgY+kIMSBah4EVpDyuLpJQaAa+R4WWSxqvkNCPkaISsUivgimEUgiQIxEx9KhpR6TgdIdbZ2KA/hOsX/vgC0ZWzt7A+9BRiHagxQ3nrzSilk8pe0j2tedEcvOVB8Er5w6B9gLQJTIg9zZvPB8+xXkv3vBRKHrw4dLEpLMWx5FSaQ0nL33vA9/xzQXWC/tP/uYCR/k36VDAIKCPQsIBBEHKNQF0qKQ0iOUKOdwkxEyhzhEVmwEsk1LIxewTCKFJAQGYRhQRasxLtuRw75h7/Q4BA1cmt+iIke1EjpqR6Onh5+LvFuniO9drDp9Vvdzr8fMRbU4sbx3vaCUjxPsmOKZ92AybbE9XTarhiettByyJpT2CqQ8m1FMcS93s6ffc85Xv8Bp8mPv/r16RPEhlDAgR3FIRUJ5BMQAaRBEHNTKAukyKjiLaJzlQWSZMwpMUKtGeHysdy4dIcjGudgYnt5yPcKQ9rZh8EtVc/zgHUJPDO7r2G1VNPIMF1j3Lwpm89K3za+qkePq1748WPtPfP9M3nmE+HTz2Oiti74+HTm89vvXr4pRWpDiVBDzQR/B7nfNdfDmgY0NS/cZ+tqh4gFuB2MbFKRjDBN6JWQOVizgx+qgEEcrk0C0M5UVwulDK2jOUaeXIMVV0wrvVcUUae2G4BpnXPRsoXG7Al8RhKjz+a9nVx6PuvYVv8GaT33Y8o650I70XKXj7VAVDT4cuYX+3wraXg0za4mrz59vzmc6w3vPHKm19KO4PTHtjpu+sJ38cvBjQO+NCvSeBpCQJaKccGEYtC1gRfo59YnqDsFHrlB0PVkPsHuV6gNYoECMRUcd4qxkxAPgE5hhQSmA1kAWkMhQRqKWszD+PbUlfRArGedWqnbEQ6r0LWiF3Ykngc+etLcL7gGqjjmGbuqE8VaAY/jWS5faMC5/OvI3/tBWyJPYXsoYegd9qBcDPp4G3jnL4XNajK9I4BoFI/vflS8PGbX/3wKd7T9s9j/NbXRPtKipesLIdWKV/QvVgUneZYWpXmWLp5ruPZxvdxZI/+t/g/F6jzaxJ4Tc4PVG1iEobkEaiTRHi/YPW9Amoj6ShlwSQLQxESFF0gmED0E4YbmkrJOh4lSskUEritjEICAUGCYFJ76jHULmymnXzLEW67FjEuGxDjshExLpug121GhDVdtqTFTBtEC9qs7ry0kQs3WxDWk/b2EQAkCDQMYMY7fkn4mR5+jEjzZNxXBR8ffj7ibWjzJ8f9RNsThphPC6G1h890z28/LYdOczxPz+kUxwsPvg/oUULBt3HACL8mgeXMBOQUaoShslWEuoe4dKztIGKfgJcrqbpgkNJDwJu2aMcQOYYyQ5A9hZIJuK+QdQGZRpwlUJcxscFE2s8rGk1pKSO1mambuwkIwZ1pLRtv8A7pSh3I61QQdNsACYLZPWhnnxYEirsnWUARflFmxm++8eGz0SM2gBvefgKA9vBPqhvB7TUAcCg2iD15+HOcLlxLc7ro+CjP8nf9Xbpmun/4Numd6NckoMq4bMzZgZYJ1P4BJSS8SrpgCM8XFI6hLCErU0bFujWqICp7BkUvAYvDEaK9XBaR2C/47VNKFZUsQbABgYBDwqT2tJ5VssFSTOtEbLAM0zsTEFQQUBMqr3NnNrgzCLYhXIQCsnZZ+dcIABPFH6c9fLrTYACA5vC1b7/h8Gk1fIlC/ecr5jhdGPK7Duxx/CHPl/vX82kUsJkWSxlAcEeziNxCtZVMbNd6zRQEmtqBAgJ15bzMEGT9gECg5zZzQ5bAFrIUiBNEyzlt66aGUw0IOpqCYBVC5Cp3WuCshATa38s7fKlli5lAhAKDFlAAYBL7BQOYAsBaxn5J/4VIENR/Ekl2nPIla97+VAMA5OGXIt3hfMojd/oeFhg+TQKb+zb2P0NbRo3qBtpm0qZfKbWDAYZuIm3tgMfNa61jYgKtdSynjgaLhdNcRKL9ezWFBC0TkC6gewcKCNpT6zmHhGliYbPKBCobrEVoNwUEih6oFgokACQD3AUA0uyh2E8eP6d8WvpXDr/Gt58OXwLg/OYk2ysNH/a8Hsuf923ia+/TyO+aAIFkA1lF1GYJShFJDQnfaxpKTIpIYueeZv08LZ9Wdg+pzqGWDWSjKYtDcfPIIA4ZBBPbLYIICQY2oK3dLBBJF8zoQkxAmkCCQApDuqCyGWFim7cMAZwNGAlAC5n3S/F3yOD21Sz+NG+/3RmkKMpfvv3q4ZeenOt48cPHcniP4i+lyqFPI5+ffBr5VcqdwzWHBfIMZA1BCkR5x0BpMRebN7XiUA6f5v2D3FPAG8hkpzFfO5N9BcZ1BDVDUFNFCglTOmRjaselMGUCAQIhDFUQSD0QJsIAZwMyHaQ0sKYMQC9CwJ3VPyt/BkCy3WkQ/QsAOJyFCQCuzHEssXkU5/RY/46+Tfv+j3dD73i1s5iXT2u7i7XpYh/RU0AhQbuJnJxDzhKop0DdQiZH0FOTqVxDb9xuLu8ecodRHLedC3GYJpxDkSGIVFENCRwOCASsCSQLqCCQoYAyA4UFZFqoZAICACIN3Itoc5UBtAAwCECT1C/J9p4AqEx1LP3x3+b0PSxCPJp6NPRq4L3Ou6FPFU0apQZT2WTK+kBpL9OmjNRXYNhFbHLn0MAGXEPQ6gISh2IXobhzQBmCNhxQRZEbTDhDUNJExT3kC6mLMJkyBKEJjENBcBeZHUgWoIuqG8VtZRaDGhYw1QHC+j0AUwDEk/kjAWBbCGKAewCgKs2pNCbG//h/Pey5/Fv/vE8Dt/c8G3gWiIsmDX2UFat85dwQFgzTR5WCkqbDSFw4MTSaki5QllFU6zOkkjLvIx7SnDOEYR/QLWR2DkWGoICADCPyCsaJW0h0FU1NEwkEzATGIKimB7pLFtBmAzXpAPL+HxoAVWkO59bNdbzS4N96eI/qf+be0N3as4HHRdpASmtoJRgMbGB08ZQvnbA20GYJtIiZdAH3FlBIGKispDGuJipeQXO6hUyGkbyKrmoCtYbAhSR2DRkEk9oxE4iLqSIzkKKQWIAuqa5RsgI2iFgMEggkC5AbSDqA3MC9iLbYVyMAhAi0yef8XzKAnWkIOIsUB3qKC1Icz/6xTt9DguFvHg08fvCo735bvXyqAMEwg0hJG6nf8HneSEaFJXUnEbuHlC4adMEbw2sGAa2mNbiGHA7YMKLr6OQaqoUkUVJunaHMJsgEFZOkTzCVbid3zFWMIs4K6Kq6uKncTQkDQgtIFqDaAANAZgMSALL0a+oAJlAYkACoQQOkOpy9lOJ49skXffcCiK6O7h8e9d2jPOq7VXooN5D5EqqcROarrqc3pIx9RXWRQSCXU8pLqD8p20mH4xvBBGoNQd1Own0FzAR0G5kuoBhXE0URifoKDOGAReFkkRmQRyDdQukUKiwgDCItC2wV9QGRDSg1AcoGDEJQMYKqA6BABUA1BigqT3MsHnSvz7bW/LrvvxwbuNdzXete361KnUaiDqSsdhmVbiMrvgHdQ+xrtKJWponVNQFfQVPNIrqMOqyFMROIIlJLaj1XbOPW6SYsYBwKyC4OVuxicgnJGyCHkMTg7O6bNJ6A1AGcDkaLMLDf0PwRa0WpoOoCahmAGj80LmBVit2ZyPu+xVNbUKB7VveaWz3dCd5JoMwlFEMpeDAl30rmjIFEoj9NJxUuogwHKhP0f4XDAe8oGg5xAUXpOh787gSlz5CLSENFm9ksE1Fo7BHw1XQShdrUUPEHlJqBTA2NtQClhNXDADMA6QApBMkIYi9AGkECADYFIgswBsDpjQmW55+pLef6QF+n+7MuPVyfdb7pVtcZxsspiA0084kay0upnC5KTSDSRGVPkbyFxDMJWBMMeku5kv4uZQayiBSMoUYsoBaQfvs0CaNl8agNjalhy3hSu4UiNeR5RawFiAVmdFnJYlDLAoozSLUBCgPGQvB+AKCkghwGTiVaF9//mvcH+vSfkN+sq+fwlWtdR7jWdVJAIKeUqnOKaUwdZwq0rJKZQIBAKS/3e0kuq1IHU8jWc+3Cai4gsVHEeoDG07AeIH+AswK12XS8GFZFgpAAQC6hRgtQGFB8AaMw0IPCgJINCABwb4DUATHEAho3MM76KLReQKIUgnYnb6bYnjF7Qo7p8X0ZdAXd5Vn7cN2zDlWuzypAqOsMw7RyzagadV0NMQFtLPscfQwrawdBhgLZdSzTw++M5hNxZsCdRTSdJJw7iz6Wk8pkzYCdQuENiIxAaoEcTOu4VGQE1cKAkScgawN3AgDXAwxuoDWlgpQJiDBQkWR7csBjb+h8pynmuwAAA89JREFUfMf6YH8zrah1ecZutcsz9lU6AwhoYZXOsLSKQgLPK+RZRdRwQm1ncmllP8PKOo1HoKSHaiggPcCiUJhEIhSwSUSXT6QgpFAg+ghMMgKjWkGnPNFAwp6AiRikMNBzq9IfIMOA0hyiNINSLyDpAC0AFEewMtGmYGZYX80Gjwf7OGvn79Y9Y/em8zN2h1yesYfuWQdQWKiuDVQQ+ImtJQoLUCjQbi43TClTS8mD3h6NwWJxJV1GlSygzCgycQmlQcTt5opDaMQCNLUs19A8UnM2sMWQDkYa0kFjQyjWUgpBQxioSrApyLvrOtfaebz391U7PWvf0/kZ21KXZ+yge9YYCDS+VoyupcnljXh3oZEeMCyv5tV1X77Kuwupx5BCgWCBd8aCswKFBd6foaSFUgtEC4NolCEtlDax2j+gWsR3CAOidUyrA6QpxP2B5AeolrASBgw6IP9QvF3+O/f3aT2dv+tvzs9a93d+1vYGgUBlAye413NRVthW32CuDQVURfz85UFGk8pIEH5LN5KlFnhPssB0DBXegDYM6Lm51BAG5kArBquHAZkN3F8YkABQHcHDICEYZ32sJM76uPnTeawP8F31rdPy707/svnB+V82V1QQkDiUwpAnmEo9QNVEKQhJD5BJxPuLpTcwFF8btMBofPeOvJJOLFBDRiDEoLySThdR0zCuTQYXihR7mHoGeHglhwGRDpqaQjXpADNyBLV+wEHpB5yKt8p3/dOIvnvhgYZVOj9jbe78jO1al2fsyikcCE1Qz1ksslBDAdnGlBqyU2gQhC8NRH9lhzG1lcm5BN9Kc0gMqVLDwNAWoaJYpKaEsVDDQKqRPSyKRB24UijqA52XIbjLCtE7aJwOKkJQ8QPouhjXBYx0wI1Yq0MZsRb5H9zrM/lT/rrIDuradNXVtf/Vra5DnNuzzovd6ulyPOq75Xg18MzxauST49u4d47/cwE5vZ/rlxPQtH9On6Zf5fR78Zucz18elNP/5R9yvnrt55wBbwzN+eaN4TnfvjFy0Xdvj9F///ZY/Q/vTtT/9N4U/c/vT9cPbRGiH9Ziln74BxH6oI+i9b9+HKsf1TJB/1urJP2YVqn6sa3n6Me2nauf2HaeflK7hfpJ7Rbrp3TI1k/ttFQ/vdNy/YzOK/Qzuq7Wh3Rdq5/Zbb1+VrcN+lk9NunDem3WR/Tazo/ZLn2k2W59tMVufbT5vii9+f4foswPfZim2/dor20/zUihQlKNTzPdP6gdnZ+gf+iaqU9Qs6B/yKdvyzB1OeLT/EH99b399Qn83k/g/wPu2oXqw9d53AAAAABJRU5ErkJggg==;" parent="1" vertex="1">
          <mxGeometry x="172.48" y="182" width="80" height="80" as="geometry" />
        </mxCell>
        <mxCell id="wN9M0pw4aRPKDSzkksMU-5" value="registration-controller" style="rounded=1;whiteSpace=wrap;html=1;strokeColor=#99CCFF;fillColor=#CCCCCC;" parent="1" vertex="1">
          <mxGeometry x="280" y="190.5" width="110" height="40" as="geometry" />
        </mxCell>
        <mxCell id="wN9M0pw4aRPKDSzkksMU-7" value="placement-controller" style="rounded=1;whiteSpace=wrap;html=1;strokeColor=#99CCFF;fillColor=#CCCCCC;" parent="1" vertex="1">
          <mxGeometry x="280" y="237.5" width="110" height="40" as="geometry" />
        </mxCell>
        <mxCell id="wN9M0pw4aRPKDSzkksMU-12" value="Policy Addon" style="rounded=1;whiteSpace=wrap;html=1;strokeColor=#6c8ebf;fillColor=#CCCCCC;" parent="1" vertex="1">
          <mxGeometry x="422" y="209.5" width="108" height="35" as="geometry" />
        </mxCell>
        <mxCell id="iZfUG4qXMEe-V9usVhb0-7" value="Application Addon" style="rounded=1;whiteSpace=wrap;html=1;strokeColor=#6c8ebf;fillColor=#CCCCCC;" parent="1" vertex="1">
          <mxGeometry x="424" y="259.5" width="108" height="40" as="geometry" />
        </mxCell>
        <mxCell id="wN9M0pw4aRPKDSzkksMU-24" value="" style="rounded=1;whiteSpace=wrap;html=1;strokeColor=#99CCFF;fillColor=none;" parent="1" vertex="1">
          <mxGeometry x="341" y="390" width="447" height="150" as="geometry" />
        </mxCell>
        <mxCell id="wN9M0pw4aRPKDSzkksMU-26" value="Klusterlet" style="rounded=1;whiteSpace=wrap;html=1;strokeColor=#6c8ebf;fillColor=#dae8fc;labelPosition=center;verticalLabelPosition=top;align=center;verticalAlign=bottom;" parent="1" vertex="1">
          <mxGeometry x="476" y="417" width="140" height="110" as="geometry" />
        </mxCell>
        <mxCell id="wN9M0pw4aRPKDSzkksMU-28" value="registration-agent" style="rounded=1;whiteSpace=wrap;html=1;strokeColor=#99CCFF;fillColor=#CCCCCC;" parent="1" vertex="1">
          <mxGeometry x="486" y="427" width="119" height="40" as="geometry" />
        </mxCell>
        <mxCell id="wN9M0pw4aRPKDSzkksMU-29" value="work-agent" style="rounded=1;whiteSpace=wrap;html=1;strokeColor=#99CCFF;fillColor=#CCCCCC;" parent="1" vertex="1">
          <mxGeometry x="486" y="477" width="118" height="40" as="geometry" />
        </mxCell>
        <mxCell id="wN9M0pw4aRPKDSzkksMU-36" value="&lt;br&gt;Addon" style="rounded=1;whiteSpace=wrap;html=1;strokeColor=#6c8ebf;fillColor=#CCCCCC;" parent="1" vertex="1">
          <mxGeometry x="542" y="227" width="108" height="30" as="geometry" />
        </mxCell>
        <mxCell id="wN9M0pw4aRPKDSzkksMU-37" value="Addon" style="rounded=1;whiteSpace=wrap;html=1;strokeColor=#6c8ebf;fillColor=#CCCCCC;" parent="1" vertex="1">
          <mxGeometry x="552" y="237.5" width="108" height="29" as="geometry" />
        </mxCell>
        <mxCell id="wN9M0pw4aRPKDSzkksMU-38" value="Addon" style="rounded=1;whiteSpace=wrap;html=1;strokeColor=#6c8ebf;fillColor=#CCCCCC;" parent="1" vertex="1">
          <mxGeometry x="562" y="247" width="108" height="30" as="geometry" />
        </mxCell>
        <mxCell id="GybQEJDtcxe3bevSVBEy-8" style="edgeStyle=orthogonalEdgeStyle;rounded=0;orthogonalLoop=1;jettySize=auto;html=1;strokeWidth=3;" parent="1" source="wN9M0pw4aRPKDSzkksMU-39" edge="1">
          <mxGeometry relative="1" as="geometry">
            <mxPoint x="268" y="472" as="targetPoint" />
          </mxGeometry>
        </mxCell>
        <mxCell id="wN9M0pw4aRPKDSzkksMU-39" value="" style="shape=image;verticalLabelPosition=bottom;labelBackgroundColor=#ffffff;verticalAlign=top;aspect=fixed;imageAspect=0;image=data:image/png,iVBORw0KGgoAAAANSUhEUgAAAOQAAADdCAMAAACc/C7aAAAAilBMVEUybOX///8uauUmZuQqaORRf+hVgugSX+MfY+QbYuQVYOMMXePz9v38/f+Ure/3+f7q7/yJpe68y/WjuPGwwvPl6/vF0vZ/nu29zPVKe+fb4/rS3PhnjeqovPI6cebn7ftfiOl6muyOqe9tkeubsvDX4PlEd+emuvLN2Pd0lus/dOYAWuMAVeKtwfPwQ0gNAAATzElEQVR4nO1dbXvqoLKNgZqE+NJa32utWmure+////euUZMwMBCGkN7z3HvmY6vICjAsZtaQqPf/wKL/7Q78hv0XZHB7nr5snp42h8ngV3/2N0HO+3nKeRxzlua7n1/84d8DObkIHlXGxWr+az/9WyCn2yyOgMXiMvmlH/8VkMN3nka6xVn07zd+/jdAjo8pBvFmKX8ddt+DzkEODhmLTRgLmOlx3HUfOgb5vEisEItJy8Sh4x2lU5Czfc7tCO/G8sVHl/3oEOT6M2cuEAvj+XnWXU86A/m2cxvFGubmq6u+dARy/pSQIN5gJv2OaFAnIJcnQYZ4h9kNDeoA5HQrGhyq2eKsCxoUHOR7pPI3KsxoGrpPYUEOX5mR3Lhbyr/D0qCQIAcj0bTzu8IMS4PCgXx+aSQ37haWBoUC+bFw3/ndjCWL50CdCwPySm689gy7BaNBIUB+bbqAeIf5uQ7QwfYgf/p0ckOBGSAa1BbkfOVHbggw29OgdiAnLciNu7WOBrUB+a8luSHAzLZtaJA3yOErGpzqDGYav/82yPEx+02IN7vSIE+25wVycPAnN0wIX9YQs2TkRYM8QH4sEm9yw6P39fqbeztkJl48aBAZ5OzcYufnq9uEG1/8HRbP92QaRAS5bkduxGO2PectGmFkGkQC+bNrR274S9nSuV07+e6tI5A+wSloaUVdpi19M0+eCDTIGeTk0p7cZBUNnWdt2+LitAwMchqE3IQEWbA9VxrkAnL4HofZ+cNN17vFWeREg5pBDo8hglM3Y1WXjqHCCClzoEFNIMMFp67GFmWz7bwrbFQ00iA7yMGLP7lBLF6VDW9DtsqSFztMK8h/3jTTYEnZchsygBgTVhdkA/kZ/EScP6Kpz0nghuNk7wdyF/4wJR587EsEbzr99AG57+DAWG6Uyy7afjFCMYKchJ5RhaWPWE2YbVKx3Ej0TCCHgV3O3dKHf3jtpHXjgJn+8dpJdKNkA6NOQGYmF2sC2UUnriPZKcj4RAPZgfsrLHusyfduomCJQShjAPndzaLhD545SDoJ2KaG+WoA+dlJ7J9VYYt1J0PJFzgaA8hwpLy2mEs/FnfyFLcUkLOwS7LQKoucr/bSVDmJRKQ88LNMcKKOgwy5WfNUpLvRcq2JAAZv/xYnYddQEi3D+QAOchFqMvEs27zbAojjn8MpnNaAjQggWwR/JeNpdp47pC8+3leBjq3xkzvIQQjeyvP+xDlBMxuxIGlAgf4iCrIxltbcH5YsiNH85cohrBs3uCqBBp1RkFbWxUV04Q3HaYe4C2KN6lGeXDZ2bSJ7dQbZt7TD+oUf+TlZngNPDp56qrcn294lNsXkmPVtP40enTGQQ8uS5P3HhxamKR3nny1ERsvICCEvR+nJPAYxcwVpY+eiWmkj/FNs21KSMjLM2bwSR9j6l2CeAANpZef1xw7YWOaHdhCvNlthVCSXyLelfyhHx0Da2PlF/pzWGcZJKTWTjfSIpZC3eYuLRTk6BtK2Y6XyRrRRHmm2C6RTfVMT7kKeIPaAphvIma0NOB12AGV+NHf7Yzn65JJD+ojOx7nZQY37YJYIEImz7nA5snchICdWds5AIxvps4kpWjaY7KM8ZTyRxnmQc5bllxcj7VtIjzoBC/3LOpAYR0dA2tl5HAH/dS49XZziPHw42SXp7dHHXP5zev9TJs6GZ/NaLUw4Q+Z2IoJxdATk1s5m4gTUA47y28d5jM692SJJ62cm/6dyHlzwI0qPlneUPAHCupeGyAnG0XWQzew8W8k+9Oc6Fa9AsH6+QSEFOLeDp5+gtVrzPMqu7EOeOdO48biCcHQdpEOmO8438rgNrjsrgnGtaEXivvxfeJrj+QJp4UdZ5m8nhyw8wtF1kE4xUZ5YPOnNhlrFHd/J/1f5MRMotwYtOsX42LcDSBs7lyw9WRVDk1R7VpA8b7SfSS/WFpfM7WCNcHQN5NBVlxFbtsXhJ/LQIRlBaJWtxd7eNW8LnLgB5Je7+ERsDB1aowFH6NxfsI+kfcMxdHBxj4/oHF0D+U6ItrCV+u2bTfGHzsA44UufM7SIckzRVeocXQNJip0nGB8/GCYWA5obk8glx+Tm/yghUp2jayBJ4UEs2nA2zfcUdN/Y71z3jr0DKUSqxdFVkFZ2rlnMtBPy2ugEU6CFMzLk9KKty3+0gL7G0VWQdnauGddX5fBs2M4gdTbIBjAPOyQmLTSOroIkxs7RjOAkRRsRYBv8QWc1izDHM6fFgTWOroJsYOeKpXhYftDHEAjg2tfIR+J8j7ZHzCRqHF0BSY2d430qzkn6w4KjjiTOuDApWInipkTh6Eo3aTpUYa4uWm81/5OAYKze78zEBHpUkYHK0aMWjRmFCDdbqNtlBv49VkYyzm0EfZiSdjZlF1JAOrLzuwm7DHyu+B8IsgfnDNvaUyckyY3K0SFIZ3ZemH0grzbegdGK4X9BrxOzZuzRM8pQqhwdgiSw8+vIQDeBOY136dgcK1uq1BLj2JyADZK0zgpHhyAp7FxxrdO/mBx8dqoGTHXsq2poxAbLD738BVsmye8rHB32lLIfwUNFjymBw9Iquq7y5vLUzBP0oqzPlMOnsicMgPJbECTFhUGlRTGbsjPW2zIanijz+UFI0xNGmoZPTHVsFJFYfAGtAZAfhCnBwYn57hdSEMWp/vdZrMxM+18/iyOOJ4juZ2RlFVOEDJCjA5AUdg7PFA8Pz05o9nX+lERIZOO42p7RsM7sMfgCnHEo+lHI0QFINCRhMEidyr/yKMAtD2/lMQbG9yilepCjA5An9wkB99t5tV5M2QKCLWswcCtYEboHYrwyyDHhUcFjvhxfNOZ9HO1b6gUcEMpWCSaaDJLCzsHKHshPJ85bXRp0AM4PUJc1wb8KeZOVQRKeFKR0ihQvx0+ZTqZEiOB5ghB/AhxdBklg5xxwzZ3yxcygO220oVqLwsAOQ+AqwGfIIAmzASxJXRKTmsLOdhsj6iD5/wTWGac4SAo7B24PCdewlYd64DnSRwqEE94oi1LqoQSSoH6HmiBsLfMtecNcY6cpQLXVg7bN5C9KIAk1jTDVqC7JO0pGFBDiITlItQkVifIXZVm4XwsmWU2ckGjBEgl9RSp/1fN9RoulOHoNksLOQXrAFEqLmb4uZ+ub6YM8+2P4KSAcOlDoQL2T1yC92TkeJo7qeh7po3+zwsQfbZCN3QcujlI0I3H0GiSFnYM92vh0mBq4ea4+ydXoo3EigvPEnABSooQ1SAI7h8FwI1Fi6vHqUiHhapDbOJKpHDegHJwljl6BpLDzKJH3B1NeLf6jnPk/JSCpQopmfwzPGDwpUr1KzdErkMaVhZmQz8b41hOzXIl3HEEPE4XGzxM86AgIJCldUHP0CiQp5AdcHsIoeZpvRwobUP3nH+X/g9enBCn54XLgaEAZyZqjVyDRHd0IUu6d6jN4luz+6ZuEuh4y7ROF0pCpdzcApk3KVNbfrECS8kZGkJwlkUn5CA/23MDhv44rMKAQJCnCX/WyBEk5kCogq+nKM7F7N5M56EA111vbYHKuBxSApJBXaYstQZL0FVEmj9XN8RRDuJhbKyVgAj2z6/G/Rqu7vtJ/TdYcvQRJu3FEyHv5gl39TP+1kY/DaFveeBZ7npwzwZi3d60ZdgmSJhUAZGCULpZOxS5yC2r6x2Bvo60cSyHWdZYc/QGSws4jRePgXLAkVXwwa8oVmPz8iPXkJUd/gCQqW1K/sOPz/eab4m4Zvxg0hbtGNe99gKSw8wg7XzhacUGjX7XazYil+yVHf4CksPMrxsz/tTTjke+1l73iPlkSypKj30HS9h/RpFru0F5JPX1sdXeQBHbOWe4bVQ1iiz+EmvbsTQLZyM5jzhlLMyH45hikHMvfPqaLVSpEljLGmjzJg6PfQdrZORfZ6nNxOE7nM5LHmM2nbl74+f11+kVqerCeT1+Ph01kr/h+cMI7SOtyTs5vVFfxMX/dr9IkSwV3eJ3LNE9ZKpJoM5rQoF5tdrCWGPAapJWd01Jxzz/viwIeeyycOGvs9roMCvBiQRRQ15SHag2r3zn6DaSNnZtuRkHhPYkaXvl9RIgMTVGfFlDz6NMdqo3I3Ht/A2ll5y6/M33p8zxD3Z7pZpXa0FzV7baQy6fTZmXp/P3XbxgsGDkqW1HtmBjduuXc+LAXs+/QbzDDRteW0duWIG2KAx3kz6jPNusx2Egscqmk0fO8Wb4Mzm/Lj2WUbPfaGzpte8MtI16AtN4iB7V48+KIx6+bSv4XBMGNE75RZdizcEqo/pj9FUVHi8PrVMY5tjGZG0cvQFozDNJ0+1qkWX1YAjnztWk0UgeWa/R7UMdTMxaeJpva5++tV0gcHyDtWepHXfhgulIWHuioacpkDi7SFJ5SDtYgb8fF9h6LGJytm/xtuRVdfWq4yIPtRy+nXI39QuXbGl/XXPMck8VC23gNB70EDKS2HzLBPxdNLyu5BQUdQBa3PyHOU4kp4tNBKw7rC84TNRqJV9xAwRG27IuO2btegySkNmXLAQA0xqTldV5ucytTVYPobR45cG2et6VW05UYFqi+D7f5I7I2FHFz7+MxqXMlFbREVqWS+KPkX+VWSsdDDPBUptwthuwEar1mJeRVJyzymGPgsmjH+tqqLWTgeTmw8qxnWjNqPVG97as1ifqBFnod79snb+Hd20ZASvbILcCY27c66RIlJldnQ9Swq7biUvgAfQfyTthuIH88h1LlfMqFJ2p5xkR6CGpxkOKc1Wo+C7+12t15uUQGLG0oxPQC2hFKugN+F/7vB5aQKJoCWlVnbY9RuP/WwPM+NZWZPssPPFYqUmGRTqqE0OVyP00CRCo8koyPJZDFDRRelilHYpnDKhHoMXyQsYD5EzlurN6ePPFckeVEK2fN0bMdtUpUukcGVtlpy0rxzeP6i2rt9phUjSb1rTwcVEvj029pa/W+VU5G4Qof2lxRnk8VBdHq0z0ZWS0wqdf/xbMpVaZcih0hK0O4reJ8S4qvFsn0pn6TTKKUNchnz/eUJGrK+C5bVXbCL2TR55AR3M4JPFMjCd6eFdPWee+WqRqOGO4ytdwALXdQnkOxjbKTmtMb0qqsK5Mnkrxd0ZIplXE9wnHMObwKcIk2ncEHwbDXKPgekeRIKtiTz55MX1erfHF4mjJ9FXzooGq4euXZjGyQFcKfObX1Y5UNwbT7NnQVMoJnPf387XmKhOdtCHLgSREzeyWIcaOLU7uiwvMtEHEMm1UoJOYEXSyxojQfeDVJLLClZ2+U3Uu7MeLd02HbUNqC16ab9gub+D5xlU1oqQ5KVa1swpzzsJEpk8Tuav98tzSt7lTP56w8Gb+xqmewM112XlxAuDKl9pCrQZ2M6eW4yOV8vnegs5Opv8P5YSVEyjiPb2DjIjufZsnqxazGO3ueGOLI5XK+3tpUvdBknFnkBMP15LjvX1iS5zm79PejyZcluD5Y+V6MniMaPyz9OPW+Bt12JxvF1Bs1CD3A7nRAc6wL71cTpE8h3lzfdCmm2fANG08kW+6nbjAu/F+n/LAv/ZYb519H7wAwgBy3eAFDtiK/mFa2wcL/rTDxFl/mBkmAIUnlZHqNEsW83V4R/6K9w8ebbRinjLP1vQfS+PYwo7jD84xTWDuQ3j+bGV27uUe2VwBYLW/lYPWMiqMhp9pmkEOHF2ZgFtf3Ac+PrniXdaDIN85teEmRHaRvBEmqmt+mSd9SKPKw8XyfiroffonIWFiep20B+R3nqqzltKD6PE22L0vjeWr8c+yLjMcRX5VBGb/XzuS2MhOrlxh5RCmrnOSoKlK+AmW7w/TnQ2Ljw8HX8njeFlK8+4fi6kTqk4q0i6ntrtAj21UmiGHEPL4pIHO2Pa36/afTJUqS4lQCvllmM4f0RcksrxFtBEl3PtVNiejNm/HtlBXjjVahkCV1wvKLCYALyN4HkWNVTGDssbKq0lXqBMoanHjTzk3M6VUJdJ93rFXS2gHttcJWp+MCsncklQFXcWuf3HWdoiGdaBtviW8Gqb35xGL1+vfbB2qCTSgCZM2KXAei6ZxxiVm1R9CuMqz6W42J+3t3kUyMD8hn1xUiyT5pZVGlSWku5zWNvfrBA6Sz86n1V76vDZeEP47zNXcpxXE6F7kJCiT9la+QTUpquvGexCnY4nb4cxIUSEWVvq+UleLpTm8eZ3un7juecF0EBXUptv+rHev56gISuYW9Dchnh5+sfaOnbDOSs1wuN1hod8G0A+kkKCiPrcQCaWCV1Nlh6qiit9Yge9/NzofdE1sfniGFu/E7SgcKol6REgCki6CAPU3Wbwca8dRMLOY/79vmgURy+O1BuggK4jTLWr/C9nrydLhPUZO3hwE56Oat7n4Wc8LLSilBUl9BQRemygKCgey9h33beAtDX4ITBqS3oCC0pU0X4LcB6S0oCGuKFik0SF81U1DDZAEhQf5HOB/0Db4hQbYQFATDSHI6XiBbCArCmK5F6gCkd/1CGPPJ8XqAHLtfMBLeyE7HE6S5gPkXMJKdji/IFoKCtmaUBYQH2UZQ0MoaxMNhQfoLClqZRTfaBUhfQUErs8kCugDpXZLSBqOwqJw7AemtD/c3P6fTCmTv4Fn25Gst7lhrIZ/yLZ/1swZZQFcgfauovKxJFtAVyN7HL0ZD0jZatlZqvy9/aSrNiO85CAqyN4t+hRSwre/mEQJkb7jIO4fJc1rYKjjI62DuC+kYj12N04wJsWg3jCFAFqUto8/+k6P1SbY7H5s0Oi4WAOR/vv0X5P8V+x/criFW+sDbfgAAAABJRU5ErkJggg==;" parent="1" vertex="1">
          <mxGeometry x="366" y="440.5" width="64.99" height="63" as="geometry" />
        </mxCell>
        <mxCell id="wN9M0pw4aRPKDSzkksMU-15" value="" style="shape=image;verticalLabelPosition=bottom;labelBackgroundColor=#ffffff;verticalAlign=top;aspect=fixed;imageAspect=0;image=data:image/png,iVBORw0KGgoAAAANSUhEUgAAAIAAAACACAYAAADDPmHLAAAgAElEQVR4Ae19B1RV19a17/++997XXmI3Mb0nRtOMvTd6h0tvgtGYxMSYmKJGicbeEVT6pRdBsSAo2HvvXRFsiGBvKGX+Y+119j3nXrBFfRGTjHGGiS1w9zxzzTXX2mvVqfPXP399An+2TyBNd/K/F+uKGs13L2lKT47ucv2tffH3P9vn8Kf6flEHf0vTnXxhnu7sN5m64lULXIvPL3ArqVrkXlqV5XHhVLbnxcxsj8se8/wv1v1TfTBP+zdLB5/hVPh6hlPhzxkuJ/PnupzBPF0R5rsWY4HbOSx0L8Ui9/PI8riIxZ6XKrI9L29Z4nUlIM/jWpOn/bN56r+/FMdjb6c6HBs/x7HgVLpTITKcT2Kuy2nM051BputZBQQlAgRZHhew2PMisj0vI9vrSmWO19W9S3yvDljme+OFp/6Detq+wTjr/c0T7Q7PSrY/UpTqcAxpjscxx7EQ6U4nkeF8SoAgU1eETNdizHc9hwVuJQoLEAguIdvrMnK8r2KJ97XKpT7X85f63hyyNOB606ftc3qqvh+i+libna3jrfZEJ9jsL0myPVSVZHcYKfZHkeqQjzTHAsxxKkS6M4HgNOa5nAGBgEMBs8AijwvI8qRQIFiAQeBzHUt9b1Tl+t4syPMrG7/E5+ZrT9UHV9u/maAg/D+95Y4OeqsdSbFWuy/HWe+tSrDZj0Tbg0iyO4Rk+6NIcTiGVIfjAgTpTicUFmAtoLJAKRaqWoBZwEuwAJb63ECu703k+ZVVLvO7VbTc/3bo8oCyd2r7Z1erv35648N6buwYabYlK9p8W1mMxY4qveUuxFntQbz1XqggkCxQUyggFtBqgfMQLOBxSWGBq8jxvoYlxAIqCLDM/3bVcv/bl1f2rghb7nfr/Vr9Qda2Lz6s5da/z+q53jy81/p1Eb02VkWabUKU+VZEW2yH3nInYi13I85qL+Kt9yHB5gASbQ8h2e4IUuyJBTgUEAukkxZwrokFLmARZwTI9ryCHFMW8C3DMr9bBAIs9y+vWtG7/PaKwIqUVf5okabDf9S2z7PWfL0TzZb8b0i35a4ze6zcMLv7msqwnusQ3msDInptQqTZFkSbb0WMxQ4GgRWBgJhgPxJsDiLJ9rAGBBQKCjHHKBScRaYQgxwGFrlfRJZggSvI9tKywE3k+pYhjwDgRwC4jRW9y7GidwVWBlRWrgqsWrA6EB1W+OO/as0H+6R/oSE98hrM6JLbe0aXvE0hXZZXzuy2ErO6r8LsHmsQ1nM9wntt1IBgmzEIrPci3qAHDrMesM9X9ACBQGYFRZin44xgvhuBgFkgy/MyFnsSCK4hx1sTBnxvIc/vtmQBCQACAVYFVt1aFVCVszoQ1kt88L9P+uf7xH59UzvlPD+tQ1a/aZ2yd03vvKQyuEsuQrouQ2i3FZjZbRVmdV+DsB7rVBBQKDDjUMBMsAuxVnsQpwkFSXZHNCAoQJrjCaQ7nUIGhQKXswoISrDA7bwCgkvI8iAQXEWO1zUs8b6BpT7GLLDMvxzL/SsYBL0rsTKgikAggLA6oGrZqj5w2+iFZ57YD/pJ+8LGd5jfdEK7zO+ntF9weEqHRZjacTGmdcpGcOelmNElDyFdlzMIujMIZvdYqwHBZoMeiLHYCb1BD1AoYD0gQGB3FCn2x5HmwCyQ7nRagGCuy1lk6s5hvmspFrhdwEL3i1jkcQlZGhZgEJQhV7KAXzlUEFRihTEIsCoQFasCsWFVIPzWB6L+k/Z5PzFfz9i2ya+ObzNn5IS2GUcntpuHSe0zMbnDQkztkCVAML1TjgkIVhqYYLZgAlUPSFEYQ6LQajdirfZqmOAwCAQpMhQQCBxPgkAw17kI81yKawABs4AIBV7XscT7Jpb6EAhucygQIKjAcn8FAL2rBBOsDABW0RMonsrVgdi1KhD9VvdGoyfmg/+jv5BRn8a/M6ZV0tSxrVNOjGuTVjW+TTomtJ2Lie0yMbn9fEwhEHTMEizAIMhFSJdlChOQHlgNwQI91iO8p6oHosy3IVqIwl2CCRgELAoTbQkER5Fsf0wwQaoEgfMZzHU+q4CgBPNdz2OB20UsdKdQcEWEgsWe15DtdUMBwS0FBOXI86vAMn8VBCs0IBBAYBAIRlgdWHVodQAG/6mBMLJlTItRn+hDfmsZf270pwlVY1olY1zrVIxvMwcT2mZgYru5mCRAsABqKMjBdBEKFD3QVdUDzAIEAi0TbEe0xU7EWOwS6aEKgkNQQZCPFIcCDgeOp5DufAYZzkWYK5igFPNdLygguCxAkCUAcB05XjexxLsMS31uI9e3HHn0CBBUCiZY7l8FAoEKBGaFVapGqFgVWHV8ZUDlyLUB+PPYzEEfRDYP+jgi9tdPoq+M/ERfNaplHH77NAGjP03C2FYpGNcmDcwCBAIKBRoW6LgYxAIMgjyEdFmOUFMQGJhgMyLNtiLKfDuizXcIEJAmMAbBESTZHUOyfT5S7AkEJ5BGIHAiEJzFXJdzyNRJEFzCQvcrWORxFYs9rwsWyPEuwxLvWyoI/CoYBH6VWOZPQKjCcgUENYGBsgZKH1cGVJ5dGVA5eVVvvPRHM/Jj+f/rdGn/MeSDkE+GfzA7M+jD8IqgjyKrfv04CiM/icGoT2LxW8t4jP40EcQCY1unmoCAQoFkAdYD07R64B4giOi1RQMCFoYSBPE2B5FoK0FwHBQK0hxPYo7TaaQrLDBPV4JM3XmFCSQIrjEIPG8g26sMOQIE5YIJcn0rkEcPgcAABMkKlVjemx8Si/xwBrGid0XVyt4V15cHVASvCMSbZHE/lsP4d/6lA94M/ueQZtN7DG0+I2tYi9DyXz6YheEfhmHERxEI+jgKv34cg5Gf6PFbyziMFizAIJChYHzbdExsaxIKhCjMxrROS4xFYTUm2ICwnhsRrhhFxARR5jtESGAm2Ic46wNIsKFwoIDAjpkg1eEk5jieRrpTETKcizHPpQTzdOeR6XoRC9wuY6H7VSzyuIYsj+tY7HnTAIIlPuVY6lOBXHo0QBChgcKDohNYK5BeuONzc7lfRfQq/1stamWnUlCz0P/7ofkkp5+aTc39+f1pt4c0D8awFiH45YOZ+OWD2QIEQR9F4tePo2tmAQoFrauHAskEUzpkYVrHbEwXIMjFjC7LMKPLcoR0XYFQxSMgTTC7x3qE9diA8J6bQEwQabaNQWAumYBBEG9zCAk2R5BoexRJAgSFIBCkaUCQ4VyCeS7nkalTQbDQXQuCW8jxvo0l3uUwAMGXgUAawaAThFYgvVCOZdrHn9NJSik5rRQ/li3zL0/L8y1vt3gA/vnvfHl/1//rpxZj6w1+b4LbD+9MWP3je5Mqfmo2BT+/Pw0EgKHNZ2BYi1ABguEfzMaID8OhgkAPoQXuGAooK5iHSe3mi3AwucMiTCF/oGOOAMH0zrkI7pynAcFqzOy2BrO6rwUDwQQEZqQLdiHGYg/0lnsRa7UfcdYHEW9zGAk2R5Fom49k+wIDCOY4FiHdqRgEgrkuF5DpegnzXS9jgdtVEAgWedxAlmCCW8j2um0CBGIF7UOiUX3ylFSSnEXTh+xmAkqeX/mNXL/y+bk+5ebrdfjv33U4j/MPffnumAaD3hrt//07Y7Z9/864ysHvjscP703Ej80m46dmU/Hz+9MxpPkMDG0RgmEtVBagUKDVAlIQjmmlCEIlKxjfJsOQGjIIFqqZQcccEQ6qgaDrKszsthozu6/FrO7rBBOE9dyE8F5bENFrKyLNKCRQhrBbBYHVQcRbEwiOIdH2OJLtC5FifwqpDqfBIDiHDOdSzHW5iEwdgeCKAoLrWORxE1keZeJZ7FmGbC9mBGIFZgZiB+XxIeFo/JCxVNNDABF+A/9YlutTnp3rV+G8sC/+53Ge6X393QPeHNPom7dGfv3tW6P2Dnr7t4rv3h6N798ZCwGAdyfix/cmwcAC72tZQNECpixQkyBsnYZxbeaAQTBP+AOT2i/A5PYEgqw7MsGMLisQ0nUlQgkEgg0oJJAu2ITwnpuNQBBtsRsxFnuht9yPOBMQJNkVItnuBFIdziDN8SzSnQgE5wUI5ukuKyC4hoXuN8SzyP2mAQwCCJ7ECvIpQ44QjSQcKYOg5yZyvCmlZHOJDCbj5xZyfSQ4DMxRnutXvjrPt8JtbQD+dV+H9Sh/U1DXoP8c8Ppwj2/eGL5v4JtBld++ORKD3hqFQQIAYzD4nXH44d0JzALvmbJAKIZptIBkASkIJQtQWiiyglYpGKuAgPyBCW0JBPMhQSDCgUYYSiYI7ix1wUqECjagkLAOs7qvZyD0ICAQG2xDpNkORJntRLT5bugt9iHW6gDirA8h3vqIygZ2J5CigGCO0zmkOzETEAgydVcw3+0aFrhdx0J63G9gET0e6kMhggSjeLwoe6j+5HjdEGAgQEhQMEjKsMSHHi1r3Kb0s3ypT/mapX7lHR7l+d7179LV0f3HgDeGDP769WHXvn5jOL55cwQGvhmEb99iENyRBZpNwxBTFhCCkLWAmhXEYlTLeIM3wCBI1YjCuQoIMgUIJrVfiMntFwk2mNqRs4NpnZaCgcAgYDZYJdggtNsazOxGYYGAsBFhPTcjvOdWAYQIAoK5ygZ6y4OItTqMeOujSLA5jiQCgf0ppNifQZrDWcxxKkGG8wXMdbmEeborAgiZrlcx35XAIJ+r4t+FVnC/LjIHyh74uQYylughb4H9BfYYCCAMCPkjg4KYQ/oPS3xuQzzet4pyvCus73pwj+oXv3xtiOuA14bcGPD6MHz9+i/45o3hDIA3f1VY4Dd89/YYfP/OOAwWLDAJP2pYgMSgsRYI57TwIzUt1ApCZoIUjG2lgkAbDiQbEBAoJBAIpgpdsBQCCJ1yMb1zHoK7LMeMLisRQk/XVQjtugYzBSNswOwemxDWQwJhO6LMdiHKfA+iLfZBgiBOAUGibSGS7BgEqQQCx1KkO11AhvMlAQQBBheFFVwJFBwmWC+QZrgi0kiRSop0klLKq8iSjyf9uzEgVHBI1ripCSWkNYTeOJvjffuTR3XONf4937w2pMmXr/549KvXfsaA14ZAgOANAgGxwK8KC0gAaLUAhQE1IyBByBkBa4HhHxIIIhH0UTR+/ViPkZ8QC8Tht5YJ+O3TROESjqFQ0CpVCQfpBk3AISETE9stALNBFqZ0WIwpHRgIUzsuwbSOSzFdAqHzMgR3XsFg6Er6YC1mdqPQQEDYjLCeWxAuwsJORJntRrT5PsRYHIDe8jDirI4i3jofCTYMgmT7M0ixP4s0xxLMcTovgJDuTGC4KB4Si/TMo0fHwpEzCBKQl4SnIHwF4S2Qv6A+i9yvKKCgVJNBQcDIEkxxQ/Ef2IMgM4p0xmKvWwsXWz7GdLH/qz98/sWrP+LLV3/CVwIAQxUWUMKAQQtIEGhZYMrdM4IPIxCkYQEGQbwAgWCBT5NhBILWDILxbdSQIEDQbiEmtV8kwsJkCYQOOSAgTO1IrJCL6Z3yMN0AhFUI6boaoV3XIrTbOszstgGzum9EWI+tCO+1HZFmuxBptkc8xkA4jgSbE0iyO41k+7NIdSgRQEhzLMUcJ2KF80h3Pi8EI4tGEo7yIf1QqvgKFzDf9aLx40ZewyUsdLsMAgI/V7FIY0CJEOLJQGBtUYbFnmW3F3s9Jj3Qt2Xfv/d/dfCCL175AV+++iOMWOD14TWwgGlGYMwCQ5tTSkiCcBaGfxAGwQIfEgtoQsEncRhlYIFkjG5lAoI2CgjaMggmtCUmUNjAAIQsSCBM0QBhRvdlCOmxHKE9VyKk+0oEd16JGV1WI6TrGoR2ZSAQI8zusRVhPbYhvOcORJjtRpRghIPQWx5BrNUxxFsXIMHmJJLtipBkdwbJ9kVIcShGqnjOIs2hGHMcz4GEI4vHYsxxomyiGOnOlFGcYzCQ06g7j3m6UvFjpisDg4AgwSBqEQQC4T1IHXEDWZSCCoFZRj8G1UjfD/uT/V/+qd7nr3x/8otXBoNBoLDAa5IFWAtwKOCM4Lu3xxprgWbEAtPw8/vBii8QqvEFwjHCwALaUMAs8NunSSIUjP40BWOUUDC29RyM0zABscH4NvMggNB2PiZ3WojZdrmI81uNrKDtWBt2CLvmFeJgXhEKt5TixLbz4jm+oRSHlhVj19xTWDc7H4uG7EOS/3ZEO2zGzO4bMLP7JszqvgVhPbYjvOdORJjtQZTZPkRbSCDkI966UDyCFWxPCZ2QZHsSSXYnkWJ/WqSRlEqSp8Ap5RnhLTAYzgrLmcFAjmMpW88CFBeQqSMwyJBxBQsNOoLSz2tY5E4+BANhscfNnDQd/vGw513tz/d7bdCHn7/8Hfq//D0IBMQCFArurQWUMPCusRgUxpBgAY0x9GEERnwUhaCPCQBUJ4jFSMkCLRPBIEjGaCUcSCCMU4BAYJjSbT4S+qzE6ln7cHzTOVw6cx0V5ZV40H/KyypwvuA6jq0uxZoZx5ESuBvhlpsZCD23I7wXhYa9iDLfj2iLQ4IR9JZHQU+cNQHiuNAL8TbHkWBbgCRbChcnhKeQbE+gIIOJTaY0R/IYzmCO0xmkOxEYzmGuYAZyHumRgKBQIV1IFpTCjXQjIFzn1NP9xmm67VztAB/2J/q+NPDLz18ehP4vfycA8MWrFAqIBUgQGrMAp4RSB4zF4HfG4wdhDGk8AcECIRjaYqYIA7/UEAZYEFIYiOdQQOGgGhBSMa5tGqK8lmJd9H4UHbgAOrxH+U9VVRXKrpXj9K7LWB2cjwTPnUpo2IHwnrsQ0Ys0wj4Gg/kBwQwxloeVMEGAoFBBoDgm0slEAQgymNhkSrGn9JKek4rrSGBQwoSwoM8hwwAEYoSLBjuasov5rpxqCh+CDCnPG60f9ryN/nxQnaD/1+/lb+P7vfQtBAu8QiygaIFXf1YE4TCwLxCEgW+OxLdv/SaMITUMqM4ghwHFHm5OYWCWUiSiMBDJLKBkBL9KFiAm+EQCgdggEWPaJCPpqxU4sOwEblwqe5Rnfse/i8Bw9VwZ9i4oRmqfPZjZfTNmdtuCWd1JJzAYInrt5jBhvh8xFgfFo7ckliBf4RDirI8oYMgXdQeqPZD1nGRXoNjPDASVGaQDSb4DCUjSCpRZXBJpZqYCAgICG1I3Bhod4MP+x4A3B/yz74tfH+j30kB8bgCB1AIkCCkllCwgU8JRGPSWZAFNNiB0gKY+oA0DH4RjuAgDLAaDPo4RaaFMDTkcMAii/XNwZO1p3L5ZfsfDety/UHalHHsXFCHWfStCuqzHzG4UIraKMDG7xzaEkXDstVtkEFHmexFltkdJK/dr/IXDiLMms0l1HQUQhOmkBUIR5pBwFFZ0qWJHXxAgkG6kCoRryY+0n6DPCwNe/OzFAZV9X/wGAgQiFLAW4LSQfYGvXx+mMYbIGWQAfPfOOHxvEgZ+el+KQSUMCBagbIB0gAIAwQIMAqkHJnROwZbUg3/owWuBRYxw/eItrAk9hpDuazCjyzrxhHbdgJndNqqagXRDz+2I6LVDpJbCaDLn+oNkBgYBuY7ECAUKI0i9QDqhyFCPSBcu5HnMFU4keQ3kRioGlO7qsUfqB3z2wpeun73wFfq++DX6vUQgkKFAsoD0BZQw8AaFATKGtNmAqgN+bDZVkw2EYGjzmUoY4HRQgmDER9EI+kgFQEL/XFw8fRX0oT9p/1RVVuHM3kuI89mEaZ1WYHonSi1XY0aXtWAwUCZBaeUWhPXcZgBCtPlexAjH8QBirQ4izoprECojFAjhKCxoQwZBDiSllSWiJkF2dIYwnS5hnstleqoynC69/rDMb/jzfZp+GUwA+OzFr1GdBTRi0CgMBOHbNykMjAbrgPEY/O5E/PDeZPxoSAe1OoBAMBu/yDCg0QJj2sdjTfRuVNx+tOLucYCo7Opt5Izeh2ldlmFax+UKEFZhRpc1CFH8hVndyXpmIIT3pGLUToP1HGNJ4eEAYi0PIc7qCOKV0nSSLQlGmVIWgWzoNEfpMbDxxA7kJWFLZzhd9jQc4MP+S8ALX2zu88KX+OyFAQoLDDRiAWkMffXaUMUelvUBCQBZGyAATKoRACIbEAAwZoHJZinYn1fwRL71dwJQxe1KbE7Mx4yeyzClQy6mdszDtE7LEdyZgECMoDqOEgwcGshoIp0gWYEYgUFAxShRhxDppKxFFAmjKU2wgXQfLyLd6SLSnS+EPey5iz8f0DDgX4FN+5f1afoF+piywEvSF5AsIOsD5AwSA3A2UL04JA0hlQFqAsB02zSc3FV8p8/5if55Cgn7ck4h1CoXE9tlYVJ7qk1ogUCMoAXDJkNoiNAyggWFBhKKsg6hAEEpSKWQ8yis6HNgG/o85jhdIADsfjQAeK5vt4DnP68KbNofkgXUUEBaQKaEiidgCANqOnhXALw/A0Obh7IfYGCACMx0mYuiQ+ef6EO+ny/uyJoizLDMxoS2VKzKxpQOVJPIxbROVJRi+1llBLaeyXamGgSzwT7EKCEh1uoIewqCDU4gSTiOp5Fsx0WpVAcGgQCC4/nyROtL9R4aBP5N+gwJeL5fVUDTzxEoWUCEAhMxKOsDBgBQOij9ABkCqEmEHEHJAMEY8v4MDDEBwBTLZJw5UHo/n2+t+D2HVp7G5K7zMb7NfExst8iIEaZ3WoFgUYOgYhSlkhsVoUgZw05EivrDXkRbsKdANYg4UYOgYlQhEoXdTCBQmYALU6VVcxwuWD48AJ7rk937ub4IeJ4A0B99mpIWoIxAA4CXB4PSQeEK3gEA3709DoPfmYAfTC1hAwBmCRE4plMsCnecrRUHe79fJGUtO+fnY1zbDIxtPRfj2mRiQluqWmZjageVDRgI6zCz+51AcAAxlocQa6XazaYgSLY7ixT7c1SdrEp1KB31UAAgA8ivSUBx7+c+Q+/nJQhYC3BKSMYQ2cPfCwB8KVxBrSGkMMBbY2AMAGMG4BAwC8M/CsOeJcfu93OtVb+vsqISy0N2YfSnaRjTKgPjWqsgmNJhqUYfUEWSQLCJmUBWIntRSKACFPcmxFoeVaqRKhMk2p5Gku0ZEAiS7c8hxaEk76EA4PN8wKd+TQJv+j/XRwMARQuIlJCygUEaHUC2MGUCv+BrQ5MIWcJ3CgHTMeR98gHYDs6ZvAGVlU9ejv+okEY1isQvVqggEEywAJPaLcbk9tSzQGzA2QKnjGQkERC2GlxFWYWMsZC1hmOIE4UnKkufQKLNKSTankGSAEHxhZiux3//tBK/xr37+zXuXenXJBDEAgHP9xNhgLQAp4QUBrQAICGoZQAyg6QdTD4AaYDJxhqgORtB4b7zcOv67Uf1WT9Rfw+FgLKrt7Bz0VFE+izGqE+otJ2KMa3SRUgYTwKRQCAEYh5UXbCOTSRhIKkgoMJTtDnVGKi+QBXIY4i1ykecdQHirU8gwQCCorJk++L2v5sFfBv7xvk29odfkwAIFjBoARkGVB1g1CNQAwOQHaz2CJITOB0/i/gfglHtInFqT+1M9+6ENEoDb14tw8HVx5H64xKMaBWOoS3I46CGlziM/CQRo1pSaXsOxokehoUKE1CWQOniCo1vQLYyZQja+gJVH6nyeAgxlkcUEBxHHPUl2JxEgu1pYoKqRNuzX/8uAFAF0LeR32Gfxv7wbdwb/iYsQJ6AkRAUPQJaS1jNAqo7gdpiUCiWBm8Cxcja/g+96bdu3MbJvWcwf1weRveYhe/enoDB707Bj82C8fP7MxUQRGPER3r8+nGCAMGYVgQC1gQTBRNITUAgIDuZmIDrCrNlU4ooQe9HlPlBRFscRoxggnzEWikgEExwmoCQ8rsA4NPA5z3vRr4XfRr5CQBQGPDXhAFpCvV7kYTgd+hPnUIiE2AziBtFZUGIOoPUWgDfFqKuoBBMtUnE5bPXavXZE3hLTpzHCv1aTNbNxjdvDcfXrwdh4BvkhNL3TtkPCV8GwbAW4Rj+QRSCPqKGl0T81jIVY1tRdjAfE9ouwqR22ZgshOEyxUom04hSRKonbAWBIEyUnvci0kwDAgsZDo4jzoo6lE4i3vbU0TTdvgfvEPJu5O3q3dCn3KeRL4zCwPP9EPC8kg6K4pAKAG4Q0WoA6QTKD0F6AET/wRjaIhRr43bW2sO/fvk69q3aj6iBcRj04c/4TKTG9DIQE1LbPLGgBAHZ4BT6yPeYhWEfRGDEh1Toilc0QZoJCHIwpUMepnVcgelKUYlAEKqUnMN67EA49R30IhAcYCYwP4QYC204OEEguBRnfaL5A7OAV0OPSV4NveDdyMcEAJQOqgDoKxhgkGCAmgCgFoPoLSABqMb/qbZJuFJyvVYBgGi+uKAY2bNzMMLsVwS80Bf+Tfqi93P9EPg8eSSki8gd/QlfvUogIEeUMiHSQFQIm46fm5HwpcJXJEZ8SKGAQMB6YIzCBBPbZmFy+yUqCDpxHSGk60bRgCJZILzXHgUEChOYH0aMYAIKBwWkCSrjrAp9HhQAf/Ns4LleAsCnkT/8GgfAv0kfSFOIDaEBECGAegUNGkAyAFvBAgBCAHIlUNI/pX4rI7bVmsOvrKzE0e1HEfV9JL54vz+8GnrCq4EXvBv6gD8fypTILCNtRBY5lcp/wnfNR2FEx2mYYBWBmV7JiP48E4mDsrFo7FrkTN2EdXF7sCFhP7amH8aBZSdxcPkpHFpxBodWFOFg7hlsSy3EttQTWDvrGPLGHcbCHw8g9bO9iLKjtrQdIhSE9yQQ7FOY4BCiLY4gxvIY9JbHBQhirQpCHwgA7vXdX/Jo4HFK/QZVHcDpIH2jsjo4UGkTo0ZRFoF8Y0iWg6UHQACQBtAMjOkSg5LjF2sFAAr3FmJG32D0fsUXrnWd4VbXGe71XOHZwAPejX3wzYffYpTVGMzsG47UXzOwLHoVduXuxYm9p1F64gIuF1/B9Ys3hEB8WLFbWU4pZTmunC3DyW1XsDHiDNICDyPCbC8ieu1HpNlBRJkfZhBYMAjirI5vfqAxth4NPL5ANjkAACAASURBVLp7NvAo82rgCe+G3lB1gPQDVABwhxAxgKwIEgNQNfBX7gcQJhAJQIr/U/FzM/L/Q5D83RJQqvSk/7NnxR70e/Nz+Dznja8//goj7UYganAEcsKzsWflHpw/fR5XL15D2fWyPySTYY+hAoeXXkSixyHBAioIjiLGMp+YoCjauvD+G0Q8GuiGetR3h2cDT3jdEQBsBsnuINUHoK4g2RdIJpBGAIpZAcHidvCuxYef9LMXX1/57XLcvHZTHPCtm7dEUwp96E/aP/Q1lRy5gThnBkGU+SFECz1ALJB/O8aiwOq+w4B7Pd3C6gDoDdUR/JyLQiILkCVhuifws9IQUhMAqCWc+gBnYFw3Pa6W1i7x96Qd+J2+nrXBZzShQNEDFscQY3F8xH0BQPd/ukbu9d0Oe9R3M2GAGgDwAvUImgCA0h/BAOQB0PUwUr8y/rP3H9Nv4Z2+/r9+/iE/ga36YiEIIyg1NCMWOIJoi6OIsjiWRzsW7gkCXQNda/d6rteYATxAmUBNGoCzAAYA3xYiDUAmEN0WpgyA28HIABos47+4DBKKNTG1N/d/yPN5rH+cNNWS4YUI77lPwwKHEcUgOBZmXvD8PQHgXl8XSAr3ziGAy8ICAEoIkOVgvh+gAYCpAHw/GMM/no3Da0881g/iz/qXFx+4Dr3DPoT3VDOCSLNDnBWYHbmhtzx670ki7nVdolQAEAPILECGAMUIeuFLpUH0W0M/AAHAkAGIm0FSAKrxnwo/l4trt/X7JALsxsXbyBx4GLN77EKY4gtE9DrAaaECghjLowPuygB2De3+5VbPZasKAG0WQAUhaQRRT4AsBlFDiFoHEAAQdwIoA6AuIOP4P7FXfK1I/57EQ77T13St9Bayhx8TxpAEgBoGCAQKC5gfSbwrAHQNde+41XM5Xx0AbAQZACAaRBkA3BEkTSD2ALgXkO4DsADkHkDqAA5FpP/8O30ff/38A34ClPoV7b2COf33Yaa4krbDwABqGFBYwPwwIs2P7IhxOH7n1bjudZ3s3Oq5VLnXN9UAxgBQG0LYBWQPQJsCUhFIZgCKASQGRIUidXDuA36bf/32mj4BcgM3Rp9AuPUWhHalC6p0J/FuACAWOHI52vJIszuygFs9l/Fu9XTgFNBD43VrACC6gtSGEMEAwgWk+4HaFJAsYBoYqcb/oS1mIW/Glpq+n79+7j4/Abp0smveacS4bsaMLusxo8tGDQC2Y3aPnQjrsVsjBFUGiDI/UhVjcdS9RgD4v+r/X251nZe7awFA1UAqdhi6gmRbmOICUiVQzAsgE4hTwK9lCvj2GPz4/iSM7DALKT/kYMfCg7hayyp/93kmj/23VZZX4nLRDayPPIow+7WY2nElpndag+DOdBF1A0K6blIYwBQA+0B+gLSGRTpodnR6jQBwb2jX1K2eyykGgGoDEwC4H+DOdYAvXpFXxH/BwLdGYkS7aUj5aREOrDwmCiCP/RN6Cv8HNNXkaslNcbso4/utmNY9F5Pb52JKh2UKAFbfEwDhvcgPkACQQvDo6jDbM9XHzLrWdersVs9FVLm0HoC3oSGEAGDcC0AuIJtAP+Kbt3/BRIfZWJu0BZdLrj6FR/L4v6Wya7dRkn8Z29KPIf37DZhulo3xbegiSTYmtV+KyR3yMLXjCkzruErDABsR0nUzQoUGUBmAUkEGgFIhVDOBc9FmR6svpnCv5/JjTQBgF9DEA2jKN4UJAF+98SMmOc3EtkW7cevm09nV+/iPnv8P84ZtwPgOc8W9gbGt52FcmwWY0DYLE9vlYHL7pcrbvwLTOq3G9M5rhQagBhFVBN4XABBtebS7URjoWqfrf7rVd8kgAehe3w0e9asLQD+tB6AAYES3cdiYsQ1l1/4941n+XQfxR/1/IjyXYjS1ireah3Gt6SrZQkxouxiT2i1R6H85pon4T/RPAOD4H9ptC2Z226bJAqQIrEEDmB9BlMUR41Fyunq6Z93qOh8yEoCGbhfZDKKaQH1f/hpR38Sj9NSFWnVt+4862Pv9/063WKS8/Zni7Rf035bofwnTfwcCwCpM77wGwWISiQYA3bdjVg/qEiInUAUA9QtKI0ipCSDG4tgi2sFsYAGPBs7vutVzqVANIC4CGdqd5L2A5/uh36sDsGDyYpRdv3W/39dfv+8+PoGrpTcxudsCk7c/C5NM6H96J/n2r0eISAEpA6AhVZL+2Qo2iv/mUgByZTDG8lhhpPlJdZSce10nfxH/TQwgVQDyxRC6IZwyYk6tmNRxH5/5E/VbTu0uxYSOmRjbOhPjq8V+En/LMa3TKgR35jlEIUb0TyYQAcD47VdbxEwAYHGsMtay4GPJAH9zq+sSIen/ThkA3QkY0es33Lh844n64J6WL2ZfzkmMa0vUz3cDSPmz8JOHT7m/NvXbKFrE2QHcron/exQTiJtE2QNQAEDNoqI5JB96q/wvBQAs61j+062eyy6mf2oCYQGoVgHpaliguBy6XL/yafm8n7jvY+nE3cqbT2nfYhH36V7A1I6U95Py59hPt4RCum4Qyl+IP1EDUOhfxH5K/9RyMLWGiSZRpTFEAMAyH7EWBXGiQUTXSPecez3dLdX/18Z/KQAD0e+1L3F0y9N5dfuPRgM1csR4rRS3gujw5duvHv5KFn7a1E8of0n9ans4H77SIi46grhDWLSKWxwVDKDnRtHD4uawaz1nW6J/FQBUApb97hIAfdDn5S+wY8muP/qzeir//yX5VzDDbKli+MicXzF9lHFznPath8j7u8nizzbN3YDdypu/D5Em7eHUEkaXReTbT/cF9JYFFYlW+a/Uca/nMo7on/N/jQXcyBd8L1C9EDJRNxVXzz+5Ll9FeRVuXqrEteIKXDlTjsqKJ697tyYE75p/ApM6ULqnPXweMUfXwtTDJ+qXqn8bZtEdQSr+KNRPl0MizMj5o6ti3BVsePMtj8kWcTp8xFoVItbyhFsdj3q65fz2u8GjgSkA6GawCoDAF/pjost0HFp/BNQu/Uf9U3GrEtdLynEh/xZOb72B/fOuYGPwReQNKcXiL0swv/c55P10HuU3n/wbx3RRJOO7rXz4Hcjt04i+Gg+fRtjzBVFR+eu5C+E9+Y4gq35uBlUvhxjRvua2UCFirU5MruNeT3dMAkAKQLoMQikgXXnSAoDuBNKNoK/e/h5TPWZhWeRq5G8vxOVzVx6pIXT7ZgWoy+X88etiQnf+mgvYM/ccNsw6jdwRJ7DgqwKk+xcgWXcc8TbKZAwxMeuMOPxdcVdwvfTJHypJL1DJsSsItVyuzBOk4ZI8ZVR986XoozuBfPic8sm4T9Qvr4btR5S4GcTdwHRRVFC/iPnigohyVaxQ3B6Osy5MqONez7WQ6v/aLmA2gHxFGdgYAOqNIHEp9OXvMLDZLxjWfjwm2M1EzIA0zB2Vg7xZa7E+eQe2LdiP7QsPiFLwjkWHsHPRYezKOordWcewfe4RrIveh7WR+7F0wk4sCtqOjEFbEO+/AXqPDYjRbUSk3UaEWWzCLLHQiaZmVd/YQeNREmwLseDzIuxLv4KrZytqVcvZuoijmNKR1b7piFlW/OvFbAB1ELVp3FcP/07Ur4g+w+ET/cdZnUCc9cmEOu71XderADAVgKaXQpkBeDyMvBZO7eA8G0jbEFpTOxiNgh0u1sLQMgjaBEIrYGg4Aq184TEpPEePdvrQDD1a37JezNiltS08No0madLItEOIsz2KvGFFKFhzDWWXKx4pC/07wtvVkjLEuK9XTB51vnAwjZXtIgXfJs73u2/huQDiQuhODe2T4te++fJeIF0LE7eCjGif5gbEWdPhn0CczcmQOh713SZzB5Bp/JcZgKoBZAhQASAbQuVkEG4J510BSkewoSOIdgTRlWhaDhWDkR/TIgialZOGsa0zML4tzdCjK9E8LInm5NAOHwYAD0oSe3t67Uai20FsDi/GxUK6qlU7hF5NgNqaVCjmARHYaRIIHTyNkhVzAMQ18E2Y2Z1sXor520AzAWgwhCHmm8nDV0WfSvs1HL48eOuT9PYTCNzruDV0+8Sjvnulp5EApCvPCgA0IpBnBcpbwTwgSnQEaxpCDJdCNHcC5JWwoc1pMQQthaCVMDQdIwG0A2is2Psjx6bRyrclyiRN2ui1VszNi7DchsU/H0X+6osoL6usdW+7KQDo7dd7bMT0zmTv8lRxmgxGk8VpHAxNA1EPn9S+cvhiKARvKJHTQQxjYhSnjymfx8XQjACV8gXt8+QQm1Nn06geQJtAPRu4J5IAlJdBWQDWxACsAfoYJoXKCWGmLWHG18LErWBxK4jWw4RhxIc0HoX2A9IKGCUMtJZhgLZ8EQvkIbTXaiQHbse2pFO4UvT0lJzJ+NkQdVwMgWK6J6FH0z/o4DfyFhLDm8+HT9tIeCKI8eHTkCgxI0jMBKARMfLgeTYADY0iuhfjYmhkDD02pyoTbU99K2sBdbzqe73o1cBjf40AIAagOYEmE8J4HArdC6QdQqwDeJGkdjgU3wvgtnCaCUTzAGdjOI1HEXsAZBighZC0Ai4TkztlIUq3CiumHsDp3ZdqTS5v+obf7b9LjlxDuPUGwwh5uVyC3/rNmK1QPk8B0e4lonEwCu3LCWGGg1fnA4nJIDwdRIyN40MXBy9GyCXYnF6YpjtpvIbeu5F3J6+GXsVUA6CxMHcOAXJq+DfoSxdDlQFR6ngYORuAr4aL8bBiMATdC6DtIEoYENtAYjFKsEAKxrfLQObQTTi65ixuXn56S823rldgweB94o1X33peJkGr6TjW0xAoOngSe5qlVGIg1AExIzDaMA9IOXjlzY9TDl6Mi5Nvvs0peuvF4cfbnN6VaHXmFcPbL/+FxsJ5NvIM9GrofV0bAozTQB4UKS+G0iiUfmJkPN0MIiHIU0INOuAtbg03vRzK2YAiBpVsYEKHdBxefbrWx/a7vfl0kYPCGe0iDO3GK2XkTkJV6PFuQlpLJ5ZPGTaSKQdPcwFpLJwyDEoOieTxcGImkEL5J3heoDj400iwEc/ZeOszneSZV/uxb52+f/dp5DPWu5FPBTOANIJ4RFxvuhMgB0S9QNtDtKNiFR2guRvAU0JpbRxNCKXxMDQdTMMCihhkFkhGqF0WLp56eu8NnthyCeFW5OOrbzy/9YrKV976CHH4FOuZ8sVuQjEPkA9fnQ7KE0LF4ddA+TQxVBw8D428lmhb5H/PK+Je9b2e8Wrom6kFgJwRSAAwTAgzAQCPiNH6AfKKeHUWEDuCxJ5AWg5FU7JIC9CS6FTEBa7AzatPX3PpxRM3Ee++U3gavDtIpnZE9/TW09g3fusjxVvPSynFNFCjw5dj4FSxxyNilbmANCVUoXs6fJobnGh7piLB9szYFV3xn9Xe+pp+wqeez8s+jfx28ZTQANEPUF0IDhBz8XgiFm0OoalYMhuQM/L4ihiZQt+LS6J0S0gZEK1oARqdyhmBNIbSMPenjY98+ePdqPlx/xrZ2hn994uhzzT4mUe+auP8TtBbz0uq6eBNllCKSaB08FLo8VxgjvN08CZ0z2+8cvhF9GPmwpruAtR0+PLnfBv7tvNt4n+BNAAzAGcCkgV4SphcIsVTQkxZYKDJoKiatAAZQ7QdTPUFkjG2zRxkjdyK8lu1w8+/G4Do8Od9dUCsg6FtYfzIN14evLJb0HT7qJgDTFPB6eB5PLw6FFp78PzW07h4fsRbjySx0LpoX7xTyb0HQ8iD1/7o19jPy7dx71sCAE36iFGxNBBROoLSD6iJBcSkTGVUDDuDFApobi4tjeJZQZwW0gBl2hbKICA9wOYQg+D2jT+u6ni3g73Xr5Hgu1ZCh3/QcOgq1fPBy6WSvINYeevFplEZ6/mtpy3lcTQNXMwBponghWI0PG0t58ngBqoXb32SLW0yp+fspUSHcx9pz/SB/923UcBovyaBVXQvgPoCjfwAuh9QgxaQGYGcF0jXxXliqPa6OIGAJmZSWsgg4B2Bqh6gOkHat+vEFal7feBP0q/T4Z/Pv4GMz+nNp7dd+8bT9nF64/mtl4cfbX5AWTNLI+DVXQD8xtMAaD74eBsaB0/TwE8i0ZZ2A/Dh0+p65Y3nXQF2Z28n259zeeADN/0DlB76NQmYzyzwGYNAEYMUBogFtCBQtYByW1jODHxrlGZ/4CTD0EixMMKgBzRMIEQhrYqfA73fchTtv1ArqnzUhFKw/hKSvPYqwo7Wx8o3fpdy+HsgVsnSOlmxfZwOX3PwCt3TFnK5DCLeRr71dOj8JNGGEM3Bi00htCjCrrgy2b54nOlZ/u7/9mni09ivSeCemllAWxugtFAKQlkgonWyWneQikRyiSSnhqYgCPooWlkbT5lBCsa2moNgiyzsWljwROsC2iW8RV+EGBtq0KBDVw6+xjd+v6hq0goYo8OnfUBE+coWEDp4w+Eb3nj14NVDpzUxxfw4nEtL0+HBJ4TfDSF+z/dpSfuDaEqI/3N9wWKQagPSGZSCkOsDPDbG1BzirEBdIUMbxXmMejUQfEy1AloUzSAY0yoNE9rPw/xhm1F6/MqTxPiCmYr2XMWCgYeNDp5pXlI9v/VUyqYNYHzwcuuHpHwWetrDpzUwYhWMcvjV3nj7YqQYHtoTdG5bsl1J07ud5e/9tb/5Nwl092/S54aqBcgY+kIMSBah4EVpDyuLpJQaAa+R4WWSxqvkNCPkaISsUivgimEUgiQIxEx9KhpR6TgdIdbZ2KA/hOsX/vgC0ZWzt7A+9BRiHagxQ3nrzSilk8pe0j2tedEcvOVB8Er5w6B9gLQJTIg9zZvPB8+xXkv3vBRKHrw4dLEpLMWx5FSaQ0nL33vA9/xzQXWC/tP/uYCR/k36VDAIKCPQsIBBEHKNQF0qKQ0iOUKOdwkxEyhzhEVmwEsk1LIxewTCKFJAQGYRhQRasxLtuRw75h7/Q4BA1cmt+iIke1EjpqR6Onh5+LvFuniO9drDp9Vvdzr8fMRbU4sbx3vaCUjxPsmOKZ92AybbE9XTarhiettByyJpT2CqQ8m1FMcS93s6ffc85Xv8Bp8mPv/r16RPEhlDAgR3FIRUJ5BMQAaRBEHNTKAukyKjiLaJzlQWSZMwpMUKtGeHysdy4dIcjGudgYnt5yPcKQ9rZh8EtVc/zgHUJPDO7r2G1VNPIMF1j3Lwpm89K3za+qkePq1748WPtPfP9M3nmE+HTz2Oiti74+HTm89vvXr4pRWpDiVBDzQR/B7nfNdfDmgY0NS/cZ+tqh4gFuB2MbFKRjDBN6JWQOVizgx+qgEEcrk0C0M5UVwulDK2jOUaeXIMVV0wrvVcUUae2G4BpnXPRsoXG7Al8RhKjz+a9nVx6PuvYVv8GaT33Y8o650I70XKXj7VAVDT4cuYX+3wraXg0za4mrz59vzmc6w3vPHKm19KO4PTHtjpu+sJ38cvBjQO+NCvSeBpCQJaKccGEYtC1gRfo59YnqDsFHrlB0PVkPsHuV6gNYoECMRUcd4qxkxAPgE5hhQSmA1kAWkMhQRqKWszD+PbUlfRArGedWqnbEQ6r0LWiF3Ykngc+etLcL7gGqjjmGbuqE8VaAY/jWS5faMC5/OvI3/tBWyJPYXsoYegd9qBcDPp4G3jnL4XNajK9I4BoFI/vflS8PGbX/3wKd7T9s9j/NbXRPtKipesLIdWKV/QvVgUneZYWpXmWLp5ruPZxvdxZI/+t/g/F6jzaxJ4Tc4PVG1iEobkEaiTRHi/YPW9Amoj6ShlwSQLQxESFF0gmED0E4YbmkrJOh4lSskUEritjEICAUGCYFJ76jHULmymnXzLEW67FjEuGxDjshExLpug121GhDVdtqTFTBtEC9qs7ry0kQs3WxDWk/b2EQAkCDQMYMY7fkn4mR5+jEjzZNxXBR8ffj7ibWjzJ8f9RNsThphPC6G1h890z28/LYdOczxPz+kUxwsPvg/oUULBt3HACL8mgeXMBOQUaoShslWEuoe4dKztIGKfgJcrqbpgkNJDwJu2aMcQOYYyQ5A9hZIJuK+QdQGZRpwlUJcxscFE2s8rGk1pKSO1mambuwkIwZ1pLRtv8A7pSh3I61QQdNsACYLZPWhnnxYEirsnWUARflFmxm++8eGz0SM2gBvefgKA9vBPqhvB7TUAcCg2iD15+HOcLlxLc7ro+CjP8nf9Xbpmun/4Numd6NckoMq4bMzZgZYJ1P4BJSS8SrpgCM8XFI6hLCErU0bFujWqICp7BkUvAYvDEaK9XBaR2C/47VNKFZUsQbABgYBDwqT2tJ5VssFSTOtEbLAM0zsTEFQQUBMqr3NnNrgzCLYhXIQCsnZZ+dcIABPFH6c9fLrTYACA5vC1b7/h8Gk1fIlC/ecr5jhdGPK7Duxx/CHPl/vX82kUsJkWSxlAcEeziNxCtZVMbNd6zRQEmtqBAgJ15bzMEGT9gECg5zZzQ5bAFrIUiBNEyzlt66aGUw0IOpqCYBVC5Cp3WuCshATa38s7fKlli5lAhAKDFlAAYBL7BQOYAsBaxn5J/4VIENR/Ekl2nPIla97+VAMA5OGXIt3hfMojd/oeFhg+TQKb+zb2P0NbRo3qBtpm0qZfKbWDAYZuIm3tgMfNa61jYgKtdSynjgaLhdNcRKL9ezWFBC0TkC6gewcKCNpT6zmHhGliYbPKBCobrEVoNwUEih6oFgokACQD3AUA0uyh2E8eP6d8WvpXDr/Gt58OXwLg/OYk2ysNH/a8Hsuf923ia+/TyO+aAIFkA1lF1GYJShFJDQnfaxpKTIpIYueeZv08LZ9Wdg+pzqGWDWSjKYtDcfPIIA4ZBBPbLYIICQY2oK3dLBBJF8zoQkxAmkCCQApDuqCyGWFim7cMAZwNGAlAC5n3S/F3yOD21Sz+NG+/3RmkKMpfvv3q4ZeenOt48cPHcniP4i+lyqFPI5+ffBr5VcqdwzWHBfIMZA1BCkR5x0BpMRebN7XiUA6f5v2D3FPAG8hkpzFfO5N9BcZ1BDVDUFNFCglTOmRjaselMGUCAQIhDFUQSD0QJsIAZwMyHaQ0sKYMQC9CwJ3VPyt/BkCy3WkQ/QsAOJyFCQCuzHEssXkU5/RY/46+Tfv+j3dD73i1s5iXT2u7i7XpYh/RU0AhQbuJnJxDzhKop0DdQiZH0FOTqVxDb9xuLu8ecodRHLedC3GYJpxDkSGIVFENCRwOCASsCSQLqCCQoYAyA4UFZFqoZAICACIN3Itoc5UBtAAwCECT1C/J9p4AqEx1LP3x3+b0PSxCPJp6NPRq4L3Ou6FPFU0apQZT2WTK+kBpL9OmjNRXYNhFbHLn0MAGXEPQ6gISh2IXobhzQBmCNhxQRZEbTDhDUNJExT3kC6mLMJkyBKEJjENBcBeZHUgWoIuqG8VtZRaDGhYw1QHC+j0AUwDEk/kjAWBbCGKAewCgKs2pNCbG//h/Pey5/Fv/vE8Dt/c8G3gWiIsmDX2UFat85dwQFgzTR5WCkqbDSFw4MTSaki5QllFU6zOkkjLvIx7SnDOEYR/QLWR2DkWGoICADCPyCsaJW0h0FU1NEwkEzATGIKimB7pLFtBmAzXpAPL+HxoAVWkO59bNdbzS4N96eI/qf+be0N3as4HHRdpASmtoJRgMbGB08ZQvnbA20GYJtIiZdAH3FlBIGKispDGuJipeQXO6hUyGkbyKrmoCtYbAhSR2DRkEk9oxE4iLqSIzkKKQWIAuqa5RsgI2iFgMEggkC5AbSDqA3MC9iLbYVyMAhAi0yef8XzKAnWkIOIsUB3qKC1Icz/6xTt9DguFvHg08fvCo735bvXyqAMEwg0hJG6nf8HneSEaFJXUnEbuHlC4adMEbw2sGAa2mNbiGHA7YMKLr6OQaqoUkUVJunaHMJsgEFZOkTzCVbid3zFWMIs4K6Kq6uKncTQkDQgtIFqDaAANAZgMSALL0a+oAJlAYkACoQQOkOpy9lOJ49skXffcCiK6O7h8e9d2jPOq7VXooN5D5EqqcROarrqc3pIx9RXWRQSCXU8pLqD8p20mH4xvBBGoNQd1Own0FzAR0G5kuoBhXE0URifoKDOGAReFkkRmQRyDdQukUKiwgDCItC2wV9QGRDSg1AcoGDEJQMYKqA6BABUA1BigqT3MsHnSvz7bW/LrvvxwbuNdzXete361KnUaiDqSsdhmVbiMrvgHdQ+xrtKJWponVNQFfQVPNIrqMOqyFMROIIlJLaj1XbOPW6SYsYBwKyC4OVuxicgnJGyCHkMTg7O6bNJ6A1AGcDkaLMLDf0PwRa0WpoOoCahmAGj80LmBVit2ZyPu+xVNbUKB7VveaWz3dCd5JoMwlFEMpeDAl30rmjIFEoj9NJxUuogwHKhP0f4XDAe8oGg5xAUXpOh787gSlz5CLSENFm9ksE1Fo7BHw1XQShdrUUPEHlJqBTA2NtQClhNXDADMA6QApBMkIYi9AGkECADYFIgswBsDpjQmW55+pLef6QF+n+7MuPVyfdb7pVtcZxsspiA0084kay0upnC5KTSDSRGVPkbyFxDMJWBMMeku5kv4uZQayiBSMoUYsoBaQfvs0CaNl8agNjalhy3hSu4UiNeR5RawFiAVmdFnJYlDLAoozSLUBCgPGQvB+AKCkghwGTiVaF9//mvcH+vSfkN+sq+fwlWtdR7jWdVJAIKeUqnOKaUwdZwq0rJKZQIBAKS/3e0kuq1IHU8jWc+3Cai4gsVHEeoDG07AeIH+AswK12XS8GFZFgpAAQC6hRgtQGFB8AaMw0IPCgJINCABwb4DUATHEAho3MM76KLReQKIUgnYnb6bYnjF7Qo7p8X0ZdAXd5Vn7cN2zDlWuzypAqOsMw7RyzagadV0NMQFtLPscfQwrawdBhgLZdSzTw++M5hNxZsCdRTSdJJw7iz6Wk8pkzYCdQuENiIxAaoEcTOu4VGQE1cKAkScgawN3AgDXAwxuoDWlgpQJiDBQkWR7csBjb+h8pynmuwAAA89JREFUfMf6YH8zrah1ecZutcsz9lU6AwhoYZXOsLSKQgLPK+RZRdRwQm1ncmllP8PKOo1HoKSHaiggPcCiUJhEIhSwSUSXT6QgpFAg+ghMMgKjWkGnPNFAwp6AiRikMNBzq9IfIMOA0hyiNINSLyDpAC0AFEewMtGmYGZYX80Gjwf7OGvn79Y9Y/em8zN2h1yesYfuWQdQWKiuDVQQ+ImtJQoLUCjQbi43TClTS8mD3h6NwWJxJV1GlSygzCgycQmlQcTt5opDaMQCNLUs19A8UnM2sMWQDkYa0kFjQyjWUgpBQxioSrApyLvrOtfaebz391U7PWvf0/kZ21KXZ+yge9YYCDS+VoyupcnljXh3oZEeMCyv5tV1X77Kuwupx5BCgWCBd8aCswKFBd6foaSFUgtEC4NolCEtlDax2j+gWsR3CAOidUyrA6QpxP2B5AeolrASBgw6IP9QvF3+O/f3aT2dv+tvzs9a93d+1vYGgUBlAye413NRVthW32CuDQVURfz85UFGk8pIEH5LN5KlFnhPssB0DBXegDYM6Lm51BAG5kArBquHAZkN3F8YkABQHcHDICEYZ32sJM76uPnTeawP8F31rdPy707/svnB+V82V1QQkDiUwpAnmEo9QNVEKQhJD5BJxPuLpTcwFF8btMBofPeOvJJOLFBDRiDEoLySThdR0zCuTQYXihR7mHoGeHglhwGRDpqaQjXpADNyBLV+wEHpB5yKt8p3/dOIvnvhgYZVOj9jbe78jO1al2fsyikcCE1Qz1ksslBDAdnGlBqyU2gQhC8NRH9lhzG1lcm5BN9Kc0gMqVLDwNAWoaJYpKaEsVDDQKqRPSyKRB24UijqA52XIbjLCtE7aJwOKkJQ8QPouhjXBYx0wI1Yq0MZsRb5H9zrM/lT/rrIDuradNXVtf/Vra5DnNuzzovd6ulyPOq75Xg18MzxauST49u4d47/cwE5vZ/rlxPQtH9On6Zf5fR78Zucz18elNP/5R9yvnrt55wBbwzN+eaN4TnfvjFy0Xdvj9F///ZY/Q/vTtT/9N4U/c/vT9cPbRGiH9Ziln74BxH6oI+i9b9+HKsf1TJB/1urJP2YVqn6sa3n6Me2nauf2HaeflK7hfpJ7Rbrp3TI1k/ttFQ/vdNy/YzOK/Qzuq7Wh3Rdq5/Zbb1+VrcN+lk9NunDem3WR/Tazo/ZLn2k2W59tMVufbT5vii9+f4foswPfZim2/dor20/zUihQlKNTzPdP6gdnZ+gf+iaqU9Qs6B/yKdvyzB1OeLT/EH99b399Qn83k/g/wPu2oXqw9d53AAAAABJRU5ErkJggg==;" parent="1" vertex="1">
          <mxGeometry x="414" y="417" width="50" height="50" as="geometry" />
        </mxCell>
        <mxCell id="wN9M0pw4aRPKDSzkksMU-13" value="&lt;font color=&quot;#3333ff&quot;&gt;&lt;b&gt;Managed Cluster&amp;nbsp;&lt;/b&gt;&lt;/font&gt;" style="text;html=1;strokeColor=none;fillColor=none;align=center;verticalAlign=middle;whiteSpace=wrap;rounded=0;" parent="1" vertex="1">
          <mxGeometry x="371" y="507" width="100" height="20" as="geometry" />
        </mxCell>
        <mxCell id="GybQEJDtcxe3bevSVBEy-6" style="edgeStyle=orthogonalEdgeStyle;rounded=0;orthogonalLoop=1;jettySize=auto;html=1;entryX=0.25;entryY=1;entryDx=0;entryDy=0;exitX=0;exitY=0.5;exitDx=0;exitDy=0;strokeWidth=3;" parent="1" source="1rdj6Dp2XUtkggpEOAIF-28" target="wN9M0pw4aRPKDSzkksMU-4" edge="1">
          <mxGeometry relative="1" as="geometry">
            <mxPoint x="349" y="831" as="sourcePoint" />
          </mxGeometry>
        </mxCell>
        <mxCell id="wN9M0pw4aRPKDSzkksMU-66" value="&lt;b&gt;Pull desired state and report status&lt;/b&gt;" style="text;html=1;strokeColor=none;fillColor=none;align=center;verticalAlign=middle;whiteSpace=wrap;rounded=0;fontSize=14;rotation=-90;" parent="1" vertex="1">
          <mxGeometry x="136" y="569.24" width="241.52" height="20" as="geometry" />
        </mxCell>
        <mxCell id="7RZop6iV2KnjYwDQPXe3-1" value="addon-manager-controller" style="rounded=1;whiteSpace=wrap;html=1;strokeColor=#99CCFF;fillColor=#CCCCCC;" parent="1" vertex="1">
          <mxGeometry x="280" y="283.5" width="110" height="40" as="geometry" />
        </mxCell>
        <mxCell id="vNrMpkuK3wxExdVFmqOX-3" value="cluster-manager-operator" style="rounded=1;whiteSpace=wrap;html=1;strokeColor=light-dark(#6C8EBF,#1E4A76);fillColor=#CCCCCC;strokeWidth=1;" parent="1" vertex="1">
          <mxGeometry x="686" y="225.75" width="104" height="52.5" as="geometry" />
        </mxCell>
        <mxCell id="vNrMpkuK3wxExdVFmqOX-9" value="klusterlet-operator" style="rounded=1;whiteSpace=wrap;html=1;strokeColor=#6C8EBF;fillColor=#CCCCCC;" parent="1" vertex="1">
          <mxGeometry x="648" y="491" width="114" height="40" as="geometry" />
        </mxCell>
        <mxCell id="vNrMpkuK3wxExdVFmqOX-10" value="" style="group" parent="1" vertex="1" connectable="0">
          <mxGeometry x="626" y="402" width="140" height="80" as="geometry" />
        </mxCell>
        <mxCell id="wN9M0pw4aRPKDSzkksMU-30" value="Application Addon" style="rounded=1;whiteSpace=wrap;html=1;strokeColor=#6c8ebf;fillColor=#CCCCCC;" parent="vNrMpkuK3wxExdVFmqOX-10" vertex="1">
          <mxGeometry width="120" height="60" as="geometry" />
        </mxCell>
        <mxCell id="wN9M0pw4aRPKDSzkksMU-31" value="Application Addon" style="rounded=1;whiteSpace=wrap;html=1;strokeColor=#6c8ebf;fillColor=#CCCCCC;" parent="vNrMpkuK3wxExdVFmqOX-10" vertex="1">
          <mxGeometry x="10" y="10" width="120" height="60" as="geometry" />
        </mxCell>
        <mxCell id="wN9M0pw4aRPKDSzkksMU-32" value="Addon agent" style="rounded=1;whiteSpace=wrap;html=1;strokeColor=#6c8ebf;fillColor=#CCCCCC;" parent="vNrMpkuK3wxExdVFmqOX-10" vertex="1">
          <mxGeometry x="20" y="20" width="120" height="60" as="geometry" />
        </mxCell>
        <mxCell id="1rdj6Dp2XUtkggpEOAIF-15" value="" style="rounded=1;whiteSpace=wrap;html=1;strokeColor=#99CCFF;fillColor=none;" vertex="1" parent="1">
          <mxGeometry x="340" y="569.24" width="447" height="150" as="geometry" />
        </mxCell>
        <mxCell id="1rdj6Dp2XUtkggpEOAIF-16" value="Klusterlet" style="rounded=1;whiteSpace=wrap;html=1;strokeColor=#6c8ebf;fillColor=#dae8fc;labelPosition=center;verticalLabelPosition=top;align=center;verticalAlign=bottom;" vertex="1" parent="1">
          <mxGeometry x="475" y="596.24" width="140" height="110" as="geometry" />
        </mxCell>
        <mxCell id="1rdj6Dp2XUtkggpEOAIF-17" value="registration-agent" style="rounded=1;whiteSpace=wrap;html=1;strokeColor=#99CCFF;fillColor=#CCCCCC;" vertex="1" parent="1">
          <mxGeometry x="485" y="606.24" width="118" height="40" as="geometry" />
        </mxCell>
        <mxCell id="1rdj6Dp2XUtkggpEOAIF-18" value="work-agent" style="rounded=1;whiteSpace=wrap;html=1;strokeColor=#99CCFF;fillColor=#CCCCCC;" vertex="1" parent="1">
          <mxGeometry x="485" y="656.24" width="118" height="40" as="geometry" />
        </mxCell>
        <mxCell id="1rdj6Dp2XUtkggpEOAIF-19" style="edgeStyle=orthogonalEdgeStyle;rounded=0;orthogonalLoop=1;jettySize=auto;html=1;strokeWidth=3;" edge="1" source="1rdj6Dp2XUtkggpEOAIF-20" parent="1">
          <mxGeometry relative="1" as="geometry">
            <mxPoint x="267" y="651.24" as="targetPoint" />
          </mxGeometry>
        </mxCell>
        <mxCell id="1rdj6Dp2XUtkggpEOAIF-20" value="" style="shape=image;verticalLabelPosition=bottom;labelBackgroundColor=#ffffff;verticalAlign=top;aspect=fixed;imageAspect=0;image=data:image/png,iVBORw0KGgoAAAANSUhEUgAAAOQAAADdCAMAAACc/C7aAAAAilBMVEUybOX///8uauUmZuQqaORRf+hVgugSX+MfY+QbYuQVYOMMXePz9v38/f+Ure/3+f7q7/yJpe68y/WjuPGwwvPl6/vF0vZ/nu29zPVKe+fb4/rS3PhnjeqovPI6cebn7ftfiOl6muyOqe9tkeubsvDX4PlEd+emuvLN2Pd0lus/dOYAWuMAVeKtwfPwQ0gNAAATzElEQVR4nO1dbXvqoLKNgZqE+NJa32utWmure+////euUZMwMBCGkN7z3HvmY6vICjAsZtaQqPf/wKL/7Q78hv0XZHB7nr5snp42h8ngV3/2N0HO+3nKeRxzlua7n1/84d8DObkIHlXGxWr+az/9WyCn2yyOgMXiMvmlH/8VkMN3nka6xVn07zd+/jdAjo8pBvFmKX8ddt+DzkEODhmLTRgLmOlx3HUfOgb5vEisEItJy8Sh4x2lU5Czfc7tCO/G8sVHl/3oEOT6M2cuEAvj+XnWXU86A/m2cxvFGubmq6u+dARy/pSQIN5gJv2OaFAnIJcnQYZ4h9kNDeoA5HQrGhyq2eKsCxoUHOR7pPI3KsxoGrpPYUEOX5mR3Lhbyr/D0qCQIAcj0bTzu8IMS4PCgXx+aSQ37haWBoUC+bFw3/ndjCWL50CdCwPySm689gy7BaNBIUB+bbqAeIf5uQ7QwfYgf/p0ckOBGSAa1BbkfOVHbggw29OgdiAnLciNu7WOBrUB+a8luSHAzLZtaJA3yOErGpzqDGYav/82yPEx+02IN7vSIE+25wVycPAnN0wIX9YQs2TkRYM8QH4sEm9yw6P39fqbeztkJl48aBAZ5OzcYufnq9uEG1/8HRbP92QaRAS5bkduxGO2PectGmFkGkQC+bNrR274S9nSuV07+e6tI5A+wSloaUVdpi19M0+eCDTIGeTk0p7cZBUNnWdt2+LitAwMchqE3IQEWbA9VxrkAnL4HofZ+cNN17vFWeREg5pBDo8hglM3Y1WXjqHCCClzoEFNIMMFp67GFmWz7bwrbFQ00iA7yMGLP7lBLF6VDW9DtsqSFztMK8h/3jTTYEnZchsygBgTVhdkA/kZ/EScP6Kpz0nghuNk7wdyF/4wJR587EsEbzr99AG57+DAWG6Uyy7afjFCMYKchJ5RhaWPWE2YbVKx3Ej0TCCHgV3O3dKHf3jtpHXjgJn+8dpJdKNkA6NOQGYmF2sC2UUnriPZKcj4RAPZgfsrLHusyfduomCJQShjAPndzaLhD545SDoJ2KaG+WoA+dlJ7J9VYYt1J0PJFzgaA8hwpLy2mEs/FnfyFLcUkLOwS7LQKoucr/bSVDmJRKQ88LNMcKKOgwy5WfNUpLvRcq2JAAZv/xYnYddQEi3D+QAOchFqMvEs27zbAojjn8MpnNaAjQggWwR/JeNpdp47pC8+3leBjq3xkzvIQQjeyvP+xDlBMxuxIGlAgf4iCrIxltbcH5YsiNH85cohrBs3uCqBBp1RkFbWxUV04Q3HaYe4C2KN6lGeXDZ2bSJ7dQbZt7TD+oUf+TlZngNPDp56qrcn294lNsXkmPVtP40enTGQQ8uS5P3HhxamKR3nny1ERsvICCEvR+nJPAYxcwVpY+eiWmkj/FNs21KSMjLM2bwSR9j6l2CeAANpZef1xw7YWOaHdhCvNlthVCSXyLelfyhHx0Da2PlF/pzWGcZJKTWTjfSIpZC3eYuLRTk6BtK2Y6XyRrRRHmm2C6RTfVMT7kKeIPaAphvIma0NOB12AGV+NHf7Yzn65JJD+ojOx7nZQY37YJYIEImz7nA5snchICdWds5AIxvps4kpWjaY7KM8ZTyRxnmQc5bllxcj7VtIjzoBC/3LOpAYR0dA2tl5HAH/dS49XZziPHw42SXp7dHHXP5zev9TJs6GZ/NaLUw4Q+Z2IoJxdATk1s5m4gTUA47y28d5jM692SJJ62cm/6dyHlzwI0qPlneUPAHCupeGyAnG0XWQzew8W8k+9Oc6Fa9AsH6+QSEFOLeDp5+gtVrzPMqu7EOeOdO48biCcHQdpEOmO8438rgNrjsrgnGtaEXivvxfeJrj+QJp4UdZ5m8nhyw8wtF1kE4xUZ5YPOnNhlrFHd/J/1f5MRMotwYtOsX42LcDSBs7lyw9WRVDk1R7VpA8b7SfSS/WFpfM7WCNcHQN5NBVlxFbtsXhJ/LQIRlBaJWtxd7eNW8LnLgB5Je7+ERsDB1aowFH6NxfsI+kfcMxdHBxj4/oHF0D+U6ItrCV+u2bTfGHzsA44UufM7SIckzRVeocXQNJip0nGB8/GCYWA5obk8glx+Tm/yghUp2jayBJ4UEs2nA2zfcUdN/Y71z3jr0DKUSqxdFVkFZ2rlnMtBPy2ugEU6CFMzLk9KKty3+0gL7G0VWQdnauGddX5fBs2M4gdTbIBjAPOyQmLTSOroIkxs7RjOAkRRsRYBv8QWc1izDHM6fFgTWOroJsYOeKpXhYftDHEAjg2tfIR+J8j7ZHzCRqHF0BSY2d430qzkn6w4KjjiTOuDApWInipkTh6Eo3aTpUYa4uWm81/5OAYKze78zEBHpUkYHK0aMWjRmFCDdbqNtlBv49VkYyzm0EfZiSdjZlF1JAOrLzuwm7DHyu+B8IsgfnDNvaUyckyY3K0SFIZ3ZemH0grzbegdGK4X9BrxOzZuzRM8pQqhwdgiSw8+vIQDeBOY136dgcK1uq1BLj2JyADZK0zgpHhyAp7FxxrdO/mBx8dqoGTHXsq2poxAbLD738BVsmye8rHB32lLIfwUNFjymBw9Iquq7y5vLUzBP0oqzPlMOnsicMgPJbECTFhUGlRTGbsjPW2zIanijz+UFI0xNGmoZPTHVsFJFYfAGtAZAfhCnBwYn57hdSEMWp/vdZrMxM+18/iyOOJ4juZ2RlFVOEDJCjA5AUdg7PFA8Pz05o9nX+lERIZOO42p7RsM7sMfgCnHEo+lHI0QFINCRhMEidyr/yKMAtD2/lMQbG9yilepCjA5An9wkB99t5tV5M2QKCLWswcCtYEboHYrwyyDHhUcFjvhxfNOZ9HO1b6gUcEMpWCSaaDJLCzsHKHshPJ85bXRp0AM4PUJc1wb8KeZOVQRKeFKR0ihQvx0+ZTqZEiOB5ghB/AhxdBklg5xxwzZ3yxcygO220oVqLwsAOQ+AqwGfIIAmzASxJXRKTmsLOdhsj6iD5/wTWGac4SAo7B24PCdewlYd64DnSRwqEE94oi1LqoQSSoH6HmiBsLfMtecNcY6cpQLXVg7bN5C9KIAk1jTDVqC7JO0pGFBDiITlItQkVifIXZVm4XwsmWU2ckGjBEgl9RSp/1fN9RoulOHoNksLOQXrAFEqLmb4uZ+ub6YM8+2P4KSAcOlDoQL2T1yC92TkeJo7qeh7po3+zwsQfbZCN3QcujlI0I3H0GiSFnYM92vh0mBq4ea4+ydXoo3EigvPEnABSooQ1SAI7h8FwI1Fi6vHqUiHhapDbOJKpHDegHJwljl6BpLDzKJH3B1NeLf6jnPk/JSCpQopmfwzPGDwpUr1KzdErkMaVhZmQz8b41hOzXIl3HEEPE4XGzxM86AgIJCldUHP0CiQp5AdcHsIoeZpvRwobUP3nH+X/g9enBCn54XLgaEAZyZqjVyDRHd0IUu6d6jN4luz+6ZuEuh4y7ROF0pCpdzcApk3KVNbfrECS8kZGkJwlkUn5CA/23MDhv44rMKAQJCnCX/WyBEk5kCogq+nKM7F7N5M56EA111vbYHKuBxSApJBXaYstQZL0FVEmj9XN8RRDuJhbKyVgAj2z6/G/Rqu7vtJ/TdYcvQRJu3FEyHv5gl39TP+1kY/DaFveeBZ7npwzwZi3d60ZdgmSJhUAZGCULpZOxS5yC2r6x2Bvo60cSyHWdZYc/QGSws4jRePgXLAkVXwwa8oVmPz8iPXkJUd/gCQqW1K/sOPz/eab4m4Zvxg0hbtGNe99gKSw8wg7XzhacUGjX7XazYil+yVHf4CksPMrxsz/tTTjke+1l73iPlkSypKj30HS9h/RpFru0F5JPX1sdXeQBHbOWe4bVQ1iiz+EmvbsTQLZyM5jzhlLMyH45hikHMvfPqaLVSpEljLGmjzJg6PfQdrZORfZ6nNxOE7nM5LHmM2nbl74+f11+kVqerCeT1+Ph01kr/h+cMI7SOtyTs5vVFfxMX/dr9IkSwV3eJ3LNE9ZKpJoM5rQoF5tdrCWGPAapJWd01Jxzz/viwIeeyycOGvs9roMCvBiQRRQ15SHag2r3zn6DaSNnZtuRkHhPYkaXvl9RIgMTVGfFlDz6NMdqo3I3Ht/A2ll5y6/M33p8zxD3Z7pZpXa0FzV7baQy6fTZmXp/P3XbxgsGDkqW1HtmBjduuXc+LAXs+/QbzDDRteW0duWIG2KAx3kz6jPNusx2Egscqmk0fO8Wb4Mzm/Lj2WUbPfaGzpte8MtI16AtN4iB7V48+KIx6+bSv4XBMGNE75RZdizcEqo/pj9FUVHi8PrVMY5tjGZG0cvQFozDNJ0+1qkWX1YAjnztWk0UgeWa/R7UMdTMxaeJpva5++tV0gcHyDtWepHXfhgulIWHuioacpkDi7SFJ5SDtYgb8fF9h6LGJytm/xtuRVdfWq4yIPtRy+nXI39QuXbGl/XXPMck8VC23gNB70EDKS2HzLBPxdNLyu5BQUdQBa3PyHOU4kp4tNBKw7rC84TNRqJV9xAwRG27IuO2btegySkNmXLAQA0xqTldV5ucytTVYPobR45cG2et6VW05UYFqi+D7f5I7I2FHFz7+MxqXMlFbREVqWS+KPkX+VWSsdDDPBUptwthuwEar1mJeRVJyzymGPgsmjH+tqqLWTgeTmw8qxnWjNqPVG97as1ifqBFnod79snb+Hd20ZASvbILcCY27c66RIlJldnQ9Swq7biUvgAfQfyTthuIH88h1LlfMqFJ2p5xkR6CGpxkOKc1Wo+C7+12t15uUQGLG0oxPQC2hFKugN+F/7vB5aQKJoCWlVnbY9RuP/WwPM+NZWZPssPPFYqUmGRTqqE0OVyP00CRCo8koyPJZDFDRRelilHYpnDKhHoMXyQsYD5EzlurN6ePPFckeVEK2fN0bMdtUpUukcGVtlpy0rxzeP6i2rt9phUjSb1rTwcVEvj029pa/W+VU5G4Qof2lxRnk8VBdHq0z0ZWS0wqdf/xbMpVaZcih0hK0O4reJ8S4qvFsn0pn6TTKKUNchnz/eUJGrK+C5bVXbCL2TR55AR3M4JPFMjCd6eFdPWee+WqRqOGO4ytdwALXdQnkOxjbKTmtMb0qqsK5Mnkrxd0ZIplXE9wnHMObwKcIk2ncEHwbDXKPgekeRIKtiTz55MX1erfHF4mjJ9FXzooGq4euXZjGyQFcKfObX1Y5UNwbT7NnQVMoJnPf387XmKhOdtCHLgSREzeyWIcaOLU7uiwvMtEHEMm1UoJOYEXSyxojQfeDVJLLClZ2+U3Uu7MeLd02HbUNqC16ab9gub+D5xlU1oqQ5KVa1swpzzsJEpk8Tuav98tzSt7lTP56w8Gb+xqmewM112XlxAuDKl9pCrQZ2M6eW4yOV8vnegs5Opv8P5YSVEyjiPb2DjIjufZsnqxazGO3ueGOLI5XK+3tpUvdBknFnkBMP15LjvX1iS5zm79PejyZcluD5Y+V6MniMaPyz9OPW+Bt12JxvF1Bs1CD3A7nRAc6wL71cTpE8h3lzfdCmm2fANG08kW+6nbjAu/F+n/LAv/ZYb519H7wAwgBy3eAFDtiK/mFa2wcL/rTDxFl/mBkmAIUnlZHqNEsW83V4R/6K9w8ebbRinjLP1vQfS+PYwo7jD84xTWDuQ3j+bGV27uUe2VwBYLW/lYPWMiqMhp9pmkEOHF2ZgFtf3Ac+PrniXdaDIN85teEmRHaRvBEmqmt+mSd9SKPKw8XyfiroffonIWFiep20B+R3nqqzltKD6PE22L0vjeWr8c+yLjMcRX5VBGb/XzuS2MhOrlxh5RCmrnOSoKlK+AmW7w/TnQ2Ljw8HX8njeFlK8+4fi6kTqk4q0i6ntrtAj21UmiGHEPL4pIHO2Pa36/afTJUqS4lQCvllmM4f0RcksrxFtBEl3PtVNiejNm/HtlBXjjVahkCV1wvKLCYALyN4HkWNVTGDssbKq0lXqBMoanHjTzk3M6VUJdJ93rFXS2gHttcJWp+MCsncklQFXcWuf3HWdoiGdaBtviW8Gqb35xGL1+vfbB2qCTSgCZM2KXAei6ZxxiVm1R9CuMqz6W42J+3t3kUyMD8hn1xUiyT5pZVGlSWku5zWNvfrBA6Sz86n1V76vDZeEP47zNXcpxXE6F7kJCiT9la+QTUpquvGexCnY4nb4cxIUSEWVvq+UleLpTm8eZ3un7juecF0EBXUptv+rHev56gISuYW9Dchnh5+sfaOnbDOSs1wuN1hod8G0A+kkKCiPrcQCaWCV1Nlh6qiit9Yge9/NzofdE1sfniGFu/E7SgcKol6REgCki6CAPU3Wbwca8dRMLOY/79vmgURy+O1BuggK4jTLWr/C9nrydLhPUZO3hwE56Oat7n4Wc8LLSilBUl9BQRemygKCgey9h33beAtDX4ITBqS3oCC0pU0X4LcB6S0oCGuKFik0SF81U1DDZAEhQf5HOB/0Db4hQbYQFATDSHI6XiBbCArCmK5F6gCkd/1CGPPJ8XqAHLtfMBLeyE7HE6S5gPkXMJKdji/IFoKCtmaUBYQH2UZQ0MoaxMNhQfoLClqZRTfaBUhfQUErs8kCugDpXZLSBqOwqJw7AemtD/c3P6fTCmTv4Fn25Gst7lhrIZ/yLZ/1swZZQFcgfauovKxJFtAVyN7HL0ZD0jZatlZqvy9/aSrNiO85CAqyN4t+hRSwre/mEQJkb7jIO4fJc1rYKjjI62DuC+kYj12N04wJsWg3jCFAFqUto8/+k6P1SbY7H5s0Oi4WAOR/vv0X5P8V+x/criFW+sDbfgAAAABJRU5ErkJggg==;" vertex="1" parent="1">
          <mxGeometry x="365" y="619.74" width="64.99" height="63" as="geometry" />
        </mxCell>
        <mxCell id="1rdj6Dp2XUtkggpEOAIF-21" value="" style="shape=image;verticalLabelPosition=bottom;labelBackgroundColor=#ffffff;verticalAlign=top;aspect=fixed;imageAspect=0;image=data:image/png,iVBORw0KGgoAAAANSUhEUgAAAIAAAACACAYAAADDPmHLAAAgAElEQVR4Ae19B1RV19a17/++997XXmI3Mb0nRtOMvTd6h0tvgtGYxMSYmKJGicbeEVT6pRdBsSAo2HvvXRFsiGBvKGX+Y+119j3nXrBFfRGTjHGGiS1w9zxzzTXX2mvVqfPXP399An+2TyBNd/K/F+uKGs13L2lKT47ucv2tffH3P9vn8Kf6flEHf0vTnXxhnu7sN5m64lULXIvPL3ArqVrkXlqV5XHhVLbnxcxsj8se8/wv1v1TfTBP+zdLB5/hVPh6hlPhzxkuJ/PnupzBPF0R5rsWY4HbOSx0L8Ui9/PI8riIxZ6XKrI9L29Z4nUlIM/jWpOn/bN56r+/FMdjb6c6HBs/x7HgVLpTITKcT2Kuy2nM051BputZBQQlAgRZHhew2PMisj0vI9vrSmWO19W9S3yvDljme+OFp/6Detq+wTjr/c0T7Q7PSrY/UpTqcAxpjscxx7EQ6U4nkeF8SoAgU1eETNdizHc9hwVuJQoLEAguIdvrMnK8r2KJ97XKpT7X85f63hyyNOB606ftc3qqvh+i+libna3jrfZEJ9jsL0myPVSVZHcYKfZHkeqQjzTHAsxxKkS6M4HgNOa5nAGBgEMBs8AijwvI8qRQIFiAQeBzHUt9b1Tl+t4syPMrG7/E5+ZrT9UHV9u/maAg/D+95Y4OeqsdSbFWuy/HWe+tSrDZj0Tbg0iyO4Rk+6NIcTiGVIfjAgTpTicUFmAtoLJAKRaqWoBZwEuwAJb63ECu703k+ZVVLvO7VbTc/3bo8oCyd2r7Z1erv35648N6buwYabYlK9p8W1mMxY4qveUuxFntQbz1XqggkCxQUyggFtBqgfMQLOBxSWGBq8jxvoYlxAIqCLDM/3bVcv/bl1f2rghb7nfr/Vr9Qda2Lz6s5da/z+q53jy81/p1Eb02VkWabUKU+VZEW2yH3nInYi13I85qL+Kt9yHB5gASbQ8h2e4IUuyJBTgUEAukkxZwrokFLmARZwTI9ryCHFMW8C3DMr9bBAIs9y+vWtG7/PaKwIqUVf5okabDf9S2z7PWfL0TzZb8b0i35a4ze6zcMLv7msqwnusQ3msDInptQqTZFkSbb0WMxQ4GgRWBgJhgPxJsDiLJ9rAGBBQKCjHHKBScRaYQgxwGFrlfRJZggSvI9tKywE3k+pYhjwDgRwC4jRW9y7GidwVWBlRWrgqsWrA6EB1W+OO/as0H+6R/oSE98hrM6JLbe0aXvE0hXZZXzuy2ErO6r8LsHmsQ1nM9wntt1IBgmzEIrPci3qAHDrMesM9X9ACBQGYFRZin44xgvhuBgFkgy/MyFnsSCK4hx1sTBnxvIc/vtmQBCQACAVYFVt1aFVCVszoQ1kt88L9P+uf7xH59UzvlPD+tQ1a/aZ2yd03vvKQyuEsuQrouQ2i3FZjZbRVmdV+DsB7rVBBQKDDjUMBMsAuxVnsQpwkFSXZHNCAoQJrjCaQ7nUIGhQKXswoISrDA7bwCgkvI8iAQXEWO1zUs8b6BpT7GLLDMvxzL/SsYBL0rsTKgikAggLA6oGrZqj5w2+iFZ57YD/pJ+8LGd5jfdEK7zO+ntF9weEqHRZjacTGmdcpGcOelmNElDyFdlzMIujMIZvdYqwHBZoMeiLHYCb1BD1AoYD0gQGB3FCn2x5HmwCyQ7nRagGCuy1lk6s5hvmspFrhdwEL3i1jkcQlZGhZgEJQhV7KAXzlUEFRihTEIsCoQFasCsWFVIPzWB6L+k/Z5PzFfz9i2ya+ObzNn5IS2GUcntpuHSe0zMbnDQkztkCVAML1TjgkIVhqYYLZgAlUPSFEYQ6LQajdirfZqmOAwCAQpMhQQCBxPgkAw17kI81yKawABs4AIBV7XscT7Jpb6EAhucygQIKjAcn8FAL2rBBOsDABW0RMonsrVgdi1KhD9VvdGoyfmg/+jv5BRn8a/M6ZV0tSxrVNOjGuTVjW+TTomtJ2Lie0yMbn9fEwhEHTMEizAIMhFSJdlChOQHlgNwQI91iO8p6oHosy3IVqIwl2CCRgELAoTbQkER5Fsf0wwQaoEgfMZzHU+q4CgBPNdz2OB20UsdKdQcEWEgsWe15DtdUMBwS0FBOXI86vAMn8VBCs0IBBAYBAIRlgdWHVodQAG/6mBMLJlTItRn+hDfmsZf270pwlVY1olY1zrVIxvMwcT2mZgYru5mCRAsABqKMjBdBEKFD3QVdUDzAIEAi0TbEe0xU7EWOwS6aEKgkNQQZCPFIcCDgeOp5DufAYZzkWYK5igFPNdLygguCxAkCUAcB05XjexxLsMS31uI9e3HHn0CBBUCiZY7l8FAoEKBGaFVapGqFgVWHV8ZUDlyLUB+PPYzEEfRDYP+jgi9tdPoq+M/ERfNaplHH77NAGjP03C2FYpGNcmDcwCBAIKBRoW6LgYxAIMgjyEdFmOUFMQGJhgMyLNtiLKfDuizXcIEJAmMAbBESTZHUOyfT5S7AkEJ5BGIHAiEJzFXJdzyNRJEFzCQvcrWORxFYs9rwsWyPEuwxLvWyoI/CoYBH6VWOZPQKjCcgUENYGBsgZKH1cGVJ5dGVA5eVVvvPRHM/Jj+f/rdGn/MeSDkE+GfzA7M+jD8IqgjyKrfv04CiM/icGoT2LxW8t4jP40EcQCY1unmoCAQoFkAdYD07R64B4giOi1RQMCFoYSBPE2B5FoK0FwHBQK0hxPYo7TaaQrLDBPV4JM3XmFCSQIrjEIPG8g26sMOQIE5YIJcn0rkEcPgcAABMkKlVjemx8Si/xwBrGid0XVyt4V15cHVASvCMSbZHE/lsP4d/6lA94M/ueQZtN7DG0+I2tYi9DyXz6YheEfhmHERxEI+jgKv34cg5Gf6PFbyziMFizAIJChYHzbdExsaxIKhCjMxrROS4xFYTUm2ICwnhsRrhhFxARR5jtESGAm2Ic46wNIsKFwoIDAjpkg1eEk5jieRrpTETKcizHPpQTzdOeR6XoRC9wuY6H7VSzyuIYsj+tY7HnTAIIlPuVY6lOBXHo0QBChgcKDohNYK5BeuONzc7lfRfQq/1stamWnUlCz0P/7ofkkp5+aTc39+f1pt4c0D8awFiH45YOZ+OWD2QIEQR9F4tePo2tmAQoFrauHAskEUzpkYVrHbEwXIMjFjC7LMKPLcoR0XYFQxSMgTTC7x3qE9diA8J6bQEwQabaNQWAumYBBEG9zCAk2R5BoexRJAgSFIBCkaUCQ4VyCeS7nkalTQbDQXQuCW8jxvo0l3uUwAMGXgUAawaAThFYgvVCOZdrHn9NJSik5rRQ/li3zL0/L8y1vt3gA/vnvfHl/1//rpxZj6w1+b4LbD+9MWP3je5Mqfmo2BT+/Pw0EgKHNZ2BYi1ABguEfzMaID8OhgkAPoQXuGAooK5iHSe3mi3AwucMiTCF/oGOOAMH0zrkI7pynAcFqzOy2BrO6rwUDwQQEZqQLdiHGYg/0lnsRa7UfcdYHEW9zGAk2R5Fom49k+wIDCOY4FiHdqRgEgrkuF5DpegnzXS9jgdtVEAgWedxAlmCCW8j2um0CBGIF7UOiUX3ylFSSnEXTh+xmAkqeX/mNXL/y+bk+5ebrdfjv33U4j/MPffnumAaD3hrt//07Y7Z9/864ysHvjscP703Ej80m46dmU/Hz+9MxpPkMDG0RgmEtVBagUKDVAlIQjmmlCEIlKxjfJsOQGjIIFqqZQcccEQ6qgaDrKszsthozu6/FrO7rBBOE9dyE8F5bENFrKyLNKCRQhrBbBYHVQcRbEwiOIdH2OJLtC5FifwqpDqfBIDiHDOdSzHW5iEwdgeCKAoLrWORxE1keZeJZ7FmGbC9mBGIFZgZiB+XxIeFo/JCxVNNDABF+A/9YlutTnp3rV+G8sC/+53Ge6X393QPeHNPom7dGfv3tW6P2Dnr7t4rv3h6N798ZCwGAdyfix/cmwcAC72tZQNECpixQkyBsnYZxbeaAQTBP+AOT2i/A5PYEgqw7MsGMLisQ0nUlQgkEgg0oJJAu2ITwnpuNQBBtsRsxFnuht9yPOBMQJNkVItnuBFIdziDN8SzSnQgE5wUI5ukuKyC4hoXuN8SzyP2mAQwCCJ7ECvIpQ44QjSQcKYOg5yZyvCmlZHOJDCbj5xZyfSQ4DMxRnutXvjrPt8JtbQD+dV+H9Sh/U1DXoP8c8Ppwj2/eGL5v4JtBld++ORKD3hqFQQIAYzD4nXH44d0JzALvmbJAKIZptIBkASkIJQtQWiiyglYpGKuAgPyBCW0JBPMhQSDCgUYYSiYI7ix1wUqECjagkLAOs7qvZyD0ICAQG2xDpNkORJntRLT5bugt9iHW6gDirA8h3vqIygZ2J5CigGCO0zmkOzETEAgydVcw3+0aFrhdx0J63G9gET0e6kMhggSjeLwoe6j+5HjdEGAgQEhQMEjKsMSHHi1r3Kb0s3ypT/mapX7lHR7l+d7179LV0f3HgDeGDP769WHXvn5jOL55cwQGvhmEb99iENyRBZpNwxBTFhCCkLWAmhXEYlTLeIM3wCBI1YjCuQoIMgUIJrVfiMntFwk2mNqRs4NpnZaCgcAgYDZYJdggtNsazOxGYYGAsBFhPTcjvOdWAYQIAoK5ygZ6y4OItTqMeOujSLA5jiQCgf0ppNifQZrDWcxxKkGG8wXMdbmEeborAgiZrlcx35XAIJ+r4t+FVnC/LjIHyh74uQYylughb4H9BfYYCCAMCPkjg4KYQ/oPS3xuQzzet4pyvCus73pwj+oXv3xtiOuA14bcGPD6MHz9+i/45o3hDIA3f1VY4Dd89/YYfP/OOAwWLDAJP2pYgMSgsRYI57TwIzUt1ApCZoIUjG2lgkAbDiQbEBAoJBAIpgpdsBQCCJ1yMb1zHoK7LMeMLisRQk/XVQjtugYzBSNswOwemxDWQwJhO6LMdiHKfA+iLfZBgiBOAUGibSGS7BgEqQQCx1KkO11AhvMlAQQBBheFFVwJFBwmWC+QZrgi0kiRSop0klLKq8iSjyf9uzEgVHBI1ripCSWkNYTeOJvjffuTR3XONf4937w2pMmXr/549KvXfsaA14ZAgOANAgGxwK8KC0gAaLUAhQE1IyBByBkBa4HhHxIIIhH0UTR+/ViPkZ8QC8Tht5YJ+O3TROESjqFQ0CpVCQfpBk3AISETE9stALNBFqZ0WIwpHRgIUzsuwbSOSzFdAqHzMgR3XsFg6Er6YC1mdqPQQEDYjLCeWxAuwsJORJntRrT5PsRYHIDe8jDirI4i3jofCTYMgmT7M0ixP4s0xxLMcTovgJDuTGC4KB4Si/TMo0fHwpEzCBKQl4SnIHwF4S2Qv6A+i9yvKKCgVJNBQcDIEkxxQ/Ef2IMgM4p0xmKvWwsXWz7GdLH/qz98/sWrP+LLV3/CVwIAQxUWUMKAQQtIEGhZYMrdM4IPIxCkYQEGQbwAgWCBT5NhBILWDILxbdSQIEDQbiEmtV8kwsJkCYQOOSAgTO1IrJCL6Z3yMN0AhFUI6boaoV3XIrTbOszstgGzum9EWI+tCO+1HZFmuxBptkc8xkA4jgSbE0iyO41k+7NIdSgRQEhzLMUcJ2KF80h3Pi8EI4tGEo7yIf1QqvgKFzDf9aLx40ZewyUsdLsMAgI/V7FIY0CJEOLJQGBtUYbFnmW3F3s9Jj3Qt2Xfv/d/dfCCL175AV+++iOMWOD14TWwgGlGYMwCQ5tTSkiCcBaGfxAGwQIfEgtoQsEncRhlYIFkjG5lAoI2CgjaMggmtCUmUNjAAIQsSCBM0QBhRvdlCOmxHKE9VyKk+0oEd16JGV1WI6TrGoR2ZSAQI8zusRVhPbYhvOcORJjtRpRghIPQWx5BrNUxxFsXIMHmJJLtipBkdwbJ9kVIcShGqnjOIs2hGHMcz4GEI4vHYsxxomyiGOnOlFGcYzCQ06g7j3m6UvFjpisDg4AgwSBqEQQC4T1IHXEDWZSCCoFZRj8G1UjfD/uT/V/+qd7nr3x/8otXBoNBoLDAa5IFWAtwKOCM4Lu3xxprgWbEAtPw8/vBii8QqvEFwjHCwALaUMAs8NunSSIUjP40BWOUUDC29RyM0zABscH4NvMggNB2PiZ3WojZdrmI81uNrKDtWBt2CLvmFeJgXhEKt5TixLbz4jm+oRSHlhVj19xTWDc7H4uG7EOS/3ZEO2zGzO4bMLP7JszqvgVhPbYjvOdORJjtQZTZPkRbSCDkI966UDyCFWxPCZ2QZHsSSXYnkWJ/WqSRlEqSp8Ap5RnhLTAYzgrLmcFAjmMpW88CFBeQqSMwyJBxBQsNOoLSz2tY5E4+BANhscfNnDQd/vGw513tz/d7bdCHn7/8Hfq//D0IBMQCFArurQWUMPCusRgUxpBgAY0x9GEERnwUhaCPCQBUJ4jFSMkCLRPBIEjGaCUcSCCMU4BAYJjSbT4S+qzE6ln7cHzTOVw6cx0V5ZV40H/KyypwvuA6jq0uxZoZx5ESuBvhlpsZCD23I7wXhYa9iDLfj2iLQ4IR9JZHQU+cNQHiuNAL8TbHkWBbgCRbChcnhKeQbE+gIIOJTaY0R/IYzmCO0xmkOxEYzmGuYAZyHumRgKBQIV1IFpTCjXQjIFzn1NP9xmm67VztAB/2J/q+NPDLz18ehP4vfycA8MWrFAqIBUgQGrMAp4RSB4zF4HfG4wdhDGk8AcECIRjaYqYIA7/UEAZYEFIYiOdQQOGgGhBSMa5tGqK8lmJd9H4UHbgAOrxH+U9VVRXKrpXj9K7LWB2cjwTPnUpo2IHwnrsQ0Ys0wj4Gg/kBwQwxloeVMEGAoFBBoDgm0slEAQgymNhkSrGn9JKek4rrSGBQwoSwoM8hwwAEYoSLBjuasov5rpxqCh+CDCnPG60f9ryN/nxQnaD/1+/lb+P7vfQtBAu8QiygaIFXf1YE4TCwLxCEgW+OxLdv/SaMITUMqM4ghwHFHm5OYWCWUiSiMBDJLKBkBL9KFiAm+EQCgdggEWPaJCPpqxU4sOwEblwqe5Rnfse/i8Bw9VwZ9i4oRmqfPZjZfTNmdtuCWd1JJzAYInrt5jBhvh8xFgfFo7ckliBf4RDirI8oYMgXdQeqPZD1nGRXoNjPDASVGaQDSb4DCUjSCpRZXBJpZqYCAgICG1I3Bhod4MP+x4A3B/yz74tfH+j30kB8bgCB1AIkCCkllCwgU8JRGPSWZAFNNiB0gKY+oA0DH4RjuAgDLAaDPo4RaaFMDTkcMAii/XNwZO1p3L5ZfsfDety/UHalHHsXFCHWfStCuqzHzG4UIraKMDG7xzaEkXDstVtkEFHmexFltkdJK/dr/IXDiLMms0l1HQUQhOmkBUIR5pBwFFZ0qWJHXxAgkG6kCoRryY+0n6DPCwNe/OzFAZV9X/wGAgQiFLAW4LSQfYGvXx+mMYbIGWQAfPfOOHxvEgZ+el+KQSUMCBagbIB0gAIAwQIMAqkHJnROwZbUg3/owWuBRYxw/eItrAk9hpDuazCjyzrxhHbdgJndNqqagXRDz+2I6LVDpJbCaDLn+oNkBgYBuY7ECAUKI0i9QDqhyFCPSBcu5HnMFU4keQ3kRioGlO7qsUfqB3z2wpeun73wFfq++DX6vUQgkKFAsoD0BZQw8AaFATKGtNmAqgN+bDZVkw2EYGjzmUoY4HRQgmDER9EI+kgFQEL/XFw8fRX0oT9p/1RVVuHM3kuI89mEaZ1WYHonSi1XY0aXtWAwUCZBaeUWhPXcZgBCtPlexAjH8QBirQ4izoprECojFAjhKCxoQwZBDiSllSWiJkF2dIYwnS5hnstleqoynC69/rDMb/jzfZp+GUwA+OzFr1GdBTRi0CgMBOHbNykMjAbrgPEY/O5E/PDeZPxoSAe1OoBAMBu/yDCg0QJj2sdjTfRuVNx+tOLucYCo7Opt5Izeh2ldlmFax+UKEFZhRpc1CFH8hVndyXpmIIT3pGLUToP1HGNJ4eEAYi0PIc7qCOKV0nSSLQlGmVIWgWzoNEfpMbDxxA7kJWFLZzhd9jQc4MP+S8ALX2zu88KX+OyFAQoLDDRiAWkMffXaUMUelvUBCQBZGyAATKoRACIbEAAwZoHJZinYn1fwRL71dwJQxe1KbE7Mx4yeyzClQy6mdszDtE7LEdyZgECMoDqOEgwcGshoIp0gWYEYgUFAxShRhxDppKxFFAmjKU2wgXQfLyLd6SLSnS+EPey5iz8f0DDgX4FN+5f1afoF+piywEvSF5AsIOsD5AwSA3A2UL04JA0hlQFqAsB02zSc3FV8p8/5if55Cgn7ck4h1CoXE9tlYVJ7qk1ogUCMoAXDJkNoiNAyggWFBhKKsg6hAEEpSKWQ8yis6HNgG/o85jhdIADsfjQAeK5vt4DnP68KbNofkgXUUEBaQKaEiidgCANqOnhXALw/A0Obh7IfYGCACMx0mYuiQ+ef6EO+ny/uyJoizLDMxoS2VKzKxpQOVJPIxbROVJRi+1llBLaeyXamGgSzwT7EKCEh1uoIewqCDU4gSTiOp5Fsx0WpVAcGgQCC4/nyROtL9R4aBP5N+gwJeL5fVUDTzxEoWUCEAhMxKOsDBgBQOij9ABkCqEmEHEHJAMEY8v4MDDEBwBTLZJw5UHo/n2+t+D2HVp7G5K7zMb7NfExst8iIEaZ3WoFgUYOgYhSlkhsVoUgZw05EivrDXkRbsKdANYg4UYOgYlQhEoXdTCBQmYALU6VVcxwuWD48AJ7rk937ub4IeJ4A0B99mpIWoIxAA4CXB4PSQeEK3gEA3709DoPfmYAfTC1hAwBmCRE4plMsCnecrRUHe79fJGUtO+fnY1zbDIxtPRfj2mRiQluqWmZjageVDRgI6zCz+51AcAAxlocQa6XazaYgSLY7ixT7c1SdrEp1KB31UAAgA8ivSUBx7+c+Q+/nJQhYC3BKSMYQ2cPfCwB8KVxBrSGkMMBbY2AMAGMG4BAwC8M/CsOeJcfu93OtVb+vsqISy0N2YfSnaRjTKgPjWqsgmNJhqUYfUEWSQLCJmUBWIntRSKACFPcmxFoeVaqRKhMk2p5Gku0ZEAiS7c8hxaEk76EA4PN8wKd+TQJv+j/XRwMARQuIlJCygUEaHUC2MGUCv+BrQ5MIWcJ3CgHTMeR98gHYDs6ZvAGVlU9ejv+okEY1isQvVqggEEywAJPaLcbk9tSzQGzA2QKnjGQkERC2GlxFWYWMsZC1hmOIE4UnKkufQKLNKSTankGSAEHxhZiux3//tBK/xr37+zXuXenXJBDEAgHP9xNhgLQAp4QUBrQAICGoZQAyg6QdTD4AaYDJxhqgORtB4b7zcOv67Uf1WT9Rfw+FgLKrt7Bz0VFE+izGqE+otJ2KMa3SRUgYTwKRQCAEYh5UXbCOTSRhIKkgoMJTtDnVGKi+QBXIY4i1ykecdQHirU8gwQCCorJk++L2v5sFfBv7xvk29odfkwAIFjBoARkGVB1g1CNQAwOQHaz2CJITOB0/i/gfglHtInFqT+1M9+6ENEoDb14tw8HVx5H64xKMaBWOoS3I46CGlziM/CQRo1pSaXsOxokehoUKE1CWQOniCo1vQLYyZQja+gJVH6nyeAgxlkcUEBxHHPUl2JxEgu1pYoKqRNuzX/8uAFAF0LeR32Gfxv7wbdwb/iYsQJ6AkRAUPQJaS1jNAqo7gdpiUCiWBm8Cxcja/g+96bdu3MbJvWcwf1weRveYhe/enoDB707Bj82C8fP7MxUQRGPER3r8+nGCAMGYVgQC1gQTBRNITUAgIDuZmIDrCrNlU4ooQe9HlPlBRFscRoxggnzEWikgEExwmoCQ8rsA4NPA5z3vRr4XfRr5CQBQGPDXhAFpCvV7kYTgd+hPnUIiE2AziBtFZUGIOoPUWgDfFqKuoBBMtUnE5bPXavXZE3hLTpzHCv1aTNbNxjdvDcfXrwdh4BvkhNL3TtkPCV8GwbAW4Rj+QRSCPqKGl0T81jIVY1tRdjAfE9ouwqR22ZgshOEyxUom04hSRKonbAWBIEyUnvci0kwDAgsZDo4jzoo6lE4i3vbU0TTdvgfvEPJu5O3q3dCn3KeRL4zCwPP9EPC8kg6K4pAKAG4Q0WoA6QTKD0F6AET/wRjaIhRr43bW2sO/fvk69q3aj6iBcRj04c/4TKTG9DIQE1LbPLGgBAHZ4BT6yPeYhWEfRGDEh1Toilc0QZoJCHIwpUMepnVcgelKUYlAEKqUnMN67EA49R30IhAcYCYwP4QYC204OEEguBRnfaL5A7OAV0OPSV4NveDdyMcEAJQOqgDoKxhgkGCAmgCgFoPoLSABqMb/qbZJuFJyvVYBgGi+uKAY2bNzMMLsVwS80Bf+Tfqi93P9EPg8eSSki8gd/QlfvUogIEeUMiHSQFQIm46fm5HwpcJXJEZ8SKGAQMB6YIzCBBPbZmFy+yUqCDpxHSGk60bRgCJZILzXHgUEChOYH0aMYAIKBwWkCSrjrAp9HhQAf/Ns4LleAsCnkT/8GgfAv0kfSFOIDaEBECGAegUNGkAyAFvBAgBCAHIlUNI/pX4rI7bVmsOvrKzE0e1HEfV9JL54vz+8GnrCq4EXvBv6gD8fypTILCNtRBY5lcp/wnfNR2FEx2mYYBWBmV7JiP48E4mDsrFo7FrkTN2EdXF7sCFhP7amH8aBZSdxcPkpHFpxBodWFOFg7hlsSy3EttQTWDvrGPLGHcbCHw8g9bO9iLKjtrQdIhSE9yQQ7FOY4BCiLY4gxvIY9JbHBQhirQpCHwgA7vXdX/Jo4HFK/QZVHcDpIH2jsjo4UGkTo0ZRFoF8Y0iWg6UHQACQBtAMjOkSg5LjF2sFAAr3FmJG32D0fsUXrnWd4VbXGe71XOHZwAPejX3wzYffYpTVGMzsG47UXzOwLHoVduXuxYm9p1F64gIuF1/B9Ys3hEB8WLFbWU4pZTmunC3DyW1XsDHiDNICDyPCbC8ieu1HpNlBRJkfZhBYMAjirI5vfqAxth4NPL5ANjkAACAASURBVLp7NvAo82rgCe+G3lB1gPQDVABwhxAxgKwIEgNQNfBX7gcQJhAJQIr/U/FzM/L/Q5D83RJQqvSk/7NnxR70e/Nz+Dznja8//goj7UYganAEcsKzsWflHpw/fR5XL15D2fWyPySTYY+hAoeXXkSixyHBAioIjiLGMp+YoCjauvD+G0Q8GuiGetR3h2cDT3jdEQBsBsnuINUHoK4g2RdIJpBGAIpZAcHidvCuxYef9LMXX1/57XLcvHZTHPCtm7dEUwp96E/aP/Q1lRy5gThnBkGU+SFECz1ALJB/O8aiwOq+w4B7Pd3C6gDoDdUR/JyLQiILkCVhuifws9IQUhMAqCWc+gBnYFw3Pa6W1i7x96Qd+J2+nrXBZzShQNEDFscQY3F8xH0BQPd/ukbu9d0Oe9R3M2GAGgDwAvUImgCA0h/BAOQB0PUwUr8y/rP3H9Nv4Z2+/r9+/iE/ga36YiEIIyg1NCMWOIJoi6OIsjiWRzsW7gkCXQNda/d6rteYATxAmUBNGoCzAAYA3xYiDUAmEN0WpgyA28HIABos47+4DBKKNTG1N/d/yPN5rH+cNNWS4YUI77lPwwKHEcUgOBZmXvD8PQHgXl8XSAr3ziGAy8ICAEoIkOVgvh+gAYCpAHw/GMM/no3Da0881g/iz/qXFx+4Dr3DPoT3VDOCSLNDnBWYHbmhtzx670ki7nVdolQAEAPILECGAMUIeuFLpUH0W0M/AAHAkAGIm0FSAKrxnwo/l4trt/X7JALsxsXbyBx4GLN77EKY4gtE9DrAaaECghjLowPuygB2De3+5VbPZasKAG0WQAUhaQRRT4AsBlFDiFoHEAAQdwIoA6AuIOP4P7FXfK1I/57EQ77T13St9Bayhx8TxpAEgBoGCAQKC5gfSbwrAHQNde+41XM5Xx0AbAQZACAaRBkA3BEkTSD2ALgXkO4DsADkHkDqAA5FpP/8O30ff/38A34ClPoV7b2COf33Yaa4krbDwABqGFBYwPwwIs2P7IhxOH7n1bjudZ3s3Oq5VLnXN9UAxgBQG0LYBWQPQJsCUhFIZgCKASQGRIUidXDuA36bf/32mj4BcgM3Rp9AuPUWhHalC6p0J/FuACAWOHI52vJIszuygFs9l/Fu9XTgFNBD43VrACC6gtSGEMEAwgWk+4HaFJAsYBoYqcb/oS1mIW/Glpq+n79+7j4/Abp0smveacS4bsaMLusxo8tGDQC2Y3aPnQjrsVsjBFUGiDI/UhVjcdS9RgD4v+r/X251nZe7awFA1UAqdhi6gmRbmOICUiVQzAsgE4hTwK9lCvj2GPz4/iSM7DALKT/kYMfCg7hayyp/93kmj/23VZZX4nLRDayPPIow+7WY2nElpndag+DOdBF1A0K6blIYwBQA+0B+gLSGRTpodnR6jQBwb2jX1K2eyykGgGoDEwC4H+DOdYAvXpFXxH/BwLdGYkS7aUj5aREOrDwmCiCP/RN6Cv8HNNXkaslNcbso4/utmNY9F5Pb52JKh2UKAFbfEwDhvcgPkACQQvDo6jDbM9XHzLrWdersVs9FVLm0HoC3oSGEAGDcC0AuIJtAP+Kbt3/BRIfZWJu0BZdLrj6FR/L4v6Wya7dRkn8Z29KPIf37DZhulo3xbegiSTYmtV+KyR3yMLXjCkzruErDABsR0nUzQoUGUBmAUkEGgFIhVDOBc9FmR6svpnCv5/JjTQBgF9DEA2jKN4UJAF+98SMmOc3EtkW7cevm09nV+/iPnv8P84ZtwPgOc8W9gbGt52FcmwWY0DYLE9vlYHL7pcrbvwLTOq3G9M5rhQagBhFVBN4XABBtebS7URjoWqfrf7rVd8kgAehe3w0e9asLQD+tB6AAYES3cdiYsQ1l1/4941n+XQfxR/1/IjyXYjS1ireah3Gt6SrZQkxouxiT2i1R6H85pon4T/RPAOD4H9ptC2Z226bJAqQIrEEDmB9BlMUR41Fyunq6Z93qOh8yEoCGbhfZDKKaQH1f/hpR38Sj9NSFWnVt+4862Pv9/063WKS8/Zni7Rf035bofwnTfwcCwCpM77wGwWISiQYA3bdjVg/qEiInUAUA9QtKI0ipCSDG4tgi2sFsYAGPBs7vutVzqVANIC4CGdqd5L2A5/uh36sDsGDyYpRdv3W/39dfv+8+PoGrpTcxudsCk7c/C5NM6H96J/n2r0eISAEpA6AhVZL+2Qo2iv/mUgByZTDG8lhhpPlJdZSce10nfxH/TQwgVQDyxRC6IZwyYk6tmNRxH5/5E/VbTu0uxYSOmRjbOhPjq8V+En/LMa3TKgR35jlEIUb0TyYQAcD47VdbxEwAYHGsMtay4GPJAH9zq+sSIen/ThkA3QkY0es33Lh844n64J6WL2ZfzkmMa0vUz3cDSPmz8JOHT7m/NvXbKFrE2QHcron/exQTiJtE2QNQAEDNoqI5JB96q/wvBQAs61j+062eyy6mf2oCYQGoVgHpaliguBy6XL/yafm8n7jvY+nE3cqbT2nfYhH36V7A1I6U95Py59hPt4RCum4Qyl+IP1EDUOhfxH5K/9RyMLWGiSZRpTFEAMAyH7EWBXGiQUTXSPecez3dLdX/18Z/KQAD0e+1L3F0y9N5dfuPRgM1csR4rRS3gujw5duvHv5KFn7a1E8of0n9ans4H77SIi46grhDWLSKWxwVDKDnRtHD4uawaz1nW6J/FQBUApb97hIAfdDn5S+wY8muP/qzeir//yX5VzDDbKli+MicXzF9lHFznPath8j7u8nizzbN3YDdypu/D5Em7eHUEkaXReTbT/cF9JYFFYlW+a/Uca/nMo7on/N/jQXcyBd8L1C9EDJRNxVXzz+5Ll9FeRVuXqrEteIKXDlTjsqKJ697tyYE75p/ApM6ULqnPXweMUfXwtTDJ+qXqn8bZtEdQSr+KNRPl0MizMj5o6ti3BVsePMtj8kWcTp8xFoVItbyhFsdj3q65fz2u8GjgSkA6GawCoDAF/pjost0HFp/BNQu/Uf9U3GrEtdLynEh/xZOb72B/fOuYGPwReQNKcXiL0swv/c55P10HuU3n/wbx3RRJOO7rXz4Hcjt04i+Gg+fRtjzBVFR+eu5C+E9+Y4gq35uBlUvhxjRvua2UCFirU5MruNeT3dMAkAKQLoMQikgXXnSAoDuBNKNoK/e/h5TPWZhWeRq5G8vxOVzVx6pIXT7ZgWoy+X88etiQnf+mgvYM/ccNsw6jdwRJ7DgqwKk+xcgWXcc8TbKZAwxMeuMOPxdcVdwvfTJHypJL1DJsSsItVyuzBOk4ZI8ZVR986XoozuBfPic8sm4T9Qvr4btR5S4GcTdwHRRVFC/iPnigohyVaxQ3B6Osy5MqONez7WQ6v/aLmA2gHxFGdgYAOqNIHEp9OXvMLDZLxjWfjwm2M1EzIA0zB2Vg7xZa7E+eQe2LdiP7QsPiFLwjkWHsHPRYezKOordWcewfe4RrIveh7WR+7F0wk4sCtqOjEFbEO+/AXqPDYjRbUSk3UaEWWzCLLHQiaZmVd/YQeNREmwLseDzIuxLv4KrZytqVcvZuoijmNKR1b7piFlW/OvFbAB1ELVp3FcP/07Ur4g+w+ET/cdZnUCc9cmEOu71XderADAVgKaXQpkBeDyMvBZO7eA8G0jbEFpTOxiNgh0u1sLQMgjaBEIrYGg4Aq184TEpPEePdvrQDD1a37JezNiltS08No0madLItEOIsz2KvGFFKFhzDWWXKx4pC/07wtvVkjLEuK9XTB51vnAwjZXtIgXfJs73u2/huQDiQuhODe2T4te++fJeIF0LE7eCjGif5gbEWdPhn0CczcmQOh713SZzB5Bp/JcZgKoBZAhQASAbQuVkEG4J510BSkewoSOIdgTRlWhaDhWDkR/TIgialZOGsa0zML4tzdCjK9E8LInm5NAOHwYAD0oSe3t67Uai20FsDi/GxUK6qlU7hF5NgNqaVCjmARHYaRIIHTyNkhVzAMQ18E2Y2Z1sXor520AzAWgwhCHmm8nDV0WfSvs1HL48eOuT9PYTCNzruDV0+8Sjvnulp5EApCvPCgA0IpBnBcpbwTwgSnQEaxpCDJdCNHcC5JWwoc1pMQQthaCVMDQdIwG0A2is2Psjx6bRyrclyiRN2ui1VszNi7DchsU/H0X+6osoL6usdW+7KQDo7dd7bMT0zmTv8lRxmgxGk8VpHAxNA1EPn9S+cvhiKARvKJHTQQxjYhSnjymfx8XQjACV8gXt8+QQm1Nn06geQJtAPRu4J5IAlJdBWQDWxACsAfoYJoXKCWGmLWHG18LErWBxK4jWw4RhxIc0HoX2A9IKGCUMtJZhgLZ8EQvkIbTXaiQHbse2pFO4UvT0lJzJ+NkQdVwMgWK6J6FH0z/o4DfyFhLDm8+HT9tIeCKI8eHTkCgxI0jMBKARMfLgeTYADY0iuhfjYmhkDD02pyoTbU99K2sBdbzqe73o1cBjf40AIAagOYEmE8J4HArdC6QdQqwDeJGkdjgU3wvgtnCaCUTzAGdjOI1HEXsAZBighZC0Ai4TkztlIUq3CiumHsDp3ZdqTS5v+obf7b9LjlxDuPUGwwh5uVyC3/rNmK1QPk8B0e4lonEwCu3LCWGGg1fnA4nJIDwdRIyN40MXBy9GyCXYnF6YpjtpvIbeu5F3J6+GXsVUA6CxMHcOAXJq+DfoSxdDlQFR6ngYORuAr4aL8bBiMATdC6DtIEoYENtAYjFKsEAKxrfLQObQTTi65ixuXn56S823rldgweB94o1X33peJkGr6TjW0xAoOngSe5qlVGIg1AExIzDaMA9IOXjlzY9TDl6Mi5Nvvs0peuvF4cfbnN6VaHXmFcPbL/+FxsJ5NvIM9GrofV0bAozTQB4UKS+G0iiUfmJkPN0MIiHIU0INOuAtbg03vRzK2YAiBpVsYEKHdBxefbrWx/a7vfl0kYPCGe0iDO3GK2XkTkJV6PFuQlpLJ5ZPGTaSKQdPcwFpLJwyDEoOieTxcGImkEL5J3heoDj400iwEc/ZeOszneSZV/uxb52+f/dp5DPWu5FPBTOANIJ4RFxvuhMgB0S9QNtDtKNiFR2guRvAU0JpbRxNCKXxMDQdTMMCihhkFkhGqF0WLp56eu8NnthyCeFW5OOrbzy/9YrKV976CHH4FOuZ8sVuQjEPkA9fnQ7KE0LF4ddA+TQxVBw8D428lmhb5H/PK+Je9b2e8Wrom6kFgJwRSAAwTAgzAQCPiNH6AfKKeHUWEDuCxJ5AWg5FU7JIC9CS6FTEBa7AzatPX3PpxRM3Ee++U3gavDtIpnZE9/TW09g3fusjxVvPSynFNFCjw5dj4FSxxyNilbmANCVUoXs6fJobnGh7piLB9szYFV3xn9Xe+pp+wqeez8s+jfx28ZTQANEPUF0IDhBz8XgiFm0OoalYMhuQM/L4ihiZQt+LS6J0S0gZEK1oARqdyhmBNIbSMPenjY98+ePdqPlx/xrZ2hn994uhzzT4mUe+auP8TtBbz0uq6eBNllCKSaB08FLo8VxgjvN08CZ0z2+8cvhF9GPmwpruAtR0+PLnfBv7tvNt4n+BNAAzAGcCkgV4SphcIsVTQkxZYKDJoKiatAAZQ7QdTPUFkjG2zRxkjdyK8lu1w8+/G4Do8Od9dUCsg6FtYfzIN14evLJb0HT7qJgDTFPB6eB5PLw6FFp78PzW07h4fsRbjySx0LpoX7xTyb0HQ8iD1/7o19jPy7dx71sCAE36iFGxNBBROoLSD6iJBcSkTGVUDDuDFApobi4tjeJZQZwW0gBl2hbKICA9wOYQg+D2jT+u6ni3g73Xr5Hgu1ZCh3/QcOgq1fPBy6WSvINYeevFplEZ6/mtpy3lcTQNXMwBponghWI0PG0t58ngBqoXb32SLW0yp+fspUSHcx9pz/SB/923UcBovyaBVXQvgPoCjfwAuh9QgxaQGYGcF0jXxXliqPa6OIGAJmZSWsgg4B2Bqh6gOkHat+vEFal7feBP0q/T4Z/Pv4GMz+nNp7dd+8bT9nF64/mtl4cfbX5AWTNLI+DVXQD8xtMAaD74eBsaB0/TwE8i0ZZ2A/Dh0+p65Y3nXQF2Z28n259zeeADN/0DlB76NQmYzyzwGYNAEYMUBogFtCBQtYByW1jODHxrlGZ/4CTD0EixMMKgBzRMIEQhrYqfA73fchTtv1ArqnzUhFKw/hKSvPYqwo7Wx8o3fpdy+HsgVsnSOlmxfZwOX3PwCt3TFnK5DCLeRr71dOj8JNGGEM3Bi00htCjCrrgy2b54nOlZ/u7/9mni09ivSeCemllAWxugtFAKQlkgonWyWneQikRyiSSnhqYgCPooWlkbT5lBCsa2moNgiyzsWljwROsC2iW8RV+EGBtq0KBDVw6+xjd+v6hq0goYo8OnfUBE+coWEDp4w+Eb3nj14NVDpzUxxfw4nEtL0+HBJ4TfDSF+z/dpSfuDaEqI/3N9wWKQagPSGZSCkOsDPDbG1BzirEBdIUMbxXmMejUQfEy1AloUzSAY0yoNE9rPw/xhm1F6/MqTxPiCmYr2XMWCgYeNDp5pXlI9v/VUyqYNYHzwcuuHpHwWetrDpzUwYhWMcvjV3nj7YqQYHtoTdG5bsl1J07ud5e/9tb/5Nwl092/S54aqBcgY+kIMSBah4EVpDyuLpJQaAa+R4WWSxqvkNCPkaISsUivgimEUgiQIxEx9KhpR6TgdIdbZ2KA/hOsX/vgC0ZWzt7A+9BRiHagxQ3nrzSilk8pe0j2tedEcvOVB8Er5w6B9gLQJTIg9zZvPB8+xXkv3vBRKHrw4dLEpLMWx5FSaQ0nL33vA9/xzQXWC/tP/uYCR/k36VDAIKCPQsIBBEHKNQF0qKQ0iOUKOdwkxEyhzhEVmwEsk1LIxewTCKFJAQGYRhQRasxLtuRw75h7/Q4BA1cmt+iIke1EjpqR6Onh5+LvFuniO9drDp9Vvdzr8fMRbU4sbx3vaCUjxPsmOKZ92AybbE9XTarhiettByyJpT2CqQ8m1FMcS93s6ffc85Xv8Bp8mPv/r16RPEhlDAgR3FIRUJ5BMQAaRBEHNTKAukyKjiLaJzlQWSZMwpMUKtGeHysdy4dIcjGudgYnt5yPcKQ9rZh8EtVc/zgHUJPDO7r2G1VNPIMF1j3Lwpm89K3za+qkePq1748WPtPfP9M3nmE+HTz2Oiti74+HTm89vvXr4pRWpDiVBDzQR/B7nfNdfDmgY0NS/cZ+tqh4gFuB2MbFKRjDBN6JWQOVizgx+qgEEcrk0C0M5UVwulDK2jOUaeXIMVV0wrvVcUUae2G4BpnXPRsoXG7Al8RhKjz+a9nVx6PuvYVv8GaT33Y8o650I70XKXj7VAVDT4cuYX+3wraXg0za4mrz59vzmc6w3vPHKm19KO4PTHtjpu+sJ38cvBjQO+NCvSeBpCQJaKccGEYtC1gRfo59YnqDsFHrlB0PVkPsHuV6gNYoECMRUcd4qxkxAPgE5hhQSmA1kAWkMhQRqKWszD+PbUlfRArGedWqnbEQ6r0LWiF3Ykngc+etLcL7gGqjjmGbuqE8VaAY/jWS5faMC5/OvI3/tBWyJPYXsoYegd9qBcDPp4G3jnL4XNajK9I4BoFI/vflS8PGbX/3wKd7T9s9j/NbXRPtKipesLIdWKV/QvVgUneZYWpXmWLp5ruPZxvdxZI/+t/g/F6jzaxJ4Tc4PVG1iEobkEaiTRHi/YPW9Amoj6ShlwSQLQxESFF0gmED0E4YbmkrJOh4lSskUEritjEICAUGCYFJ76jHULmymnXzLEW67FjEuGxDjshExLpug121GhDVdtqTFTBtEC9qs7ry0kQs3WxDWk/b2EQAkCDQMYMY7fkn4mR5+jEjzZNxXBR8ffj7ibWjzJ8f9RNsThphPC6G1h890z28/LYdOczxPz+kUxwsPvg/oUULBt3HACL8mgeXMBOQUaoShslWEuoe4dKztIGKfgJcrqbpgkNJDwJu2aMcQOYYyQ5A9hZIJuK+QdQGZRpwlUJcxscFE2s8rGk1pKSO1mambuwkIwZ1pLRtv8A7pSh3I61QQdNsACYLZPWhnnxYEirsnWUARflFmxm++8eGz0SM2gBvefgKA9vBPqhvB7TUAcCg2iD15+HOcLlxLc7ro+CjP8nf9Xbpmun/4Numd6NckoMq4bMzZgZYJ1P4BJSS8SrpgCM8XFI6hLCErU0bFujWqICp7BkUvAYvDEaK9XBaR2C/47VNKFZUsQbABgYBDwqT2tJ5VssFSTOtEbLAM0zsTEFQQUBMqr3NnNrgzCLYhXIQCsnZZ+dcIABPFH6c9fLrTYACA5vC1b7/h8Gk1fIlC/ecr5jhdGPK7Duxx/CHPl/vX82kUsJkWSxlAcEeziNxCtZVMbNd6zRQEmtqBAgJ15bzMEGT9gECg5zZzQ5bAFrIUiBNEyzlt66aGUw0IOpqCYBVC5Cp3WuCshATa38s7fKlli5lAhAKDFlAAYBL7BQOYAsBaxn5J/4VIENR/Ekl2nPIla97+VAMA5OGXIt3hfMojd/oeFhg+TQKb+zb2P0NbRo3qBtpm0qZfKbWDAYZuIm3tgMfNa61jYgKtdSynjgaLhdNcRKL9ezWFBC0TkC6gewcKCNpT6zmHhGliYbPKBCobrEVoNwUEih6oFgokACQD3AUA0uyh2E8eP6d8WvpXDr/Gt58OXwLg/OYk2ysNH/a8Hsuf923ia+/TyO+aAIFkA1lF1GYJShFJDQnfaxpKTIpIYueeZv08LZ9Wdg+pzqGWDWSjKYtDcfPIIA4ZBBPbLYIICQY2oK3dLBBJF8zoQkxAmkCCQApDuqCyGWFim7cMAZwNGAlAC5n3S/F3yOD21Sz+NG+/3RmkKMpfvv3q4ZeenOt48cPHcniP4i+lyqFPI5+ffBr5VcqdwzWHBfIMZA1BCkR5x0BpMRebN7XiUA6f5v2D3FPAG8hkpzFfO5N9BcZ1BDVDUFNFCglTOmRjaselMGUCAQIhDFUQSD0QJsIAZwMyHaQ0sKYMQC9CwJ3VPyt/BkCy3WkQ/QsAOJyFCQCuzHEssXkU5/RY/46+Tfv+j3dD73i1s5iXT2u7i7XpYh/RU0AhQbuJnJxDzhKop0DdQiZH0FOTqVxDb9xuLu8ecodRHLedC3GYJpxDkSGIVFENCRwOCASsCSQLqCCQoYAyA4UFZFqoZAICACIN3Itoc5UBtAAwCECT1C/J9p4AqEx1LP3x3+b0PSxCPJp6NPRq4L3Ou6FPFU0apQZT2WTK+kBpL9OmjNRXYNhFbHLn0MAGXEPQ6gISh2IXobhzQBmCNhxQRZEbTDhDUNJExT3kC6mLMJkyBKEJjENBcBeZHUgWoIuqG8VtZRaDGhYw1QHC+j0AUwDEk/kjAWBbCGKAewCgKs2pNCbG//h/Pey5/Fv/vE8Dt/c8G3gWiIsmDX2UFat85dwQFgzTR5WCkqbDSFw4MTSaki5QllFU6zOkkjLvIx7SnDOEYR/QLWR2DkWGoICADCPyCsaJW0h0FU1NEwkEzATGIKimB7pLFtBmAzXpAPL+HxoAVWkO59bNdbzS4N96eI/qf+be0N3as4HHRdpASmtoJRgMbGB08ZQvnbA20GYJtIiZdAH3FlBIGKispDGuJipeQXO6hUyGkbyKrmoCtYbAhSR2DRkEk9oxE4iLqSIzkKKQWIAuqa5RsgI2iFgMEggkC5AbSDqA3MC9iLbYVyMAhAi0yef8XzKAnWkIOIsUB3qKC1Icz/6xTt9DguFvHg08fvCo735bvXyqAMEwg0hJG6nf8HneSEaFJXUnEbuHlC4adMEbw2sGAa2mNbiGHA7YMKLr6OQaqoUkUVJunaHMJsgEFZOkTzCVbid3zFWMIs4K6Kq6uKncTQkDQgtIFqDaAANAZgMSALL0a+oAJlAYkACoQQOkOpy9lOJ49skXffcCiK6O7h8e9d2jPOq7VXooN5D5EqqcROarrqc3pIx9RXWRQSCXU8pLqD8p20mH4xvBBGoNQd1Own0FzAR0G5kuoBhXE0URifoKDOGAReFkkRmQRyDdQukUKiwgDCItC2wV9QGRDSg1AcoGDEJQMYKqA6BABUA1BigqT3MsHnSvz7bW/LrvvxwbuNdzXete361KnUaiDqSsdhmVbiMrvgHdQ+xrtKJWponVNQFfQVPNIrqMOqyFMROIIlJLaj1XbOPW6SYsYBwKyC4OVuxicgnJGyCHkMTg7O6bNJ6A1AGcDkaLMLDf0PwRa0WpoOoCahmAGj80LmBVit2ZyPu+xVNbUKB7VveaWz3dCd5JoMwlFEMpeDAl30rmjIFEoj9NJxUuogwHKhP0f4XDAe8oGg5xAUXpOh787gSlz5CLSENFm9ksE1Fo7BHw1XQShdrUUPEHlJqBTA2NtQClhNXDADMA6QApBMkIYi9AGkECADYFIgswBsDpjQmW55+pLef6QF+n+7MuPVyfdb7pVtcZxsspiA0084kay0upnC5KTSDSRGVPkbyFxDMJWBMMeku5kv4uZQayiBSMoUYsoBaQfvs0CaNl8agNjalhy3hSu4UiNeR5RawFiAVmdFnJYlDLAoozSLUBCgPGQvB+AKCkghwGTiVaF9//mvcH+vSfkN+sq+fwlWtdR7jWdVJAIKeUqnOKaUwdZwq0rJKZQIBAKS/3e0kuq1IHU8jWc+3Cai4gsVHEeoDG07AeIH+AswK12XS8GFZFgpAAQC6hRgtQGFB8AaMw0IPCgJINCABwb4DUATHEAho3MM76KLReQKIUgnYnb6bYnjF7Qo7p8X0ZdAXd5Vn7cN2zDlWuzypAqOsMw7RyzagadV0NMQFtLPscfQwrawdBhgLZdSzTw++M5hNxZsCdRTSdJJw7iz6Wk8pkzYCdQuENiIxAaoEcTOu4VGQE1cKAkScgawN3AgDXAwxuoDWlgpQJiDBQkWR7csBjb+h8pynmuwAAA89JREFUfMf6YH8zrah1ecZutcsz9lU6AwhoYZXOsLSKQgLPK+RZRdRwQm1ncmllP8PKOo1HoKSHaiggPcCiUJhEIhSwSUSXT6QgpFAg+ghMMgKjWkGnPNFAwp6AiRikMNBzq9IfIMOA0hyiNINSLyDpAC0AFEewMtGmYGZYX80Gjwf7OGvn79Y9Y/em8zN2h1yesYfuWQdQWKiuDVQQ+ImtJQoLUCjQbi43TClTS8mD3h6NwWJxJV1GlSygzCgycQmlQcTt5opDaMQCNLUs19A8UnM2sMWQDkYa0kFjQyjWUgpBQxioSrApyLvrOtfaebz391U7PWvf0/kZ21KXZ+yge9YYCDS+VoyupcnljXh3oZEeMCyv5tV1X77Kuwupx5BCgWCBd8aCswKFBd6foaSFUgtEC4NolCEtlDax2j+gWsR3CAOidUyrA6QpxP2B5AeolrASBgw6IP9QvF3+O/f3aT2dv+tvzs9a93d+1vYGgUBlAye413NRVthW32CuDQVURfz85UFGk8pIEH5LN5KlFnhPssB0DBXegDYM6Lm51BAG5kArBquHAZkN3F8YkABQHcHDICEYZ32sJM76uPnTeawP8F31rdPy707/svnB+V82V1QQkDiUwpAnmEo9QNVEKQhJD5BJxPuLpTcwFF8btMBofPeOvJJOLFBDRiDEoLySThdR0zCuTQYXihR7mHoGeHglhwGRDpqaQjXpADNyBLV+wEHpB5yKt8p3/dOIvnvhgYZVOj9jbe78jO1al2fsyikcCE1Qz1ksslBDAdnGlBqyU2gQhC8NRH9lhzG1lcm5BN9Kc0gMqVLDwNAWoaJYpKaEsVDDQKqRPSyKRB24UijqA52XIbjLCtE7aJwOKkJQ8QPouhjXBYx0wI1Yq0MZsRb5H9zrM/lT/rrIDuradNXVtf/Vra5DnNuzzovd6ulyPOq75Xg18MzxauST49u4d47/cwE5vZ/rlxPQtH9On6Zf5fR78Zucz18elNP/5R9yvnrt55wBbwzN+eaN4TnfvjFy0Xdvj9F///ZY/Q/vTtT/9N4U/c/vT9cPbRGiH9Ziln74BxH6oI+i9b9+HKsf1TJB/1urJP2YVqn6sa3n6Me2nauf2HaeflK7hfpJ7Rbrp3TI1k/ttFQ/vdNy/YzOK/Qzuq7Wh3Rdq5/Zbb1+VrcN+lk9NunDem3WR/Tazo/ZLn2k2W59tMVufbT5vii9+f4foswPfZim2/dor20/zUihQlKNTzPdP6gdnZ+gf+iaqU9Qs6B/yKdvyzB1OeLT/EH99b399Qn83k/g/wPu2oXqw9d53AAAAABJRU5ErkJggg==;" vertex="1" parent="1">
          <mxGeometry x="413" y="596.24" width="50" height="50" as="geometry" />
        </mxCell>
        <mxCell id="1rdj6Dp2XUtkggpEOAIF-22" value="&lt;font color=&quot;#3333ff&quot;&gt;&lt;b&gt;Managed Cluster&amp;nbsp;&lt;/b&gt;&lt;/font&gt;" style="text;html=1;strokeColor=none;fillColor=none;align=center;verticalAlign=middle;whiteSpace=wrap;rounded=0;" vertex="1" parent="1">
          <mxGeometry x="370" y="686.24" width="100" height="20" as="geometry" />
        </mxCell>
        <mxCell id="1rdj6Dp2XUtkggpEOAIF-23" value="klusterlet-operator" style="rounded=1;whiteSpace=wrap;html=1;strokeColor=#6C8EBF;fillColor=#CCCCCC;" vertex="1" parent="1">
          <mxGeometry x="647" y="670.24" width="114" height="40" as="geometry" />
        </mxCell>
        <mxCell id="1rdj6Dp2XUtkggpEOAIF-24" value="" style="group" vertex="1" connectable="0" parent="1">
          <mxGeometry x="625" y="581.24" width="140" height="80" as="geometry" />
        </mxCell>
        <mxCell id="1rdj6Dp2XUtkggpEOAIF-25" value="Application Addon" style="rounded=1;whiteSpace=wrap;html=1;strokeColor=#6c8ebf;fillColor=#CCCCCC;" vertex="1" parent="1rdj6Dp2XUtkggpEOAIF-24">
          <mxGeometry width="120" height="60" as="geometry" />
        </mxCell>
        <mxCell id="1rdj6Dp2XUtkggpEOAIF-26" value="Application Addon" style="rounded=1;whiteSpace=wrap;html=1;strokeColor=#6c8ebf;fillColor=#CCCCCC;" vertex="1" parent="1rdj6Dp2XUtkggpEOAIF-24">
          <mxGeometry x="10" y="10" width="120" height="60" as="geometry" />
        </mxCell>
        <mxCell id="1rdj6Dp2XUtkggpEOAIF-27" value="Addon agent" style="rounded=1;whiteSpace=wrap;html=1;strokeColor=#6c8ebf;fillColor=#CCCCCC;" vertex="1" parent="1rdj6Dp2XUtkggpEOAIF-24">
          <mxGeometry x="20" y="20" width="120" height="60" as="geometry" />
        </mxCell>
        <mxCell id="1rdj6Dp2XUtkggpEOAIF-28" value="" style="rounded=1;whiteSpace=wrap;html=1;strokeColor=#99CCFF;fillColor=none;" vertex="1" parent="1">
          <mxGeometry x="340" y="753" width="447" height="150" as="geometry" />
        </mxCell>
        <mxCell id="1rdj6Dp2XUtkggpEOAIF-29" value="Klusterlet" style="rounded=1;whiteSpace=wrap;html=1;strokeColor=#6c8ebf;fillColor=#dae8fc;labelPosition=center;verticalLabelPosition=top;align=center;verticalAlign=bottom;" vertex="1" parent="1">
          <mxGeometry x="475" y="780" width="140" height="110" as="geometry" />
        </mxCell>
        <mxCell id="1rdj6Dp2XUtkggpEOAIF-30" value="registration-agent" style="rounded=1;whiteSpace=wrap;html=1;strokeColor=#99CCFF;fillColor=#CCCCCC;" vertex="1" parent="1">
          <mxGeometry x="485" y="790" width="118" height="40" as="geometry" />
        </mxCell>
        <mxCell id="1rdj6Dp2XUtkggpEOAIF-31" value="work-agent" style="rounded=1;whiteSpace=wrap;html=1;strokeColor=#99CCFF;fillColor=#CCCCCC;" vertex="1" parent="1">
          <mxGeometry x="485" y="840" width="118" height="40" as="geometry" />
        </mxCell>
        <mxCell id="1rdj6Dp2XUtkggpEOAIF-33" value="" style="shape=image;verticalLabelPosition=bottom;labelBackgroundColor=#ffffff;verticalAlign=top;aspect=fixed;imageAspect=0;image=data:image/png,iVBORw0KGgoAAAANSUhEUgAAAOQAAADdCAMAAACc/C7aAAAAilBMVEUybOX///8uauUmZuQqaORRf+hVgugSX+MfY+QbYuQVYOMMXePz9v38/f+Ure/3+f7q7/yJpe68y/WjuPGwwvPl6/vF0vZ/nu29zPVKe+fb4/rS3PhnjeqovPI6cebn7ftfiOl6muyOqe9tkeubsvDX4PlEd+emuvLN2Pd0lus/dOYAWuMAVeKtwfPwQ0gNAAATzElEQVR4nO1dbXvqoLKNgZqE+NJa32utWmure+////euUZMwMBCGkN7z3HvmY6vICjAsZtaQqPf/wKL/7Q78hv0XZHB7nr5snp42h8ngV3/2N0HO+3nKeRxzlua7n1/84d8DObkIHlXGxWr+az/9WyCn2yyOgMXiMvmlH/8VkMN3nka6xVn07zd+/jdAjo8pBvFmKX8ddt+DzkEODhmLTRgLmOlx3HUfOgb5vEisEItJy8Sh4x2lU5Czfc7tCO/G8sVHl/3oEOT6M2cuEAvj+XnWXU86A/m2cxvFGubmq6u+dARy/pSQIN5gJv2OaFAnIJcnQYZ4h9kNDeoA5HQrGhyq2eKsCxoUHOR7pPI3KsxoGrpPYUEOX5mR3Lhbyr/D0qCQIAcj0bTzu8IMS4PCgXx+aSQ37haWBoUC+bFw3/ndjCWL50CdCwPySm689gy7BaNBIUB+bbqAeIf5uQ7QwfYgf/p0ckOBGSAa1BbkfOVHbggw29OgdiAnLciNu7WOBrUB+a8luSHAzLZtaJA3yOErGpzqDGYav/82yPEx+02IN7vSIE+25wVycPAnN0wIX9YQs2TkRYM8QH4sEm9yw6P39fqbeztkJl48aBAZ5OzcYufnq9uEG1/8HRbP92QaRAS5bkduxGO2PectGmFkGkQC+bNrR274S9nSuV07+e6tI5A+wSloaUVdpi19M0+eCDTIGeTk0p7cZBUNnWdt2+LitAwMchqE3IQEWbA9VxrkAnL4HofZ+cNN17vFWeREg5pBDo8hglM3Y1WXjqHCCClzoEFNIMMFp67GFmWz7bwrbFQ00iA7yMGLP7lBLF6VDW9DtsqSFztMK8h/3jTTYEnZchsygBgTVhdkA/kZ/EScP6Kpz0nghuNk7wdyF/4wJR587EsEbzr99AG57+DAWG6Uyy7afjFCMYKchJ5RhaWPWE2YbVKx3Ej0TCCHgV3O3dKHf3jtpHXjgJn+8dpJdKNkA6NOQGYmF2sC2UUnriPZKcj4RAPZgfsrLHusyfduomCJQShjAPndzaLhD545SDoJ2KaG+WoA+dlJ7J9VYYt1J0PJFzgaA8hwpLy2mEs/FnfyFLcUkLOwS7LQKoucr/bSVDmJRKQ88LNMcKKOgwy5WfNUpLvRcq2JAAZv/xYnYddQEi3D+QAOchFqMvEs27zbAojjn8MpnNaAjQggWwR/JeNpdp47pC8+3leBjq3xkzvIQQjeyvP+xDlBMxuxIGlAgf4iCrIxltbcH5YsiNH85cohrBs3uCqBBp1RkFbWxUV04Q3HaYe4C2KN6lGeXDZ2bSJ7dQbZt7TD+oUf+TlZngNPDp56qrcn294lNsXkmPVtP40enTGQQ8uS5P3HhxamKR3nny1ERsvICCEvR+nJPAYxcwVpY+eiWmkj/FNs21KSMjLM2bwSR9j6l2CeAANpZef1xw7YWOaHdhCvNlthVCSXyLelfyhHx0Da2PlF/pzWGcZJKTWTjfSIpZC3eYuLRTk6BtK2Y6XyRrRRHmm2C6RTfVMT7kKeIPaAphvIma0NOB12AGV+NHf7Yzn65JJD+ojOx7nZQY37YJYIEImz7nA5snchICdWds5AIxvps4kpWjaY7KM8ZTyRxnmQc5bllxcj7VtIjzoBC/3LOpAYR0dA2tl5HAH/dS49XZziPHw42SXp7dHHXP5zev9TJs6GZ/NaLUw4Q+Z2IoJxdATk1s5m4gTUA47y28d5jM692SJJ62cm/6dyHlzwI0qPlneUPAHCupeGyAnG0XWQzew8W8k+9Oc6Fa9AsH6+QSEFOLeDp5+gtVrzPMqu7EOeOdO48biCcHQdpEOmO8438rgNrjsrgnGtaEXivvxfeJrj+QJp4UdZ5m8nhyw8wtF1kE4xUZ5YPOnNhlrFHd/J/1f5MRMotwYtOsX42LcDSBs7lyw9WRVDk1R7VpA8b7SfSS/WFpfM7WCNcHQN5NBVlxFbtsXhJ/LQIRlBaJWtxd7eNW8LnLgB5Je7+ERsDB1aowFH6NxfsI+kfcMxdHBxj4/oHF0D+U6ItrCV+u2bTfGHzsA44UufM7SIckzRVeocXQNJip0nGB8/GCYWA5obk8glx+Tm/yghUp2jayBJ4UEs2nA2zfcUdN/Y71z3jr0DKUSqxdFVkFZ2rlnMtBPy2ugEU6CFMzLk9KKty3+0gL7G0VWQdnauGddX5fBs2M4gdTbIBjAPOyQmLTSOroIkxs7RjOAkRRsRYBv8QWc1izDHM6fFgTWOroJsYOeKpXhYftDHEAjg2tfIR+J8j7ZHzCRqHF0BSY2d430qzkn6w4KjjiTOuDApWInipkTh6Eo3aTpUYa4uWm81/5OAYKze78zEBHpUkYHK0aMWjRmFCDdbqNtlBv49VkYyzm0EfZiSdjZlF1JAOrLzuwm7DHyu+B8IsgfnDNvaUyckyY3K0SFIZ3ZemH0grzbegdGK4X9BrxOzZuzRM8pQqhwdgiSw8+vIQDeBOY136dgcK1uq1BLj2JyADZK0zgpHhyAp7FxxrdO/mBx8dqoGTHXsq2poxAbLD738BVsmye8rHB32lLIfwUNFjymBw9Iquq7y5vLUzBP0oqzPlMOnsicMgPJbECTFhUGlRTGbsjPW2zIanijz+UFI0xNGmoZPTHVsFJFYfAGtAZAfhCnBwYn57hdSEMWp/vdZrMxM+18/iyOOJ4juZ2RlFVOEDJCjA5AUdg7PFA8Pz05o9nX+lERIZOO42p7RsM7sMfgCnHEo+lHI0QFINCRhMEidyr/yKMAtD2/lMQbG9yilepCjA5An9wkB99t5tV5M2QKCLWswcCtYEboHYrwyyDHhUcFjvhxfNOZ9HO1b6gUcEMpWCSaaDJLCzsHKHshPJ85bXRp0AM4PUJc1wb8KeZOVQRKeFKR0ihQvx0+ZTqZEiOB5ghB/AhxdBklg5xxwzZ3yxcygO220oVqLwsAOQ+AqwGfIIAmzASxJXRKTmsLOdhsj6iD5/wTWGac4SAo7B24PCdewlYd64DnSRwqEE94oi1LqoQSSoH6HmiBsLfMtecNcY6cpQLXVg7bN5C9KIAk1jTDVqC7JO0pGFBDiITlItQkVifIXZVm4XwsmWU2ckGjBEgl9RSp/1fN9RoulOHoNksLOQXrAFEqLmb4uZ+ub6YM8+2P4KSAcOlDoQL2T1yC92TkeJo7qeh7po3+zwsQfbZCN3QcujlI0I3H0GiSFnYM92vh0mBq4ea4+ydXoo3EigvPEnABSooQ1SAI7h8FwI1Fi6vHqUiHhapDbOJKpHDegHJwljl6BpLDzKJH3B1NeLf6jnPk/JSCpQopmfwzPGDwpUr1KzdErkMaVhZmQz8b41hOzXIl3HEEPE4XGzxM86AgIJCldUHP0CiQp5AdcHsIoeZpvRwobUP3nH+X/g9enBCn54XLgaEAZyZqjVyDRHd0IUu6d6jN4luz+6ZuEuh4y7ROF0pCpdzcApk3KVNbfrECS8kZGkJwlkUn5CA/23MDhv44rMKAQJCnCX/WyBEk5kCogq+nKM7F7N5M56EA111vbYHKuBxSApJBXaYstQZL0FVEmj9XN8RRDuJhbKyVgAj2z6/G/Rqu7vtJ/TdYcvQRJu3FEyHv5gl39TP+1kY/DaFveeBZ7npwzwZi3d60ZdgmSJhUAZGCULpZOxS5yC2r6x2Bvo60cSyHWdZYc/QGSws4jRePgXLAkVXwwa8oVmPz8iPXkJUd/gCQqW1K/sOPz/eab4m4Zvxg0hbtGNe99gKSw8wg7XzhacUGjX7XazYil+yVHf4CksPMrxsz/tTTjke+1l73iPlkSypKj30HS9h/RpFru0F5JPX1sdXeQBHbOWe4bVQ1iiz+EmvbsTQLZyM5jzhlLMyH45hikHMvfPqaLVSpEljLGmjzJg6PfQdrZORfZ6nNxOE7nM5LHmM2nbl74+f11+kVqerCeT1+Ph01kr/h+cMI7SOtyTs5vVFfxMX/dr9IkSwV3eJ3LNE9ZKpJoM5rQoF5tdrCWGPAapJWd01Jxzz/viwIeeyycOGvs9roMCvBiQRRQ15SHag2r3zn6DaSNnZtuRkHhPYkaXvl9RIgMTVGfFlDz6NMdqo3I3Ht/A2ll5y6/M33p8zxD3Z7pZpXa0FzV7baQy6fTZmXp/P3XbxgsGDkqW1HtmBjduuXc+LAXs+/QbzDDRteW0duWIG2KAx3kz6jPNusx2Egscqmk0fO8Wb4Mzm/Lj2WUbPfaGzpte8MtI16AtN4iB7V48+KIx6+bSv4XBMGNE75RZdizcEqo/pj9FUVHi8PrVMY5tjGZG0cvQFozDNJ0+1qkWX1YAjnztWk0UgeWa/R7UMdTMxaeJpva5++tV0gcHyDtWepHXfhgulIWHuioacpkDi7SFJ5SDtYgb8fF9h6LGJytm/xtuRVdfWq4yIPtRy+nXI39QuXbGl/XXPMck8VC23gNB70EDKS2HzLBPxdNLyu5BQUdQBa3PyHOU4kp4tNBKw7rC84TNRqJV9xAwRG27IuO2btegySkNmXLAQA0xqTldV5ucytTVYPobR45cG2et6VW05UYFqi+D7f5I7I2FHFz7+MxqXMlFbREVqWS+KPkX+VWSsdDDPBUptwthuwEar1mJeRVJyzymGPgsmjH+tqqLWTgeTmw8qxnWjNqPVG97as1ifqBFnod79snb+Hd20ZASvbILcCY27c66RIlJldnQ9Swq7biUvgAfQfyTthuIH88h1LlfMqFJ2p5xkR6CGpxkOKc1Wo+C7+12t15uUQGLG0oxPQC2hFKugN+F/7vB5aQKJoCWlVnbY9RuP/WwPM+NZWZPssPPFYqUmGRTqqE0OVyP00CRCo8koyPJZDFDRRelilHYpnDKhHoMXyQsYD5EzlurN6ePPFckeVEK2fN0bMdtUpUukcGVtlpy0rxzeP6i2rt9phUjSb1rTwcVEvj029pa/W+VU5G4Qof2lxRnk8VBdHq0z0ZWS0wqdf/xbMpVaZcih0hK0O4reJ8S4qvFsn0pn6TTKKUNchnz/eUJGrK+C5bVXbCL2TR55AR3M4JPFMjCd6eFdPWee+WqRqOGO4ytdwALXdQnkOxjbKTmtMb0qqsK5Mnkrxd0ZIplXE9wnHMObwKcIk2ncEHwbDXKPgekeRIKtiTz55MX1erfHF4mjJ9FXzooGq4euXZjGyQFcKfObX1Y5UNwbT7NnQVMoJnPf387XmKhOdtCHLgSREzeyWIcaOLU7uiwvMtEHEMm1UoJOYEXSyxojQfeDVJLLClZ2+U3Uu7MeLd02HbUNqC16ab9gub+D5xlU1oqQ5KVa1swpzzsJEpk8Tuav98tzSt7lTP56w8Gb+xqmewM112XlxAuDKl9pCrQZ2M6eW4yOV8vnegs5Opv8P5YSVEyjiPb2DjIjufZsnqxazGO3ueGOLI5XK+3tpUvdBknFnkBMP15LjvX1iS5zm79PejyZcluD5Y+V6MniMaPyz9OPW+Bt12JxvF1Bs1CD3A7nRAc6wL71cTpE8h3lzfdCmm2fANG08kW+6nbjAu/F+n/LAv/ZYb519H7wAwgBy3eAFDtiK/mFa2wcL/rTDxFl/mBkmAIUnlZHqNEsW83V4R/6K9w8ebbRinjLP1vQfS+PYwo7jD84xTWDuQ3j+bGV27uUe2VwBYLW/lYPWMiqMhp9pmkEOHF2ZgFtf3Ac+PrniXdaDIN85teEmRHaRvBEmqmt+mSd9SKPKw8XyfiroffonIWFiep20B+R3nqqzltKD6PE22L0vjeWr8c+yLjMcRX5VBGb/XzuS2MhOrlxh5RCmrnOSoKlK+AmW7w/TnQ2Ljw8HX8njeFlK8+4fi6kTqk4q0i6ntrtAj21UmiGHEPL4pIHO2Pa36/afTJUqS4lQCvllmM4f0RcksrxFtBEl3PtVNiejNm/HtlBXjjVahkCV1wvKLCYALyN4HkWNVTGDssbKq0lXqBMoanHjTzk3M6VUJdJ93rFXS2gHttcJWp+MCsncklQFXcWuf3HWdoiGdaBtviW8Gqb35xGL1+vfbB2qCTSgCZM2KXAei6ZxxiVm1R9CuMqz6W42J+3t3kUyMD8hn1xUiyT5pZVGlSWku5zWNvfrBA6Sz86n1V76vDZeEP47zNXcpxXE6F7kJCiT9la+QTUpquvGexCnY4nb4cxIUSEWVvq+UleLpTm8eZ3un7juecF0EBXUptv+rHev56gISuYW9Dchnh5+sfaOnbDOSs1wuN1hod8G0A+kkKCiPrcQCaWCV1Nlh6qiit9Yge9/NzofdE1sfniGFu/E7SgcKol6REgCki6CAPU3Wbwca8dRMLOY/79vmgURy+O1BuggK4jTLWr/C9nrydLhPUZO3hwE56Oat7n4Wc8LLSilBUl9BQRemygKCgey9h33beAtDX4ITBqS3oCC0pU0X4LcB6S0oCGuKFik0SF81U1DDZAEhQf5HOB/0Db4hQbYQFATDSHI6XiBbCArCmK5F6gCkd/1CGPPJ8XqAHLtfMBLeyE7HE6S5gPkXMJKdji/IFoKCtmaUBYQH2UZQ0MoaxMNhQfoLClqZRTfaBUhfQUErs8kCugDpXZLSBqOwqJw7AemtD/c3P6fTCmTv4Fn25Gst7lhrIZ/yLZ/1swZZQFcgfauovKxJFtAVyN7HL0ZD0jZatlZqvy9/aSrNiO85CAqyN4t+hRSwre/mEQJkb7jIO4fJc1rYKjjI62DuC+kYj12N04wJsWg3jCFAFqUto8/+k6P1SbY7H5s0Oi4WAOR/vv0X5P8V+x/criFW+sDbfgAAAABJRU5ErkJggg==;" vertex="1" parent="1">
          <mxGeometry x="365" y="803.5" width="64.99" height="63" as="geometry" />
        </mxCell>
        <mxCell id="1rdj6Dp2XUtkggpEOAIF-34" value="" style="shape=image;verticalLabelPosition=bottom;labelBackgroundColor=#ffffff;verticalAlign=top;aspect=fixed;imageAspect=0;image=data:image/png,iVBORw0KGgoAAAANSUhEUgAAAIAAAACACAYAAADDPmHLAAAgAElEQVR4Ae19B1RV19a17/++997XXmI3Mb0nRtOMvTd6h0tvgtGYxMSYmKJGicbeEVT6pRdBsSAo2HvvXRFsiGBvKGX+Y+119j3nXrBFfRGTjHGGiS1w9zxzzTXX2mvVqfPXP399An+2TyBNd/K/F+uKGs13L2lKT47ucv2tffH3P9vn8Kf6flEHf0vTnXxhnu7sN5m64lULXIvPL3ArqVrkXlqV5XHhVLbnxcxsj8se8/wv1v1TfTBP+zdLB5/hVPh6hlPhzxkuJ/PnupzBPF0R5rsWY4HbOSx0L8Ui9/PI8riIxZ6XKrI9L29Z4nUlIM/jWpOn/bN56r+/FMdjb6c6HBs/x7HgVLpTITKcT2Kuy2nM051BputZBQQlAgRZHhew2PMisj0vI9vrSmWO19W9S3yvDljme+OFp/6Detq+wTjr/c0T7Q7PSrY/UpTqcAxpjscxx7EQ6U4nkeF8SoAgU1eETNdizHc9hwVuJQoLEAguIdvrMnK8r2KJ97XKpT7X85f63hyyNOB606ftc3qqvh+i+libna3jrfZEJ9jsL0myPVSVZHcYKfZHkeqQjzTHAsxxKkS6M4HgNOa5nAGBgEMBs8AijwvI8qRQIFiAQeBzHUt9b1Tl+t4syPMrG7/E5+ZrT9UHV9u/maAg/D+95Y4OeqsdSbFWuy/HWe+tSrDZj0Tbg0iyO4Rk+6NIcTiGVIfjAgTpTicUFmAtoLJAKRaqWoBZwEuwAJb63ECu703k+ZVVLvO7VbTc/3bo8oCyd2r7Z1erv35648N6buwYabYlK9p8W1mMxY4qveUuxFntQbz1XqggkCxQUyggFtBqgfMQLOBxSWGBq8jxvoYlxAIqCLDM/3bVcv/bl1f2rghb7nfr/Vr9Qda2Lz6s5da/z+q53jy81/p1Eb02VkWabUKU+VZEW2yH3nInYi13I85qL+Kt9yHB5gASbQ8h2e4IUuyJBTgUEAukkxZwrokFLmARZwTI9ryCHFMW8C3DMr9bBAIs9y+vWtG7/PaKwIqUVf5okabDf9S2z7PWfL0TzZb8b0i35a4ze6zcMLv7msqwnusQ3msDInptQqTZFkSbb0WMxQ4GgRWBgJhgPxJsDiLJ9rAGBBQKCjHHKBScRaYQgxwGFrlfRJZggSvI9tKywE3k+pYhjwDgRwC4jRW9y7GidwVWBlRWrgqsWrA6EB1W+OO/as0H+6R/oSE98hrM6JLbe0aXvE0hXZZXzuy2ErO6r8LsHmsQ1nM9wntt1IBgmzEIrPci3qAHDrMesM9X9ACBQGYFRZin44xgvhuBgFkgy/MyFnsSCK4hx1sTBnxvIc/vtmQBCQACAVYFVt1aFVCVszoQ1kt88L9P+uf7xH59UzvlPD+tQ1a/aZ2yd03vvKQyuEsuQrouQ2i3FZjZbRVmdV+DsB7rVBBQKDDjUMBMsAuxVnsQpwkFSXZHNCAoQJrjCaQ7nUIGhQKXswoISrDA7bwCgkvI8iAQXEWO1zUs8b6BpT7GLLDMvxzL/SsYBL0rsTKgikAggLA6oGrZqj5w2+iFZ57YD/pJ+8LGd5jfdEK7zO+ntF9weEqHRZjacTGmdcpGcOelmNElDyFdlzMIujMIZvdYqwHBZoMeiLHYCb1BD1AoYD0gQGB3FCn2x5HmwCyQ7nRagGCuy1lk6s5hvmspFrhdwEL3i1jkcQlZGhZgEJQhV7KAXzlUEFRihTEIsCoQFasCsWFVIPzWB6L+k/Z5PzFfz9i2ya+ObzNn5IS2GUcntpuHSe0zMbnDQkztkCVAML1TjgkIVhqYYLZgAlUPSFEYQ6LQajdirfZqmOAwCAQpMhQQCBxPgkAw17kI81yKawABs4AIBV7XscT7Jpb6EAhucygQIKjAcn8FAL2rBBOsDABW0RMonsrVgdi1KhD9VvdGoyfmg/+jv5BRn8a/M6ZV0tSxrVNOjGuTVjW+TTomtJ2Lie0yMbn9fEwhEHTMEizAIMhFSJdlChOQHlgNwQI91iO8p6oHosy3IVqIwl2CCRgELAoTbQkER5Fsf0wwQaoEgfMZzHU+q4CgBPNdz2OB20UsdKdQcEWEgsWe15DtdUMBwS0FBOXI86vAMn8VBCs0IBBAYBAIRlgdWHVodQAG/6mBMLJlTItRn+hDfmsZf270pwlVY1olY1zrVIxvMwcT2mZgYru5mCRAsABqKMjBdBEKFD3QVdUDzAIEAi0TbEe0xU7EWOwS6aEKgkNQQZCPFIcCDgeOp5DufAYZzkWYK5igFPNdLygguCxAkCUAcB05XjexxLsMS31uI9e3HHn0CBBUCiZY7l8FAoEKBGaFVapGqFgVWHV8ZUDlyLUB+PPYzEEfRDYP+jgi9tdPoq+M/ERfNaplHH77NAGjP03C2FYpGNcmDcwCBAIKBRoW6LgYxAIMgjyEdFmOUFMQGJhgMyLNtiLKfDuizXcIEJAmMAbBESTZHUOyfT5S7AkEJ5BGIHAiEJzFXJdzyNRJEFzCQvcrWORxFYs9rwsWyPEuwxLvWyoI/CoYBH6VWOZPQKjCcgUENYGBsgZKH1cGVJ5dGVA5eVVvvPRHM/Jj+f/rdGn/MeSDkE+GfzA7M+jD8IqgjyKrfv04CiM/icGoT2LxW8t4jP40EcQCY1unmoCAQoFkAdYD07R64B4giOi1RQMCFoYSBPE2B5FoK0FwHBQK0hxPYo7TaaQrLDBPV4JM3XmFCSQIrjEIPG8g26sMOQIE5YIJcn0rkEcPgcAABMkKlVjemx8Si/xwBrGid0XVyt4V15cHVASvCMSbZHE/lsP4d/6lA94M/ueQZtN7DG0+I2tYi9DyXz6YheEfhmHERxEI+jgKv34cg5Gf6PFbyziMFizAIJChYHzbdExsaxIKhCjMxrROS4xFYTUm2ICwnhsRrhhFxARR5jtESGAm2Ic46wNIsKFwoIDAjpkg1eEk5jieRrpTETKcizHPpQTzdOeR6XoRC9wuY6H7VSzyuIYsj+tY7HnTAIIlPuVY6lOBXHo0QBChgcKDohNYK5BeuONzc7lfRfQq/1stamWnUlCz0P/7ofkkp5+aTc39+f1pt4c0D8awFiH45YOZ+OWD2QIEQR9F4tePo2tmAQoFrauHAskEUzpkYVrHbEwXIMjFjC7LMKPLcoR0XYFQxSMgTTC7x3qE9diA8J6bQEwQabaNQWAumYBBEG9zCAk2R5BoexRJAgSFIBCkaUCQ4VyCeS7nkalTQbDQXQuCW8jxvo0l3uUwAMGXgUAawaAThFYgvVCOZdrHn9NJSik5rRQ/li3zL0/L8y1vt3gA/vnvfHl/1//rpxZj6w1+b4LbD+9MWP3je5Mqfmo2BT+/Pw0EgKHNZ2BYi1ABguEfzMaID8OhgkAPoQXuGAooK5iHSe3mi3AwucMiTCF/oGOOAMH0zrkI7pynAcFqzOy2BrO6rwUDwQQEZqQLdiHGYg/0lnsRa7UfcdYHEW9zGAk2R5Fom49k+wIDCOY4FiHdqRgEgrkuF5DpegnzXS9jgdtVEAgWedxAlmCCW8j2um0CBGIF7UOiUX3ylFSSnEXTh+xmAkqeX/mNXL/y+bk+5ebrdfjv33U4j/MPffnumAaD3hrt//07Y7Z9/864ysHvjscP703Ej80m46dmU/Hz+9MxpPkMDG0RgmEtVBagUKDVAlIQjmmlCEIlKxjfJsOQGjIIFqqZQcccEQ6qgaDrKszsthozu6/FrO7rBBOE9dyE8F5bENFrKyLNKCRQhrBbBYHVQcRbEwiOIdH2OJLtC5FifwqpDqfBIDiHDOdSzHW5iEwdgeCKAoLrWORxE1keZeJZ7FmGbC9mBGIFZgZiB+XxIeFo/JCxVNNDABF+A/9YlutTnp3rV+G8sC/+53Ge6X393QPeHNPom7dGfv3tW6P2Dnr7t4rv3h6N798ZCwGAdyfix/cmwcAC72tZQNECpixQkyBsnYZxbeaAQTBP+AOT2i/A5PYEgqw7MsGMLisQ0nUlQgkEgg0oJJAu2ITwnpuNQBBtsRsxFnuht9yPOBMQJNkVItnuBFIdziDN8SzSnQgE5wUI5ukuKyC4hoXuN8SzyP2mAQwCCJ7ECvIpQ44QjSQcKYOg5yZyvCmlZHOJDCbj5xZyfSQ4DMxRnutXvjrPt8JtbQD+dV+H9Sh/U1DXoP8c8Ppwj2/eGL5v4JtBld++ORKD3hqFQQIAYzD4nXH44d0JzALvmbJAKIZptIBkASkIJQtQWiiyglYpGKuAgPyBCW0JBPMhQSDCgUYYSiYI7ix1wUqECjagkLAOs7qvZyD0ICAQG2xDpNkORJntRLT5bugt9iHW6gDirA8h3vqIygZ2J5CigGCO0zmkOzETEAgydVcw3+0aFrhdx0J63G9gET0e6kMhggSjeLwoe6j+5HjdEGAgQEhQMEjKsMSHHi1r3Kb0s3ypT/mapX7lHR7l+d7179LV0f3HgDeGDP769WHXvn5jOL55cwQGvhmEb99iENyRBZpNwxBTFhCCkLWAmhXEYlTLeIM3wCBI1YjCuQoIMgUIJrVfiMntFwk2mNqRs4NpnZaCgcAgYDZYJdggtNsazOxGYYGAsBFhPTcjvOdWAYQIAoK5ygZ6y4OItTqMeOujSLA5jiQCgf0ppNifQZrDWcxxKkGG8wXMdbmEeborAgiZrlcx35XAIJ+r4t+FVnC/LjIHyh74uQYylughb4H9BfYYCCAMCPkjg4KYQ/oPS3xuQzzet4pyvCus73pwj+oXv3xtiOuA14bcGPD6MHz9+i/45o3hDIA3f1VY4Dd89/YYfP/OOAwWLDAJP2pYgMSgsRYI57TwIzUt1ApCZoIUjG2lgkAbDiQbEBAoJBAIpgpdsBQCCJ1yMb1zHoK7LMeMLisRQk/XVQjtugYzBSNswOwemxDWQwJhO6LMdiHKfA+iLfZBgiBOAUGibSGS7BgEqQQCx1KkO11AhvMlAQQBBheFFVwJFBwmWC+QZrgi0kiRSop0klLKq8iSjyf9uzEgVHBI1ripCSWkNYTeOJvjffuTR3XONf4937w2pMmXr/549KvXfsaA14ZAgOANAgGxwK8KC0gAaLUAhQE1IyBByBkBa4HhHxIIIhH0UTR+/ViPkZ8QC8Tht5YJ+O3TROESjqFQ0CpVCQfpBk3AISETE9stALNBFqZ0WIwpHRgIUzsuwbSOSzFdAqHzMgR3XsFg6Er6YC1mdqPQQEDYjLCeWxAuwsJORJntRrT5PsRYHIDe8jDirI4i3jofCTYMgmT7M0ixP4s0xxLMcTovgJDuTGC4KB4Si/TMo0fHwpEzCBKQl4SnIHwF4S2Qv6A+i9yvKKCgVJNBQcDIEkxxQ/Ef2IMgM4p0xmKvWwsXWz7GdLH/qz98/sWrP+LLV3/CVwIAQxUWUMKAQQtIEGhZYMrdM4IPIxCkYQEGQbwAgWCBT5NhBILWDILxbdSQIEDQbiEmtV8kwsJkCYQOOSAgTO1IrJCL6Z3yMN0AhFUI6boaoV3XIrTbOszstgGzum9EWI+tCO+1HZFmuxBptkc8xkA4jgSbE0iyO41k+7NIdSgRQEhzLMUcJ2KF80h3Pi8EI4tGEo7yIf1QqvgKFzDf9aLx40ZewyUsdLsMAgI/V7FIY0CJEOLJQGBtUYbFnmW3F3s9Jj3Qt2Xfv/d/dfCCL175AV+++iOMWOD14TWwgGlGYMwCQ5tTSkiCcBaGfxAGwQIfEgtoQsEncRhlYIFkjG5lAoI2CgjaMggmtCUmUNjAAIQsSCBM0QBhRvdlCOmxHKE9VyKk+0oEd16JGV1WI6TrGoR2ZSAQI8zusRVhPbYhvOcORJjtRpRghIPQWx5BrNUxxFsXIMHmJJLtipBkdwbJ9kVIcShGqnjOIs2hGHMcz4GEI4vHYsxxomyiGOnOlFGcYzCQ06g7j3m6UvFjpisDg4AgwSBqEQQC4T1IHXEDWZSCCoFZRj8G1UjfD/uT/V/+qd7nr3x/8otXBoNBoLDAa5IFWAtwKOCM4Lu3xxprgWbEAtPw8/vBii8QqvEFwjHCwALaUMAs8NunSSIUjP40BWOUUDC29RyM0zABscH4NvMggNB2PiZ3WojZdrmI81uNrKDtWBt2CLvmFeJgXhEKt5TixLbz4jm+oRSHlhVj19xTWDc7H4uG7EOS/3ZEO2zGzO4bMLP7JszqvgVhPbYjvOdORJjtQZTZPkRbSCDkI966UDyCFWxPCZ2QZHsSSXYnkWJ/WqSRlEqSp8Ap5RnhLTAYzgrLmcFAjmMpW88CFBeQqSMwyJBxBQsNOoLSz2tY5E4+BANhscfNnDQd/vGw513tz/d7bdCHn7/8Hfq//D0IBMQCFArurQWUMPCusRgUxpBgAY0x9GEERnwUhaCPCQBUJ4jFSMkCLRPBIEjGaCUcSCCMU4BAYJjSbT4S+qzE6ln7cHzTOVw6cx0V5ZV40H/KyypwvuA6jq0uxZoZx5ESuBvhlpsZCD23I7wXhYa9iDLfj2iLQ4IR9JZHQU+cNQHiuNAL8TbHkWBbgCRbChcnhKeQbE+gIIOJTaY0R/IYzmCO0xmkOxEYzmGuYAZyHumRgKBQIV1IFpTCjXQjIFzn1NP9xmm67VztAB/2J/q+NPDLz18ehP4vfycA8MWrFAqIBUgQGrMAp4RSB4zF4HfG4wdhDGk8AcECIRjaYqYIA7/UEAZYEFIYiOdQQOGgGhBSMa5tGqK8lmJd9H4UHbgAOrxH+U9VVRXKrpXj9K7LWB2cjwTPnUpo2IHwnrsQ0Ys0wj4Gg/kBwQwxloeVMEGAoFBBoDgm0slEAQgymNhkSrGn9JKek4rrSGBQwoSwoM8hwwAEYoSLBjuasov5rpxqCh+CDCnPG60f9ryN/nxQnaD/1+/lb+P7vfQtBAu8QiygaIFXf1YE4TCwLxCEgW+OxLdv/SaMITUMqM4ghwHFHm5OYWCWUiSiMBDJLKBkBL9KFiAm+EQCgdggEWPaJCPpqxU4sOwEblwqe5Rnfse/i8Bw9VwZ9i4oRmqfPZjZfTNmdtuCWd1JJzAYInrt5jBhvh8xFgfFo7ckliBf4RDirI8oYMgXdQeqPZD1nGRXoNjPDASVGaQDSb4DCUjSCpRZXBJpZqYCAgICG1I3Bhod4MP+x4A3B/yz74tfH+j30kB8bgCB1AIkCCkllCwgU8JRGPSWZAFNNiB0gKY+oA0DH4RjuAgDLAaDPo4RaaFMDTkcMAii/XNwZO1p3L5ZfsfDety/UHalHHsXFCHWfStCuqzHzG4UIraKMDG7xzaEkXDstVtkEFHmexFltkdJK/dr/IXDiLMms0l1HQUQhOmkBUIR5pBwFFZ0qWJHXxAgkG6kCoRryY+0n6DPCwNe/OzFAZV9X/wGAgQiFLAW4LSQfYGvXx+mMYbIGWQAfPfOOHxvEgZ+el+KQSUMCBagbIB0gAIAwQIMAqkHJnROwZbUg3/owWuBRYxw/eItrAk9hpDuazCjyzrxhHbdgJndNqqagXRDz+2I6LVDpJbCaDLn+oNkBgYBuY7ECAUKI0i9QDqhyFCPSBcu5HnMFU4keQ3kRioGlO7qsUfqB3z2wpeun73wFfq++DX6vUQgkKFAsoD0BZQw8AaFATKGtNmAqgN+bDZVkw2EYGjzmUoY4HRQgmDER9EI+kgFQEL/XFw8fRX0oT9p/1RVVuHM3kuI89mEaZ1WYHonSi1XY0aXtWAwUCZBaeUWhPXcZgBCtPlexAjH8QBirQ4izoprECojFAjhKCxoQwZBDiSllSWiJkF2dIYwnS5hnstleqoynC69/rDMb/jzfZp+GUwA+OzFr1GdBTRi0CgMBOHbNykMjAbrgPEY/O5E/PDeZPxoSAe1OoBAMBu/yDCg0QJj2sdjTfRuVNx+tOLucYCo7Opt5Izeh2ldlmFax+UKEFZhRpc1CFH8hVndyXpmIIT3pGLUToP1HGNJ4eEAYi0PIc7qCOKV0nSSLQlGmVIWgWzoNEfpMbDxxA7kJWFLZzhd9jQc4MP+S8ALX2zu88KX+OyFAQoLDDRiAWkMffXaUMUelvUBCQBZGyAATKoRACIbEAAwZoHJZinYn1fwRL71dwJQxe1KbE7Mx4yeyzClQy6mdszDtE7LEdyZgECMoDqOEgwcGshoIp0gWYEYgUFAxShRhxDppKxFFAmjKU2wgXQfLyLd6SLSnS+EPey5iz8f0DDgX4FN+5f1afoF+piywEvSF5AsIOsD5AwSA3A2UL04JA0hlQFqAsB02zSc3FV8p8/5if55Cgn7ck4h1CoXE9tlYVJ7qk1ogUCMoAXDJkNoiNAyggWFBhKKsg6hAEEpSKWQ8yis6HNgG/o85jhdIADsfjQAeK5vt4DnP68KbNofkgXUUEBaQKaEiidgCANqOnhXALw/A0Obh7IfYGCACMx0mYuiQ+ef6EO+ny/uyJoizLDMxoS2VKzKxpQOVJPIxbROVJRi+1llBLaeyXamGgSzwT7EKCEh1uoIewqCDU4gSTiOp5Fsx0WpVAcGgQCC4/nyROtL9R4aBP5N+gwJeL5fVUDTzxEoWUCEAhMxKOsDBgBQOij9ABkCqEmEHEHJAMEY8v4MDDEBwBTLZJw5UHo/n2+t+D2HVp7G5K7zMb7NfExst8iIEaZ3WoFgUYOgYhSlkhsVoUgZw05EivrDXkRbsKdANYg4UYOgYlQhEoXdTCBQmYALU6VVcxwuWD48AJ7rk937ub4IeJ4A0B99mpIWoIxAA4CXB4PSQeEK3gEA3709DoPfmYAfTC1hAwBmCRE4plMsCnecrRUHe79fJGUtO+fnY1zbDIxtPRfj2mRiQluqWmZjageVDRgI6zCz+51AcAAxlocQa6XazaYgSLY7ixT7c1SdrEp1KB31UAAgA8ivSUBx7+c+Q+/nJQhYC3BKSMYQ2cPfCwB8KVxBrSGkMMBbY2AMAGMG4BAwC8M/CsOeJcfu93OtVb+vsqISy0N2YfSnaRjTKgPjWqsgmNJhqUYfUEWSQLCJmUBWIntRSKACFPcmxFoeVaqRKhMk2p5Gku0ZEAiS7c8hxaEk76EA4PN8wKd+TQJv+j/XRwMARQuIlJCygUEaHUC2MGUCv+BrQ5MIWcJ3CgHTMeR98gHYDs6ZvAGVlU9ejv+okEY1isQvVqggEEywAJPaLcbk9tSzQGzA2QKnjGQkERC2GlxFWYWMsZC1hmOIE4UnKkufQKLNKSTankGSAEHxhZiux3//tBK/xr37+zXuXenXJBDEAgHP9xNhgLQAp4QUBrQAICGoZQAyg6QdTD4AaYDJxhqgORtB4b7zcOv67Uf1WT9Rfw+FgLKrt7Bz0VFE+izGqE+otJ2KMa3SRUgYTwKRQCAEYh5UXbCOTSRhIKkgoMJTtDnVGKi+QBXIY4i1ykecdQHirU8gwQCCorJk++L2v5sFfBv7xvk29odfkwAIFjBoARkGVB1g1CNQAwOQHaz2CJITOB0/i/gfglHtInFqT+1M9+6ENEoDb14tw8HVx5H64xKMaBWOoS3I46CGlziM/CQRo1pSaXsOxokehoUKE1CWQOniCo1vQLYyZQja+gJVH6nyeAgxlkcUEBxHHPUl2JxEgu1pYoKqRNuzX/8uAFAF0LeR32Gfxv7wbdwb/iYsQJ6AkRAUPQJaS1jNAqo7gdpiUCiWBm8Cxcja/g+96bdu3MbJvWcwf1weRveYhe/enoDB707Bj82C8fP7MxUQRGPER3r8+nGCAMGYVgQC1gQTBRNITUAgIDuZmIDrCrNlU4ooQe9HlPlBRFscRoxggnzEWikgEExwmoCQ8rsA4NPA5z3vRr4XfRr5CQBQGPDXhAFpCvV7kYTgd+hPnUIiE2AziBtFZUGIOoPUWgDfFqKuoBBMtUnE5bPXavXZE3hLTpzHCv1aTNbNxjdvDcfXrwdh4BvkhNL3TtkPCV8GwbAW4Rj+QRSCPqKGl0T81jIVY1tRdjAfE9ouwqR22ZgshOEyxUom04hSRKonbAWBIEyUnvci0kwDAgsZDo4jzoo6lE4i3vbU0TTdvgfvEPJu5O3q3dCn3KeRL4zCwPP9EPC8kg6K4pAKAG4Q0WoA6QTKD0F6AET/wRjaIhRr43bW2sO/fvk69q3aj6iBcRj04c/4TKTG9DIQE1LbPLGgBAHZ4BT6yPeYhWEfRGDEh1Toilc0QZoJCHIwpUMepnVcgelKUYlAEKqUnMN67EA49R30IhAcYCYwP4QYC204OEEguBRnfaL5A7OAV0OPSV4NveDdyMcEAJQOqgDoKxhgkGCAmgCgFoPoLSABqMb/qbZJuFJyvVYBgGi+uKAY2bNzMMLsVwS80Bf+Tfqi93P9EPg8eSSki8gd/QlfvUogIEeUMiHSQFQIm46fm5HwpcJXJEZ8SKGAQMB6YIzCBBPbZmFy+yUqCDpxHSGk60bRgCJZILzXHgUEChOYH0aMYAIKBwWkCSrjrAp9HhQAf/Ns4LleAsCnkT/8GgfAv0kfSFOIDaEBECGAegUNGkAyAFvBAgBCAHIlUNI/pX4rI7bVmsOvrKzE0e1HEfV9JL54vz+8GnrCq4EXvBv6gD8fypTILCNtRBY5lcp/wnfNR2FEx2mYYBWBmV7JiP48E4mDsrFo7FrkTN2EdXF7sCFhP7amH8aBZSdxcPkpHFpxBodWFOFg7hlsSy3EttQTWDvrGPLGHcbCHw8g9bO9iLKjtrQdIhSE9yQQ7FOY4BCiLY4gxvIY9JbHBQhirQpCHwgA7vXdX/Jo4HFK/QZVHcDpIH2jsjo4UGkTo0ZRFoF8Y0iWg6UHQACQBtAMjOkSg5LjF2sFAAr3FmJG32D0fsUXrnWd4VbXGe71XOHZwAPejX3wzYffYpTVGMzsG47UXzOwLHoVduXuxYm9p1F64gIuF1/B9Ys3hEB8WLFbWU4pZTmunC3DyW1XsDHiDNICDyPCbC8ieu1HpNlBRJkfZhBYMAjirI5vfqAxth4NPL5ANjkAACAASURBVLp7NvAo82rgCe+G3lB1gPQDVABwhxAxgKwIEgNQNfBX7gcQJhAJQIr/U/FzM/L/Q5D83RJQqvSk/7NnxR70e/Nz+Dznja8//goj7UYganAEcsKzsWflHpw/fR5XL15D2fWyPySTYY+hAoeXXkSixyHBAioIjiLGMp+YoCjauvD+G0Q8GuiGetR3h2cDT3jdEQBsBsnuINUHoK4g2RdIJpBGAIpZAcHidvCuxYef9LMXX1/57XLcvHZTHPCtm7dEUwp96E/aP/Q1lRy5gThnBkGU+SFECz1ALJB/O8aiwOq+w4B7Pd3C6gDoDdUR/JyLQiILkCVhuifws9IQUhMAqCWc+gBnYFw3Pa6W1i7x96Qd+J2+nrXBZzShQNEDFscQY3F8xH0BQPd/ukbu9d0Oe9R3M2GAGgDwAvUImgCA0h/BAOQB0PUwUr8y/rP3H9Nv4Z2+/r9+/iE/ga36YiEIIyg1NCMWOIJoi6OIsjiWRzsW7gkCXQNda/d6rteYATxAmUBNGoCzAAYA3xYiDUAmEN0WpgyA28HIABos47+4DBKKNTG1N/d/yPN5rH+cNNWS4YUI77lPwwKHEcUgOBZmXvD8PQHgXl8XSAr3ziGAy8ICAEoIkOVgvh+gAYCpAHw/GMM/no3Da0881g/iz/qXFx+4Dr3DPoT3VDOCSLNDnBWYHbmhtzx670ki7nVdolQAEAPILECGAMUIeuFLpUH0W0M/AAHAkAGIm0FSAKrxnwo/l4trt/X7JALsxsXbyBx4GLN77EKY4gtE9DrAaaECghjLowPuygB2De3+5VbPZasKAG0WQAUhaQRRT4AsBlFDiFoHEAAQdwIoA6AuIOP4P7FXfK1I/57EQ77T13St9Bayhx8TxpAEgBoGCAQKC5gfSbwrAHQNde+41XM5Xx0AbAQZACAaRBkA3BEkTSD2ALgXkO4DsADkHkDqAA5FpP/8O30ff/38A34ClPoV7b2COf33Yaa4krbDwABqGFBYwPwwIs2P7IhxOH7n1bjudZ3s3Oq5VLnXN9UAxgBQG0LYBWQPQJsCUhFIZgCKASQGRIUidXDuA36bf/32mj4BcgM3Rp9AuPUWhHalC6p0J/FuACAWOHI52vJIszuygFs9l/Fu9XTgFNBD43VrACC6gtSGEMEAwgWk+4HaFJAsYBoYqcb/oS1mIW/Glpq+n79+7j4/Abp0smveacS4bsaMLusxo8tGDQC2Y3aPnQjrsVsjBFUGiDI/UhVjcdS9RgD4v+r/X251nZe7awFA1UAqdhi6gmRbmOICUiVQzAsgE4hTwK9lCvj2GPz4/iSM7DALKT/kYMfCg7hayyp/93kmj/23VZZX4nLRDayPPIow+7WY2nElpndag+DOdBF1A0K6blIYwBQA+0B+gLSGRTpodnR6jQBwb2jX1K2eyykGgGoDEwC4H+DOdYAvXpFXxH/BwLdGYkS7aUj5aREOrDwmCiCP/RN6Cv8HNNXkaslNcbso4/utmNY9F5Pb52JKh2UKAFbfEwDhvcgPkACQQvDo6jDbM9XHzLrWdersVs9FVLm0HoC3oSGEAGDcC0AuIJtAP+Kbt3/BRIfZWJu0BZdLrj6FR/L4v6Wya7dRkn8Z29KPIf37DZhulo3xbegiSTYmtV+KyR3yMLXjCkzruErDABsR0nUzQoUGUBmAUkEGgFIhVDOBc9FmR6svpnCv5/JjTQBgF9DEA2jKN4UJAF+98SMmOc3EtkW7cevm09nV+/iPnv8P84ZtwPgOc8W9gbGt52FcmwWY0DYLE9vlYHL7pcrbvwLTOq3G9M5rhQagBhFVBN4XABBtebS7URjoWqfrf7rVd8kgAehe3w0e9asLQD+tB6AAYES3cdiYsQ1l1/4941n+XQfxR/1/IjyXYjS1ireah3Gt6SrZQkxouxiT2i1R6H85pon4T/RPAOD4H9ptC2Z226bJAqQIrEEDmB9BlMUR41Fyunq6Z93qOh8yEoCGbhfZDKKaQH1f/hpR38Sj9NSFWnVt+4862Pv9/063WKS8/Zni7Rf035bofwnTfwcCwCpM77wGwWISiQYA3bdjVg/qEiInUAUA9QtKI0ipCSDG4tgi2sFsYAGPBs7vutVzqVANIC4CGdqd5L2A5/uh36sDsGDyYpRdv3W/39dfv+8+PoGrpTcxudsCk7c/C5NM6H96J/n2r0eISAEpA6AhVZL+2Qo2iv/mUgByZTDG8lhhpPlJdZSce10nfxH/TQwgVQDyxRC6IZwyYk6tmNRxH5/5E/VbTu0uxYSOmRjbOhPjq8V+En/LMa3TKgR35jlEIUb0TyYQAcD47VdbxEwAYHGsMtay4GPJAH9zq+sSIen/ThkA3QkY0es33Lh844n64J6WL2ZfzkmMa0vUz3cDSPmz8JOHT7m/NvXbKFrE2QHcron/exQTiJtE2QNQAEDNoqI5JB96q/wvBQAs61j+062eyy6mf2oCYQGoVgHpaliguBy6XL/yafm8n7jvY+nE3cqbT2nfYhH36V7A1I6U95Py59hPt4RCum4Qyl+IP1EDUOhfxH5K/9RyMLWGiSZRpTFEAMAyH7EWBXGiQUTXSPecez3dLdX/18Z/KQAD0e+1L3F0y9N5dfuPRgM1csR4rRS3gujw5duvHv5KFn7a1E8of0n9ans4H77SIi46grhDWLSKWxwVDKDnRtHD4uawaz1nW6J/FQBUApb97hIAfdDn5S+wY8muP/qzeir//yX5VzDDbKli+MicXzF9lHFznPath8j7u8nizzbN3YDdypu/D5Em7eHUEkaXReTbT/cF9JYFFYlW+a/Uca/nMo7on/N/jQXcyBd8L1C9EDJRNxVXzz+5Ll9FeRVuXqrEteIKXDlTjsqKJ697tyYE75p/ApM6ULqnPXweMUfXwtTDJ+qXqn8bZtEdQSr+KNRPl0MizMj5o6ti3BVsePMtj8kWcTp8xFoVItbyhFsdj3q65fz2u8GjgSkA6GawCoDAF/pjost0HFp/BNQu/Uf9U3GrEtdLynEh/xZOb72B/fOuYGPwReQNKcXiL0swv/c55P10HuU3n/wbx3RRJOO7rXz4Hcjt04i+Gg+fRtjzBVFR+eu5C+E9+Y4gq35uBlUvhxjRvua2UCFirU5MruNeT3dMAkAKQLoMQikgXXnSAoDuBNKNoK/e/h5TPWZhWeRq5G8vxOVzVx6pIXT7ZgWoy+X88etiQnf+mgvYM/ccNsw6jdwRJ7DgqwKk+xcgWXcc8TbKZAwxMeuMOPxdcVdwvfTJHypJL1DJsSsItVyuzBOk4ZI8ZVR986XoozuBfPic8sm4T9Qvr4btR5S4GcTdwHRRVFC/iPnigohyVaxQ3B6Osy5MqONez7WQ6v/aLmA2gHxFGdgYAOqNIHEp9OXvMLDZLxjWfjwm2M1EzIA0zB2Vg7xZa7E+eQe2LdiP7QsPiFLwjkWHsHPRYezKOordWcewfe4RrIveh7WR+7F0wk4sCtqOjEFbEO+/AXqPDYjRbUSk3UaEWWzCLLHQiaZmVd/YQeNREmwLseDzIuxLv4KrZytqVcvZuoijmNKR1b7piFlW/OvFbAB1ELVp3FcP/07Ur4g+w+ET/cdZnUCc9cmEOu71XderADAVgKaXQpkBeDyMvBZO7eA8G0jbEFpTOxiNgh0u1sLQMgjaBEIrYGg4Aq184TEpPEePdvrQDD1a37JezNiltS08No0madLItEOIsz2KvGFFKFhzDWWXKx4pC/07wtvVkjLEuK9XTB51vnAwjZXtIgXfJs73u2/huQDiQuhODe2T4te++fJeIF0LE7eCjGif5gbEWdPhn0CczcmQOh713SZzB5Bp/JcZgKoBZAhQASAbQuVkEG4J510BSkewoSOIdgTRlWhaDhWDkR/TIgialZOGsa0zML4tzdCjK9E8LInm5NAOHwYAD0oSe3t67Uai20FsDi/GxUK6qlU7hF5NgNqaVCjmARHYaRIIHTyNkhVzAMQ18E2Y2Z1sXor520AzAWgwhCHmm8nDV0WfSvs1HL48eOuT9PYTCNzruDV0+8Sjvnulp5EApCvPCgA0IpBnBcpbwTwgSnQEaxpCDJdCNHcC5JWwoc1pMQQthaCVMDQdIwG0A2is2Psjx6bRyrclyiRN2ui1VszNi7DchsU/H0X+6osoL6usdW+7KQDo7dd7bMT0zmTv8lRxmgxGk8VpHAxNA1EPn9S+cvhiKARvKJHTQQxjYhSnjymfx8XQjACV8gXt8+QQm1Nn06geQJtAPRu4J5IAlJdBWQDWxACsAfoYJoXKCWGmLWHG18LErWBxK4jWw4RhxIc0HoX2A9IKGCUMtJZhgLZ8EQvkIbTXaiQHbse2pFO4UvT0lJzJ+NkQdVwMgWK6J6FH0z/o4DfyFhLDm8+HT9tIeCKI8eHTkCgxI0jMBKARMfLgeTYADY0iuhfjYmhkDD02pyoTbU99K2sBdbzqe73o1cBjf40AIAagOYEmE8J4HArdC6QdQqwDeJGkdjgU3wvgtnCaCUTzAGdjOI1HEXsAZBighZC0Ai4TkztlIUq3CiumHsDp3ZdqTS5v+obf7b9LjlxDuPUGwwh5uVyC3/rNmK1QPk8B0e4lonEwCu3LCWGGg1fnA4nJIDwdRIyN40MXBy9GyCXYnF6YpjtpvIbeu5F3J6+GXsVUA6CxMHcOAXJq+DfoSxdDlQFR6ngYORuAr4aL8bBiMATdC6DtIEoYENtAYjFKsEAKxrfLQObQTTi65ixuXn56S823rldgweB94o1X33peJkGr6TjW0xAoOngSe5qlVGIg1AExIzDaMA9IOXjlzY9TDl6Mi5Nvvs0peuvF4cfbnN6VaHXmFcPbL/+FxsJ5NvIM9GrofV0bAozTQB4UKS+G0iiUfmJkPN0MIiHIU0INOuAtbg03vRzK2YAiBpVsYEKHdBxefbrWx/a7vfl0kYPCGe0iDO3GK2XkTkJV6PFuQlpLJ5ZPGTaSKQdPcwFpLJwyDEoOieTxcGImkEL5J3heoDj400iwEc/ZeOszneSZV/uxb52+f/dp5DPWu5FPBTOANIJ4RFxvuhMgB0S9QNtDtKNiFR2guRvAU0JpbRxNCKXxMDQdTMMCihhkFkhGqF0WLp56eu8NnthyCeFW5OOrbzy/9YrKV976CHH4FOuZ8sVuQjEPkA9fnQ7KE0LF4ddA+TQxVBw8D428lmhb5H/PK+Je9b2e8Wrom6kFgJwRSAAwTAgzAQCPiNH6AfKKeHUWEDuCxJ5AWg5FU7JIC9CS6FTEBa7AzatPX3PpxRM3Ee++U3gavDtIpnZE9/TW09g3fusjxVvPSynFNFCjw5dj4FSxxyNilbmANCVUoXs6fJobnGh7piLB9szYFV3xn9Xe+pp+wqeez8s+jfx28ZTQANEPUF0IDhBz8XgiFm0OoalYMhuQM/L4ihiZQt+LS6J0S0gZEK1oARqdyhmBNIbSMPenjY98+ePdqPlx/xrZ2hn994uhzzT4mUe+auP8TtBbz0uq6eBNllCKSaB08FLo8VxgjvN08CZ0z2+8cvhF9GPmwpruAtR0+PLnfBv7tvNt4n+BNAAzAGcCkgV4SphcIsVTQkxZYKDJoKiatAAZQ7QdTPUFkjG2zRxkjdyK8lu1w8+/G4Do8Od9dUCsg6FtYfzIN14evLJb0HT7qJgDTFPB6eB5PLw6FFp78PzW07h4fsRbjySx0LpoX7xTyb0HQ8iD1/7o19jPy7dx71sCAE36iFGxNBBROoLSD6iJBcSkTGVUDDuDFApobi4tjeJZQZwW0gBl2hbKICA9wOYQg+D2jT+u6ni3g73Xr5Hgu1ZCh3/QcOgq1fPBy6WSvINYeevFplEZ6/mtpy3lcTQNXMwBponghWI0PG0t58ngBqoXb32SLW0yp+fspUSHcx9pz/SB/923UcBovyaBVXQvgPoCjfwAuh9QgxaQGYGcF0jXxXliqPa6OIGAJmZSWsgg4B2Bqh6gOkHat+vEFal7feBP0q/T4Z/Pv4GMz+nNp7dd+8bT9nF64/mtl4cfbX5AWTNLI+DVXQD8xtMAaD74eBsaB0/TwE8i0ZZ2A/Dh0+p65Y3nXQF2Z28n259zeeADN/0DlB76NQmYzyzwGYNAEYMUBogFtCBQtYByW1jODHxrlGZ/4CTD0EixMMKgBzRMIEQhrYqfA73fchTtv1ArqnzUhFKw/hKSvPYqwo7Wx8o3fpdy+HsgVsnSOlmxfZwOX3PwCt3TFnK5DCLeRr71dOj8JNGGEM3Bi00htCjCrrgy2b54nOlZ/u7/9mni09ivSeCemllAWxugtFAKQlkgonWyWneQikRyiSSnhqYgCPooWlkbT5lBCsa2moNgiyzsWljwROsC2iW8RV+EGBtq0KBDVw6+xjd+v6hq0goYo8OnfUBE+coWEDp4w+Eb3nj14NVDpzUxxfw4nEtL0+HBJ4TfDSF+z/dpSfuDaEqI/3N9wWKQagPSGZSCkOsDPDbG1BzirEBdIUMbxXmMejUQfEy1AloUzSAY0yoNE9rPw/xhm1F6/MqTxPiCmYr2XMWCgYeNDp5pXlI9v/VUyqYNYHzwcuuHpHwWetrDpzUwYhWMcvjV3nj7YqQYHtoTdG5bsl1J07ud5e/9tb/5Nwl092/S54aqBcgY+kIMSBah4EVpDyuLpJQaAa+R4WWSxqvkNCPkaISsUivgimEUgiQIxEx9KhpR6TgdIdbZ2KA/hOsX/vgC0ZWzt7A+9BRiHagxQ3nrzSilk8pe0j2tedEcvOVB8Er5w6B9gLQJTIg9zZvPB8+xXkv3vBRKHrw4dLEpLMWx5FSaQ0nL33vA9/xzQXWC/tP/uYCR/k36VDAIKCPQsIBBEHKNQF0qKQ0iOUKOdwkxEyhzhEVmwEsk1LIxewTCKFJAQGYRhQRasxLtuRw75h7/Q4BA1cmt+iIke1EjpqR6Onh5+LvFuniO9drDp9Vvdzr8fMRbU4sbx3vaCUjxPsmOKZ92AybbE9XTarhiettByyJpT2CqQ8m1FMcS93s6ffc85Xv8Bp8mPv/r16RPEhlDAgR3FIRUJ5BMQAaRBEHNTKAukyKjiLaJzlQWSZMwpMUKtGeHysdy4dIcjGudgYnt5yPcKQ9rZh8EtVc/zgHUJPDO7r2G1VNPIMF1j3Lwpm89K3za+qkePq1748WPtPfP9M3nmE+HTz2Oiti74+HTm89vvXr4pRWpDiVBDzQR/B7nfNdfDmgY0NS/cZ+tqh4gFuB2MbFKRjDBN6JWQOVizgx+qgEEcrk0C0M5UVwulDK2jOUaeXIMVV0wrvVcUUae2G4BpnXPRsoXG7Al8RhKjz+a9nVx6PuvYVv8GaT33Y8o650I70XKXj7VAVDT4cuYX+3wraXg0za4mrz59vzmc6w3vPHKm19KO4PTHtjpu+sJ38cvBjQO+NCvSeBpCQJaKccGEYtC1gRfo59YnqDsFHrlB0PVkPsHuV6gNYoECMRUcd4qxkxAPgE5hhQSmA1kAWkMhQRqKWszD+PbUlfRArGedWqnbEQ6r0LWiF3Ykngc+etLcL7gGqjjmGbuqE8VaAY/jWS5faMC5/OvI3/tBWyJPYXsoYegd9qBcDPp4G3jnL4XNajK9I4BoFI/vflS8PGbX/3wKd7T9s9j/NbXRPtKipesLIdWKV/QvVgUneZYWpXmWLp5ruPZxvdxZI/+t/g/F6jzaxJ4Tc4PVG1iEobkEaiTRHi/YPW9Amoj6ShlwSQLQxESFF0gmED0E4YbmkrJOh4lSskUEritjEICAUGCYFJ76jHULmymnXzLEW67FjEuGxDjshExLpug121GhDVdtqTFTBtEC9qs7ry0kQs3WxDWk/b2EQAkCDQMYMY7fkn4mR5+jEjzZNxXBR8ffj7ibWjzJ8f9RNsThphPC6G1h890z28/LYdOczxPz+kUxwsPvg/oUULBt3HACL8mgeXMBOQUaoShslWEuoe4dKztIGKfgJcrqbpgkNJDwJu2aMcQOYYyQ5A9hZIJuK+QdQGZRpwlUJcxscFE2s8rGk1pKSO1mambuwkIwZ1pLRtv8A7pSh3I61QQdNsACYLZPWhnnxYEirsnWUARflFmxm++8eGz0SM2gBvefgKA9vBPqhvB7TUAcCg2iD15+HOcLlxLc7ro+CjP8nf9Xbpmun/4Numd6NckoMq4bMzZgZYJ1P4BJSS8SrpgCM8XFI6hLCErU0bFujWqICp7BkUvAYvDEaK9XBaR2C/47VNKFZUsQbABgYBDwqT2tJ5VssFSTOtEbLAM0zsTEFQQUBMqr3NnNrgzCLYhXIQCsnZZ+dcIABPFH6c9fLrTYACA5vC1b7/h8Gk1fIlC/ecr5jhdGPK7Duxx/CHPl/vX82kUsJkWSxlAcEeziNxCtZVMbNd6zRQEmtqBAgJ15bzMEGT9gECg5zZzQ5bAFrIUiBNEyzlt66aGUw0IOpqCYBVC5Cp3WuCshATa38s7fKlli5lAhAKDFlAAYBL7BQOYAsBaxn5J/4VIENR/Ekl2nPIla97+VAMA5OGXIt3hfMojd/oeFhg+TQKb+zb2P0NbRo3qBtpm0qZfKbWDAYZuIm3tgMfNa61jYgKtdSynjgaLhdNcRKL9ezWFBC0TkC6gewcKCNpT6zmHhGliYbPKBCobrEVoNwUEih6oFgokACQD3AUA0uyh2E8eP6d8WvpXDr/Gt58OXwLg/OYk2ysNH/a8Hsuf923ia+/TyO+aAIFkA1lF1GYJShFJDQnfaxpKTIpIYueeZv08LZ9Wdg+pzqGWDWSjKYtDcfPIIA4ZBBPbLYIICQY2oK3dLBBJF8zoQkxAmkCCQApDuqCyGWFim7cMAZwNGAlAC5n3S/F3yOD21Sz+NG+/3RmkKMpfvv3q4ZeenOt48cPHcniP4i+lyqFPI5+ffBr5VcqdwzWHBfIMZA1BCkR5x0BpMRebN7XiUA6f5v2D3FPAG8hkpzFfO5N9BcZ1BDVDUFNFCglTOmRjaselMGUCAQIhDFUQSD0QJsIAZwMyHaQ0sKYMQC9CwJ3VPyt/BkCy3WkQ/QsAOJyFCQCuzHEssXkU5/RY/46+Tfv+j3dD73i1s5iXT2u7i7XpYh/RU0AhQbuJnJxDzhKop0DdQiZH0FOTqVxDb9xuLu8ecodRHLedC3GYJpxDkSGIVFENCRwOCASsCSQLqCCQoYAyA4UFZFqoZAICACIN3Itoc5UBtAAwCECT1C/J9p4AqEx1LP3x3+b0PSxCPJp6NPRq4L3Ou6FPFU0apQZT2WTK+kBpL9OmjNRXYNhFbHLn0MAGXEPQ6gISh2IXobhzQBmCNhxQRZEbTDhDUNJExT3kC6mLMJkyBKEJjENBcBeZHUgWoIuqG8VtZRaDGhYw1QHC+j0AUwDEk/kjAWBbCGKAewCgKs2pNCbG//h/Pey5/Fv/vE8Dt/c8G3gWiIsmDX2UFat85dwQFgzTR5WCkqbDSFw4MTSaki5QllFU6zOkkjLvIx7SnDOEYR/QLWR2DkWGoICADCPyCsaJW0h0FU1NEwkEzATGIKimB7pLFtBmAzXpAPL+HxoAVWkO59bNdbzS4N96eI/qf+be0N3as4HHRdpASmtoJRgMbGB08ZQvnbA20GYJtIiZdAH3FlBIGKispDGuJipeQXO6hUyGkbyKrmoCtYbAhSR2DRkEk9oxE4iLqSIzkKKQWIAuqa5RsgI2iFgMEggkC5AbSDqA3MC9iLbYVyMAhAi0yef8XzKAnWkIOIsUB3qKC1Icz/6xTt9DguFvHg08fvCo735bvXyqAMEwg0hJG6nf8HneSEaFJXUnEbuHlC4adMEbw2sGAa2mNbiGHA7YMKLr6OQaqoUkUVJunaHMJsgEFZOkTzCVbid3zFWMIs4K6Kq6uKncTQkDQgtIFqDaAANAZgMSALL0a+oAJlAYkACoQQOkOpy9lOJ49skXffcCiK6O7h8e9d2jPOq7VXooN5D5EqqcROarrqc3pIx9RXWRQSCXU8pLqD8p20mH4xvBBGoNQd1Own0FzAR0G5kuoBhXE0URifoKDOGAReFkkRmQRyDdQukUKiwgDCItC2wV9QGRDSg1AcoGDEJQMYKqA6BABUA1BigqT3MsHnSvz7bW/LrvvxwbuNdzXete361KnUaiDqSsdhmVbiMrvgHdQ+xrtKJWponVNQFfQVPNIrqMOqyFMROIIlJLaj1XbOPW6SYsYBwKyC4OVuxicgnJGyCHkMTg7O6bNJ6A1AGcDkaLMLDf0PwRa0WpoOoCahmAGj80LmBVit2ZyPu+xVNbUKB7VveaWz3dCd5JoMwlFEMpeDAl30rmjIFEoj9NJxUuogwHKhP0f4XDAe8oGg5xAUXpOh787gSlz5CLSENFm9ksE1Fo7BHw1XQShdrUUPEHlJqBTA2NtQClhNXDADMA6QApBMkIYi9AGkECADYFIgswBsDpjQmW55+pLef6QF+n+7MuPVyfdb7pVtcZxsspiA0084kay0upnC5KTSDSRGVPkbyFxDMJWBMMeku5kv4uZQayiBSMoUYsoBaQfvs0CaNl8agNjalhy3hSu4UiNeR5RawFiAVmdFnJYlDLAoozSLUBCgPGQvB+AKCkghwGTiVaF9//mvcH+vSfkN+sq+fwlWtdR7jWdVJAIKeUqnOKaUwdZwq0rJKZQIBAKS/3e0kuq1IHU8jWc+3Cai4gsVHEeoDG07AeIH+AswK12XS8GFZFgpAAQC6hRgtQGFB8AaMw0IPCgJINCABwb4DUATHEAho3MM76KLReQKIUgnYnb6bYnjF7Qo7p8X0ZdAXd5Vn7cN2zDlWuzypAqOsMw7RyzagadV0NMQFtLPscfQwrawdBhgLZdSzTw++M5hNxZsCdRTSdJJw7iz6Wk8pkzYCdQuENiIxAaoEcTOu4VGQE1cKAkScgawN3AgDXAwxuoDWlgpQJiDBQkWR7csBjb+h8pynmuwAAA89JREFUfMf6YH8zrah1ecZutcsz9lU6AwhoYZXOsLSKQgLPK+RZRdRwQm1ncmllP8PKOo1HoKSHaiggPcCiUJhEIhSwSUSXT6QgpFAg+ghMMgKjWkGnPNFAwp6AiRikMNBzq9IfIMOA0hyiNINSLyDpAC0AFEewMtGmYGZYX80Gjwf7OGvn79Y9Y/em8zN2h1yesYfuWQdQWKiuDVQQ+ImtJQoLUCjQbi43TClTS8mD3h6NwWJxJV1GlSygzCgycQmlQcTt5opDaMQCNLUs19A8UnM2sMWQDkYa0kFjQyjWUgpBQxioSrApyLvrOtfaebz391U7PWvf0/kZ21KXZ+yge9YYCDS+VoyupcnljXh3oZEeMCyv5tV1X77Kuwupx5BCgWCBd8aCswKFBd6foaSFUgtEC4NolCEtlDax2j+gWsR3CAOidUyrA6QpxP2B5AeolrASBgw6IP9QvF3+O/f3aT2dv+tvzs9a93d+1vYGgUBlAye413NRVthW32CuDQVURfz85UFGk8pIEH5LN5KlFnhPssB0DBXegDYM6Lm51BAG5kArBquHAZkN3F8YkABQHcHDICEYZ32sJM76uPnTeawP8F31rdPy707/svnB+V82V1QQkDiUwpAnmEo9QNVEKQhJD5BJxPuLpTcwFF8btMBofPeOvJJOLFBDRiDEoLySThdR0zCuTQYXihR7mHoGeHglhwGRDpqaQjXpADNyBLV+wEHpB5yKt8p3/dOIvnvhgYZVOj9jbe78jO1al2fsyikcCE1Qz1ksslBDAdnGlBqyU2gQhC8NRH9lhzG1lcm5BN9Kc0gMqVLDwNAWoaJYpKaEsVDDQKqRPSyKRB24UijqA52XIbjLCtE7aJwOKkJQ8QPouhjXBYx0wI1Yq0MZsRb5H9zrM/lT/rrIDuradNXVtf/Vra5DnNuzzovd6ulyPOq75Xg18MzxauST49u4d47/cwE5vZ/rlxPQtH9On6Zf5fR78Zucz18elNP/5R9yvnrt55wBbwzN+eaN4TnfvjFy0Xdvj9F///ZY/Q/vTtT/9N4U/c/vT9cPbRGiH9Ziln74BxH6oI+i9b9+HKsf1TJB/1urJP2YVqn6sa3n6Me2nauf2HaeflK7hfpJ7Rbrp3TI1k/ttFQ/vdNy/YzOK/Qzuq7Wh3Rdq5/Zbb1+VrcN+lk9NunDem3WR/Tazo/ZLn2k2W59tMVufbT5vii9+f4foswPfZim2/dor20/zUihQlKNTzPdP6gdnZ+gf+iaqU9Qs6B/yKdvyzB1OeLT/EH99b399Qn83k/g/wPu2oXqw9d53AAAAABJRU5ErkJggg==;" vertex="1" parent="1">
          <mxGeometry x="413" y="780" width="50" height="50" as="geometry" />
        </mxCell>
        <mxCell id="1rdj6Dp2XUtkggpEOAIF-35" value="&lt;font color=&quot;#3333ff&quot;&gt;&lt;b&gt;Managed Cluster&amp;nbsp;&lt;/b&gt;&lt;/font&gt;" style="text;html=1;strokeColor=none;fillColor=none;align=center;verticalAlign=middle;whiteSpace=wrap;rounded=0;" vertex="1" parent="1">
          <mxGeometry x="370" y="870" width="100" height="20" as="geometry" />
        </mxCell>
        <mxCell id="1rdj6Dp2XUtkggpEOAIF-36" value="klusterlet-operator" style="rounded=1;whiteSpace=wrap;html=1;strokeColor=#6C8EBF;fillColor=#CCCCCC;" vertex="1" parent="1">
          <mxGeometry x="647" y="854" width="114" height="40" as="geometry" />
        </mxCell>
        <mxCell id="1rdj6Dp2XUtkggpEOAIF-37" value="" style="group" vertex="1" connectable="0" parent="1">
          <mxGeometry x="625" y="765" width="140" height="80" as="geometry" />
        </mxCell>
        <mxCell id="1rdj6Dp2XUtkggpEOAIF-38" value="Application Addon" style="rounded=1;whiteSpace=wrap;html=1;strokeColor=#6c8ebf;fillColor=#CCCCCC;" vertex="1" parent="1rdj6Dp2XUtkggpEOAIF-37">
          <mxGeometry width="120" height="60" as="geometry" />
        </mxCell>
        <mxCell id="1rdj6Dp2XUtkggpEOAIF-39" value="Application Addon" style="rounded=1;whiteSpace=wrap;html=1;strokeColor=#6c8ebf;fillColor=#CCCCCC;" vertex="1" parent="1rdj6Dp2XUtkggpEOAIF-37">
          <mxGeometry x="10" y="10" width="120" height="60" as="geometry" />
        </mxCell>
        <mxCell id="1rdj6Dp2XUtkggpEOAIF-40" value="Addon agent" style="rounded=1;whiteSpace=wrap;html=1;strokeColor=#6c8ebf;fillColor=#CCCCCC;" vertex="1" parent="1rdj6Dp2XUtkggpEOAIF-37">
          <mxGeometry x="20" y="20" width="120" height="60" as="geometry" />
        </mxCell>
      </root>
    </mxGraphModel>
  </diagram>
</mxfile>
